<ttFont>
<head>
    <!-- Most of this table will be recalculated by the compiler -->
    <tableVersion value="1.0"/>
    <fontRevision value="1.01"/>
    <checkSumAdjustment value="0xe405faa8"/>
    <magicNumber value="0x5f0f3cf5"/>
    <flags value="00000000 00000001"/>
    <unitsPerEm value="1000"/>
    <created value="Fri Jan 11 01:46:51 2019"/>
    <modified value="Fri Jan 11 09:46:53 2019"/>
    <xMin value="-181"/>
    <yMin value="-325"/>
    <xMax value="1187"/>
    <yMax value="927"/>
    <macStyle value="00000000 00000010"/>
    <lowestRecPPEM value="3"/>
    <fontDirectionHint value="2"/>
    <indexToLocFormat value="0"/>
    <glyphDataFormat value="0"/>
  </head>
    <TTGlyph name=".notdef" xMin="80" yMin="0" xMax="560" yMax="663">
      <contour>
        <pt x="80" y="0" on="1"/>
        <pt x="80" y="663" on="1"/>
        <pt x="560" y="663" on="1"/>
        <pt x="560" y="0" on="1"/>
      </contour>
      <contour>
        <pt x="190" y="57" on="1"/>
        <pt x="450" y="57" on="1"/>
        <pt x="320" y="270" on="1"/>
      </contour>
      <contour>
        <pt x="147" y="553" on="1"/>
        <pt x="147" y="110" on="1"/>
        <pt x="283" y="332" on="1"/>
      </contour>
      <contour>
        <pt x="358" y="332" on="1"/>
        <pt x="493" y="110" on="1"/>
        <pt x="493" y="553" on="1"/>
      </contour>
      <contour>
        <pt x="190" y="606" on="1"/>
        <pt x="320" y="393" on="1"/>
        <pt x="450" y="606" on="1"/>
      </contour>
    </TTGlyph>
    <TTGlyph name="A" xMin="-29" yMin="0" xMax="646" yMax="663">
      <contour>
        <pt x="-29" y="0" on="1"/>
        <pt x="-20" y="47" on="1"/>
        <pt x="65" y="59" on="1"/>
        <pt x="392" y="663" on="1"/>
        <pt x="470" y="663" on="1"/>
        <pt x="562" y="57" on="1"/>
        <pt x="646" y="47" on="1"/>
        <pt x="637" y="0" on="1"/>
        <pt x="350" y="0" on="1"/>
        <pt x="359" y="47" on="1"/>
        <pt x="444" y="56" on="1"/>
        <pt x="421" y="221" on="1"/>
        <pt x="204" y="221" on="1"/>
        <pt x="121" y="60" on="1"/>
        <pt x="206" y="47" on="1"/>
        <pt x="196" y="0" on="1"/>
      </contour>
      <contour>
        <pt x="231" y="273" on="1"/>
        <pt x="414" y="273" on="1"/>
        <pt x="375" y="550" on="1"/>
      </contour>
    </TTGlyph>
    <TTGlyph name="AE" xMin="-35" yMin="0" xMax="907" yMax="663">
      <contour>
        <pt x="457" y="353" on="1"/>
        <pt x="469" y="415" on="0"/>
        <pt x="491" y="539" on="0"/>
        <pt x="501" y="601" on="1"/>
        <pt x="495" y="601" on="1"/>
        <pt x="275" y="280" on="1"/>
        <pt x="443" y="280" on="1"/>
      </contour>
      <contour>
        <pt x="-35" y="0" on="1"/>
        <pt x="-25" y="47" on="1"/>
        <pt x="60" y="59" on="1"/>
        <pt x="441" y="605" on="1"/>
        <pt x="346" y="616" on="1"/>
        <pt x="355" y="663" on="1"/>
        <pt x="907" y="663" on="1"/>
        <pt x="882" y="488" on="1"/>
        <pt x="818" y="488" on="1"/>
        <pt x="819" y="610" on="1"/>
        <pt x="623" y="610" on="1"/>
        <pt x="577" y="366" on="1"/>
        <pt x="710" y="366" on="1"/>
        <pt x="741" y="454" on="1"/>
        <pt x="789" y="454" on="1"/>
        <pt x="746" y="228" on="1"/>
        <pt x="698" y="228" on="1"/>
        <pt x="701" y="313" on="1"/>
        <pt x="567" y="313" on="1"/>
        <pt x="566" y="310" on="1"/>
        <pt x="553" y="246" on="0"/>
        <pt x="531" y="118" on="0"/>
        <pt x="520" y="53" on="1"/>
        <pt x="750" y="53" on="1"/>
        <pt x="794" y="175" on="1"/>
        <pt x="858" y="175" on="1"/>
        <pt x="819" y="0" on="1"/>
        <pt x="309" y="0" on="1"/>
        <pt x="318" y="47" on="1"/>
        <pt x="401" y="56" on="1"/>
        <pt x="433" y="228" on="1"/>
        <pt x="240" y="228" on="1"/>
        <pt x="124" y="59" on="1"/>
        <pt x="201" y="47" on="1"/>
        <pt x="192" y="0" on="1"/>
      </contour>
    </TTGlyph>
    <TTGlyph name="Aacute" xMin="-29" yMin="0" xMax="646" yMax="871">
      <component glyphName="A" x="0" y="0" flags="0x204"/>
      <component glyphName="acutecmb.cap" x="355" y="0" flags="0x4"/>
    </TTGlyph>
    <TTGlyph name="Abreve" xMin="-29" yMin="0" xMax="646" yMax="864">
      <component glyphName="A" x="0" y="0" flags="0x204"/>
      <component glyphName="brevecmb.cap" x="325" y="0" flags="0x4"/>
    </TTGlyph>
    <TTGlyph name="Acircumflex" xMin="-29" yMin="0" xMax="646" yMax="867">
      <component glyphName="A" x="0" y="0" flags="0x204"/>
      <component glyphName="circumflexcmb.cap" x="313" y="0" flags="0x4"/>
    </TTGlyph>
    <TTGlyph name="Adieresis" xMin="-29" yMin="0" xMax="646" yMax="849">
      <component glyphName="A" x="0" y="0" flags="0x204"/>
      <component glyphName="dieresiscmb.cap" x="311" y="0" flags="0x4"/>
    </TTGlyph>
    <TTGlyph name="Agrave" xMin="-29" yMin="0" xMax="646" yMax="878">
      <component glyphName="A" x="0" y="0" flags="0x204"/>
      <component glyphName="gravecmb.cap" x="325" y="0" flags="0x4"/>
    </TTGlyph>
    <TTGlyph name="Amacron" xMin="-29" yMin="0" xMax="646" yMax="815">
      <component glyphName="A" x="0" y="0" flags="0x204"/>
      <component glyphName="macroncmb.cap" x="317" y="0" flags="0x4"/>
    </TTGlyph>
    <TTGlyph name="Aogonek" xMin="-29" yMin="-237" xMax="646" yMax="663">
      <component glyphName="A" x="0" y="0" flags="0x204"/>
      <component glyphName="uni0328" x="535" y="0" flags="0x4"/>
    </TTGlyph>
    <TTGlyph name="Aring" xMin="-29" yMin="0" xMax="646" yMax="897">
      <component glyphName="A" x="0" y="0" flags="0x204"/>
      <component glyphName="ringcmb.cap" x="312" y="0" flags="0x4"/>
    </TTGlyph>
    <TTGlyph name="Atilde" xMin="-29" yMin="0" xMax="646" yMax="860">
      <component glyphName="A" x="0" y="0" flags="0x204"/>
      <component glyphName="tildecmb.cap" x="317" y="0" flags="0x4"/>
    </TTGlyph>
    <TTGlyph name="B" xMin="7" yMin="0" xMax="596" yMax="663">
      <contour>
        <pt x="115" y="616" on="1"/>
        <pt x="124" y="663" on="1"/>
        <pt x="389" y="663" on="1"/>
        <pt x="464" y="663" on="0"/>
        <pt x="555" y="622" on="0"/>
        <pt x="596" y="555" on="0"/>
        <pt x="596" y="515" on="1"/>
        <pt x="596" y="456" on="0"/>
        <pt x="511" y="367" on="0"/>
        <pt x="434" y="350" on="1"/>
        <pt x="510" y="334" on="0"/>
        <pt x="586" y="243" on="0"/>
        <pt x="586" y="184" on="1"/>
        <pt x="586" y="133" on="0"/>
        <pt x="524" y="50" on="0"/>
        <pt x="398" y="0" on="0"/>
        <pt x="302" y="0" on="1"/>
        <pt x="7" y="0" on="1"/>
        <pt x="16" y="47" on="1"/>
        <pt x="99" y="56" on="1"/>
        <pt x="155" y="353" on="1"/>
        <pt x="167" y="416" on="0"/>
        <pt x="189" y="543" on="0"/>
        <pt x="200" y="606" on="1"/>
      </contour>
      <contour>
        <pt x="264" y="310" on="1"/>
        <pt x="251" y="246" on="0"/>
        <pt x="229" y="116" on="0"/>
        <pt x="218" y="51" on="1"/>
        <pt x="286" y="51" on="1"/>
        <pt x="378" y="51" on="0"/>
        <pt x="465" y="136" on="0"/>
        <pt x="465" y="200" on="1"/>
        <pt x="465" y="259" on="0"/>
        <pt x="390" y="323" on="0"/>
        <pt x="328" y="323" on="1"/>
        <pt x="266" y="323" on="1"/>
      </contour>
      <contour>
        <pt x="366" y="612" on="1"/>
        <pt x="321" y="612" on="1"/>
        <pt x="276" y="372" on="1"/>
        <pt x="318" y="372" on="1"/>
        <pt x="400" y="372" on="0"/>
        <pt x="479" y="445" on="0"/>
        <pt x="479" y="506" on="1"/>
        <pt x="479" y="553" on="0"/>
        <pt x="424" y="612" on="0"/>
      </contour>
    </TTGlyph>
    <TTGlyph name="C" xMin="52" yMin="-17" xMax="620" yMax="680">
      <contour>
        <pt x="339" y="-17" on="1"/>
        <pt x="252" y="-17" on="0"/>
        <pt x="123" y="54" on="0"/>
        <pt x="52" y="186" on="0"/>
        <pt x="52" y="277" on="1"/>
        <pt x="52" y="360" on="0"/>
        <pt x="110" y="506" on="0"/>
        <pt x="215" y="617" on="0"/>
        <pt x="356" y="680" on="0"/>
        <pt x="439" y="680" on="1"/>
        <pt x="486" y="680" on="0"/>
        <pt x="573" y="657" on="0"/>
        <pt x="620" y="628" on="1"/>
        <pt x="597" y="482" on="1"/>
        <pt x="530" y="482" on="1"/>
        <pt x="529" y="606" on="1"/>
        <pt x="487" y="626" on="0"/>
        <pt x="440" y="626" on="1"/>
        <pt x="382" y="626" on="0"/>
        <pt x="286" y="570" on="0"/>
        <pt x="215" y="473" on="0"/>
        <pt x="176" y="346" on="0"/>
        <pt x="176" y="275" on="1"/>
        <pt x="176" y="201" on="0"/>
        <pt x="226" y="94" on="0"/>
        <pt x="315" y="37" on="0"/>
        <pt x="373" y="37" on="1"/>
        <pt x="393" y="37" on="0"/>
        <pt x="430" y="44" on="0"/>
        <pt x="449" y="50" on="1"/>
        <pt x="495" y="180" on="1"/>
        <pt x="563" y="180" on="1"/>
        <pt x="536" y="30" on="1"/>
        <pt x="498" y="11" on="0"/>
        <pt x="404" y="-17" on="0"/>
      </contour>
    </TTGlyph>
    <TTGlyph name="Cacute" xMin="52" yMin="-17" xMax="634" yMax="875">
      <component glyphName="C" x="0" y="0" flags="0x204"/>
      <component glyphName="acutecmb.cap" x="369" y="4" flags="0x4"/>
    </TTGlyph>
    <TTGlyph name="Ccaron" xMin="52" yMin="-17" xMax="620" yMax="882">
      <component glyphName="C" x="0" y="0" flags="0x204"/>
      <component glyphName="caroncmb.cap" x="320" y="4" flags="0x4"/>
    </TTGlyph>
    <TTGlyph name="Ccedilla" xMin="52" yMin="-231" xMax="620" yMax="680">
      <component glyphName="C" x="0" y="0" flags="0x204"/>
      <component glyphName="uni0327" x="370" y="0" flags="0x4"/>
    </TTGlyph>
    <TTGlyph name="D" xMin="7" yMin="0" xMax="688" yMax="663">
      <contour>
        <pt x="115" y="616" on="1"/>
        <pt x="124" y="663" on="1"/>
        <pt x="395" y="663" on="1"/>
        <pt x="488" y="663" on="0"/>
        <pt x="619" y="593" on="0"/>
        <pt x="688" y="468" on="0"/>
        <pt x="688" y="386" on="1"/>
        <pt x="688" y="293" on="0"/>
        <pt x="624" y="149" on="0"/>
        <pt x="512" y="50" on="0"/>
        <pt x="369" y="0" on="0"/>
        <pt x="289" y="0" on="1"/>
        <pt x="7" y="0" on="1"/>
        <pt x="16" y="47" on="1"/>
        <pt x="99" y="57" on="1"/>
        <pt x="155" y="353" on="1"/>
        <pt x="167" y="416" on="0"/>
        <pt x="189" y="543" on="0"/>
        <pt x="200" y="606" on="1"/>
      </contour>
      <contour>
        <pt x="264" y="310" on="1"/>
        <pt x="251" y="246" on="0"/>
        <pt x="229" y="116" on="0"/>
        <pt x="218" y="51" on="1"/>
        <pt x="289" y="51" on="1"/>
        <pt x="355" y="51" on="0"/>
        <pt x="456" y="108" on="0"/>
        <pt x="526" y="204" on="0"/>
        <pt x="562" y="326" on="0"/>
        <pt x="562" y="392" on="1"/>
        <pt x="562" y="499" on="0"/>
        <pt x="453" y="612" on="0"/>
        <pt x="352" y="612" on="1"/>
        <pt x="321" y="612" on="1"/>
      </contour>
    </TTGlyph>
    <TTGlyph name="Dcaron" xMin="7" yMin="0" xMax="688" yMax="878">
      <component glyphName="D" x="0" y="0" flags="0x204"/>
      <component glyphName="caroncmb.cap" x="276" y="0" flags="0x4"/>
    </TTGlyph>
    <TTGlyph name="Dcroat" xMin="7" yMin="0" xMax="688" yMax="663">
      <component glyphName="Eth" x="0" y="0" flags="0x204"/>
    </TTGlyph>
    <TTGlyph name="E" xMin="7" yMin="0" xMax="599" yMax="663">
      <contour>
        <pt x="115" y="616" on="1"/>
        <pt x="124" y="663" on="1"/>
        <pt x="599" y="663" on="1"/>
        <pt x="574" y="488" on="1"/>
        <pt x="509" y="488" on="1"/>
        <pt x="510" y="610" on="1"/>
        <pt x="321" y="610" on="1"/>
        <pt x="275" y="366" on="1"/>
        <pt x="408" y="366" on="1"/>
        <pt x="438" y="454" on="1"/>
        <pt x="487" y="454" on="1"/>
        <pt x="444" y="228" on="1"/>
        <pt x="396" y="228" on="1"/>
        <pt x="399" y="313" on="1"/>
        <pt x="265" y="313" on="1"/>
        <pt x="264" y="310" on="1"/>
        <pt x="251" y="246" on="0"/>
        <pt x="229" y="118" on="0"/>
        <pt x="218" y="53" on="1"/>
        <pt x="448" y="53" on="1"/>
        <pt x="492" y="175" on="1"/>
        <pt x="556" y="175" on="1"/>
        <pt x="517" y="0" on="1"/>
        <pt x="7" y="0" on="1"/>
        <pt x="16" y="47" on="1"/>
        <pt x="99" y="56" on="1"/>
        <pt x="155" y="353" on="1"/>
        <pt x="167" y="416" on="0"/>
        <pt x="189" y="543" on="0"/>
        <pt x="200" y="606" on="1"/>
      </contour>
    </TTGlyph>
    <TTGlyph name="Eacute" xMin="7" yMin="0" xMax="599" yMax="871">
      <component glyphName="E" x="0" y="0" flags="0x204"/>
      <component glyphName="acutecmb.cap" x="322" y="0" flags="0x4"/>
    </TTGlyph>
    <TTGlyph name="Ecaron" xMin="7" yMin="0" xMax="599" yMax="878">
      <component glyphName="E" x="0" y="0" flags="0x204"/>
      <component glyphName="caroncmb.cap" x="286" y="0" flags="0x4"/>
    </TTGlyph>
    <TTGlyph name="Ecircumflex" xMin="7" yMin="0" xMax="599" yMax="867">
      <component glyphName="E" x="0" y="0" flags="0x204"/>
      <component glyphName="circumflexcmb.cap" x="269" y="0" flags="0x4"/>
    </TTGlyph>
    <TTGlyph name="Edieresis" xMin="7" yMin="0" xMax="599" yMax="849">
      <component glyphName="E" x="0" y="0" flags="0x204"/>
      <component glyphName="dieresiscmb.cap" x="283" y="0" flags="0x4"/>
    </TTGlyph>
    <TTGlyph name="Edotaccent" xMin="7" yMin="0" xMax="599" yMax="856">
      <component glyphName="E" x="0" y="0" flags="0x204"/>
      <component glyphName="dotaccentcmb.cap" x="277" y="0" flags="0x4"/>
    </TTGlyph>
    <TTGlyph name="Egrave" xMin="7" yMin="0" xMax="599" yMax="878">
      <component glyphName="E" x="0" y="0" flags="0x204"/>
      <component glyphName="gravecmb.cap" x="294" y="0" flags="0x4"/>
    </TTGlyph>
    <TTGlyph name="Emacron" xMin="7" yMin="0" xMax="599" yMax="815">
      <component glyphName="E" x="0" y="0" flags="0x204"/>
      <component glyphName="macroncmb.cap" x="291" y="0" flags="0x4"/>
    </TTGlyph>
    <TTGlyph name="Eogonek" xMin="7" yMin="-237" xMax="599" yMax="663">
      <component glyphName="E" x="0" y="0" flags="0x204"/>
      <component glyphName="uni0328" x="423" y="0" flags="0x4"/>
    </TTGlyph>
    <TTGlyph name="Eth" xMin="7" yMin="0" xMax="688" yMax="663">
      <contour>
        <pt x="115" y="616" on="1"/>
        <pt x="124" y="663" on="1"/>
        <pt x="395" y="663" on="1"/>
        <pt x="488" y="663" on="0"/>
        <pt x="619" y="593" on="0"/>
        <pt x="688" y="468" on="0"/>
        <pt x="688" y="386" on="1"/>
        <pt x="688" y="293" on="0"/>
        <pt x="624" y="149" on="0"/>
        <pt x="512" y="50" on="0"/>
        <pt x="369" y="0" on="0"/>
        <pt x="289" y="0" on="1"/>
        <pt x="7" y="0" on="1"/>
        <pt x="16" y="47" on="1"/>
        <pt x="99" y="57" on="1"/>
        <pt x="148" y="314" on="1"/>
        <pt x="52" y="314" on="1"/>
        <pt x="62" y="366" on="1"/>
        <pt x="157" y="366" on="1"/>
        <pt x="168" y="426" on="0"/>
        <pt x="190" y="546" on="0"/>
        <pt x="200" y="606" on="1"/>
      </contour>
      <contour>
        <pt x="403" y="314" on="1"/>
        <pt x="265" y="314" on="1"/>
        <pt x="264" y="310" on="1"/>
        <pt x="251" y="246" on="0"/>
        <pt x="229" y="116" on="0"/>
        <pt x="218" y="51" on="1"/>
        <pt x="289" y="51" on="1"/>
        <pt x="355" y="51" on="0"/>
        <pt x="456" y="108" on="0"/>
        <pt x="526" y="204" on="0"/>
        <pt x="562" y="326" on="0"/>
        <pt x="562" y="392" on="1"/>
        <pt x="562" y="499" on="0"/>
        <pt x="453" y="612" on="0"/>
        <pt x="352" y="612" on="1"/>
        <pt x="321" y="612" on="1"/>
        <pt x="275" y="366" on="1"/>
        <pt x="413" y="366" on="1"/>
      </contour>
    </TTGlyph>
    <TTGlyph name="Euro" xMin="17" yMin="-16" xMax="566" yMax="651">
      <contour>
        <pt x="304" y="-16" on="1"/>
        <pt x="200" y="-16" on="0"/>
        <pt x="87" y="119" on="0"/>
        <pt x="85" y="231" on="1"/>
        <pt x="17" y="231" on="1"/>
        <pt x="28" y="284" on="1"/>
        <pt x="87" y="284" on="1"/>
        <pt x="90" y="327" on="0"/>
        <pt x="99" y="366" on="1"/>
        <pt x="45" y="366" on="1"/>
        <pt x="56" y="420" on="1"/>
        <pt x="115" y="420" on="1"/>
        <pt x="141" y="491" on="0"/>
        <pt x="228" y="594" on="0"/>
        <pt x="344" y="651" on="0"/>
        <pt x="410" y="651" on="1"/>
        <pt x="479" y="651" on="0"/>
        <pt x="563" y="571" on="0"/>
        <pt x="566" y="501" on="1"/>
        <pt x="560" y="479" on="0"/>
        <pt x="531" y="458" on="0"/>
        <pt x="515" y="458" on="1"/>
        <pt x="489" y="458" on="0"/>
        <pt x="465" y="488" on="0"/>
        <pt x="462" y="531" on="1"/>
        <pt x="458" y="599" on="1"/>
        <pt x="439" y="603" on="0"/>
        <pt x="417" y="603" on="1"/>
        <pt x="354" y="603" on="0"/>
        <pt x="252" y="502" on="0"/>
        <pt x="223" y="420" on="1"/>
        <pt x="436" y="420" on="1"/>
        <pt x="425" y="366" on="1"/>
        <pt x="207" y="366" on="1"/>
        <pt x="203" y="347" on="0"/>
        <pt x="196" y="306" on="0"/>
        <pt x="194" y="284" on="1"/>
        <pt x="408" y="284" on="1"/>
        <pt x="398" y="231" on="1"/>
        <pt x="191" y="231" on="1"/>
        <pt x="191" y="226" on="1"/>
        <pt x="191" y="129" on="0"/>
        <pt x="263" y="31" on="0"/>
        <pt x="327" y="31" on="1"/>
        <pt x="334" y="31" on="0"/>
        <pt x="347" y="32" on="0"/>
        <pt x="354" y="33" on="1"/>
        <pt x="378" y="98" on="1"/>
        <pt x="392" y="133" on="0"/>
        <pt x="423" y="161" on="0"/>
        <pt x="446" y="161" on="1"/>
        <pt x="480" y="161" on="0"/>
        <pt x="493" y="128" on="1"/>
        <pt x="488" y="81" on="0"/>
        <pt x="434" y="16" on="0"/>
        <pt x="352" y="-16" on="0"/>
      </contour>
    </TTGlyph>
    <TTGlyph name="F" xMin="7" yMin="0" xMax="610" yMax="663">
      <contour>
        <pt x="115" y="616" on="1"/>
        <pt x="124" y="663" on="1"/>
        <pt x="610" y="663" on="1"/>
        <pt x="582" y="488" on="1"/>
        <pt x="517" y="488" on="1"/>
        <pt x="518" y="610" on="1"/>
        <pt x="321" y="610" on="1"/>
        <pt x="275" y="366" on="1"/>
        <pt x="408" y="366" on="1"/>
        <pt x="438" y="454" on="1"/>
        <pt x="487" y="454" on="1"/>
        <pt x="444" y="218" on="1"/>
        <pt x="395" y="218" on="1"/>
        <pt x="398" y="313" on="1"/>
        <pt x="265" y="313" on="1"/>
        <pt x="264" y="310" on="1"/>
        <pt x="240" y="184" on="0"/>
        <pt x="219" y="58" on="1"/>
        <pt x="312" y="47" on="1"/>
        <pt x="303" y="0" on="1"/>
        <pt x="7" y="0" on="1"/>
        <pt x="16" y="47" on="1"/>
        <pt x="99" y="56" on="1"/>
        <pt x="155" y="353" on="1"/>
        <pt x="167" y="416" on="0"/>
        <pt x="189" y="543" on="0"/>
        <pt x="200" y="606" on="1"/>
      </contour>
    </TTGlyph>
    <TTGlyph name="G" xMin="52" yMin="-16" xMax="670" yMax="680">
      <contour>
        <pt x="52" y="275" on="1"/>
        <pt x="52" y="362" on="0"/>
        <pt x="112" y="510" on="0"/>
        <pt x="218" y="619" on="0"/>
        <pt x="359" y="680" on="0"/>
        <pt x="440" y="680" on="1"/>
        <pt x="494" y="680" on="0"/>
        <pt x="587" y="656" on="0"/>
        <pt x="633" y="626" on="1"/>
        <pt x="610" y="479" on="1"/>
        <pt x="543" y="479" on="1"/>
        <pt x="539" y="611" on="1"/>
        <pt x="518" y="619" on="0"/>
        <pt x="472" y="627" on="0"/>
        <pt x="449" y="627" on="1"/>
        <pt x="387" y="627" on="0"/>
        <pt x="287" y="570" on="0"/>
        <pt x="215" y="471" on="0"/>
        <pt x="177" y="344" on="0"/>
        <pt x="177" y="274" on="1"/>
        <pt x="177" y="199" on="0"/>
        <pt x="231" y="92" on="0"/>
        <pt x="323" y="36" on="0"/>
        <pt x="380" y="36" on="1"/>
        <pt x="409" y="36" on="0"/>
        <pt x="436" y="42" on="1"/>
        <pt x="444" y="87" on="1"/>
        <pt x="452" y="131" on="0"/>
        <pt x="466" y="220" on="0"/>
        <pt x="473" y="264" on="1"/>
        <pt x="378" y="277" on="1"/>
        <pt x="387" y="324" on="1"/>
        <pt x="670" y="324" on="1"/>
        <pt x="662" y="277" on="1"/>
        <pt x="593" y="268" on="1"/>
        <pt x="548" y="27" on="1"/>
        <pt x="502" y="7" on="0"/>
        <pt x="412" y="-16" on="0"/>
        <pt x="354" y="-16" on="1"/>
        <pt x="260" y="-16" on="0"/>
        <pt x="124" y="54" on="0"/>
        <pt x="52" y="185" on="0"/>
      </contour>
    </TTGlyph>
    <TTGlyph name="Gbreve" xMin="52" yMin="-16" xMax="670" yMax="868">
      <component glyphName="G" x="0" y="0" flags="0x204"/>
      <component glyphName="brevecmb.cap" x="350" y="4" flags="0x4"/>
    </TTGlyph>
    <TTGlyph name="Gdotaccent" xMin="52" yMin="-16" xMax="670" yMax="858">
      <component glyphName="G" x="0" y="0" flags="0x204"/>
      <component glyphName="dotaccentcmb.cap" x="331" y="2" flags="0x4"/>
    </TTGlyph>
    <TTGlyph name="H" xMin="7" yMin="0" xMax="803" yMax="663">
      <contour>
        <pt x="506" y="616" on="1"/>
        <pt x="515" y="663" on="1"/>
        <pt x="803" y="663" on="1"/>
        <pt x="793" y="616" on="1"/>
        <pt x="711" y="607" on="1"/>
        <pt x="655" y="310" on="1"/>
        <pt x="643" y="247" on="0"/>
        <pt x="621" y="120" on="0"/>
        <pt x="610" y="57" on="1"/>
        <pt x="695" y="47" on="1"/>
        <pt x="686" y="0" on="1"/>
        <pt x="398" y="0" on="1"/>
        <pt x="408" y="47" on="1"/>
        <pt x="490" y="56" on="1"/>
        <pt x="539" y="314" on="1"/>
        <pt x="265" y="314" on="1"/>
        <pt x="264" y="310" on="1"/>
        <pt x="252" y="247" on="0"/>
        <pt x="230" y="120" on="0"/>
        <pt x="219" y="57" on="1"/>
        <pt x="304" y="47" on="1"/>
        <pt x="295" y="0" on="1"/>
        <pt x="7" y="0" on="1"/>
        <pt x="17" y="47" on="1"/>
        <pt x="99" y="56" on="1"/>
        <pt x="155" y="353" on="1"/>
        <pt x="167" y="416" on="0"/>
        <pt x="190" y="543" on="0"/>
        <pt x="200" y="606" on="1"/>
        <pt x="115" y="616" on="1"/>
        <pt x="124" y="663" on="1"/>
        <pt x="412" y="663" on="1"/>
        <pt x="402" y="616" on="1"/>
        <pt x="320" y="607" on="1"/>
        <pt x="275" y="366" on="1"/>
        <pt x="548" y="366" on="1"/>
        <pt x="559" y="426" on="0"/>
        <pt x="581" y="546" on="0"/>
        <pt x="591" y="606" on="1"/>
      </contour>
    </TTGlyph>
    <TTGlyph name="I" xMin="7" yMin="0" xMax="412" yMax="663">
      <contour>
        <pt x="115" y="616" on="1"/>
        <pt x="124" y="663" on="1"/>
        <pt x="412" y="663" on="1"/>
        <pt x="402" y="616" on="1"/>
        <pt x="320" y="607" on="1"/>
        <pt x="264" y="310" on="1"/>
        <pt x="252" y="247" on="0"/>
        <pt x="230" y="120" on="0"/>
        <pt x="219" y="57" on="1"/>
        <pt x="303" y="47" on="1"/>
        <pt x="294" y="0" on="1"/>
        <pt x="7" y="0" on="1"/>
        <pt x="16" y="47" on="1"/>
        <pt x="99" y="56" on="1"/>
        <pt x="155" y="353" on="1"/>
        <pt x="167" y="416" on="0"/>
        <pt x="189" y="543" on="0"/>
        <pt x="200" y="606" on="1"/>
      </contour>
    </TTGlyph>
    <TTGlyph name="Iacute" xMin="7" yMin="0" xMax="454" yMax="871">
      <component glyphName="I" x="0" y="0" flags="0x204"/>
      <component glyphName="acutecmb.cap" x="189" y="0" flags="0x4"/>
    </TTGlyph>
    <TTGlyph name="Icircumflex" xMin="7" yMin="0" xMax="440" yMax="867">
      <component glyphName="I" x="0" y="0" flags="0x204"/>
      <component glyphName="circumflexcmb.cap" x="156" y="0" flags="0x4"/>
    </TTGlyph>
    <TTGlyph name="Idieresis" xMin="7" yMin="0" xMax="459" yMax="849">
      <component glyphName="I" x="0" y="0" flags="0x204"/>
      <component glyphName="dieresiscmb.cap" x="161" y="0" flags="0x4"/>
    </TTGlyph>
    <TTGlyph name="Idotaccent" xMin="7" yMin="0" xMax="412" yMax="852">
      <component glyphName="I" x="0" y="0" flags="0x204"/>
      <component glyphName="dotaccentcmb.cap" x="158" y="-4" flags="0x4"/>
    </TTGlyph>
    <TTGlyph name="Igrave" xMin="7" yMin="0" xMax="412" yMax="878">
      <component glyphName="I" x="0" y="0" flags="0x204"/>
      <component glyphName="gravecmb.cap" x="178" y="0" flags="0x4"/>
    </TTGlyph>
    <TTGlyph name="Imacron" xMin="7" yMin="0" xMax="451" yMax="815">
      <component glyphName="I" x="0" y="0" flags="0x204"/>
      <component glyphName="macroncmb.cap" x="166" y="0" flags="0x4"/>
    </TTGlyph>
    <TTGlyph name="Iogonek" xMin="7" yMin="-237" xMax="412" yMax="663">
      <component glyphName="I" x="0" y="0" flags="0x204"/>
      <component glyphName="uni0328" x="170" y="0" flags="0x4"/>
    </TTGlyph>
    <TTGlyph name="J" xMin="-37" yMin="-49" xMax="468" yMax="663">
      <contour>
        <pt x="162" y="616" on="1"/>
        <pt x="171" y="663" on="1"/>
        <pt x="468" y="663" on="1"/>
        <pt x="459" y="616" on="1"/>
        <pt x="375" y="607" on="1"/>
        <pt x="323" y="309" on="1"/>
        <pt x="309" y="228" on="0"/>
        <pt x="280" y="125" on="0"/>
        <pt x="260" y="90" on="1"/>
        <pt x="226" y="23" on="0"/>
        <pt x="117" y="-49" on="0"/>
        <pt x="61" y="-49" on="1"/>
        <pt x="24" y="-49" on="0"/>
        <pt x="-30" y="-21" on="0"/>
        <pt x="-37" y="8" on="1"/>
        <pt x="-32" y="34" on="0"/>
        <pt x="7" y="64" on="0"/>
        <pt x="35" y="64" on="1"/>
        <pt x="54" y="64" on="0"/>
        <pt x="92" y="43" on="0"/>
        <pt x="125" y="14" on="1"/>
        <pt x="145" y="37" on="0"/>
        <pt x="174" y="101" on="0"/>
        <pt x="181" y="143" on="1"/>
        <pt x="187" y="172" on="0"/>
        <pt x="195" y="231" on="0"/>
        <pt x="206" y="304" on="0"/>
        <pt x="214" y="354" on="1"/>
        <pt x="223" y="412" on="0"/>
        <pt x="243" y="536" on="0"/>
        <pt x="254" y="605" on="1"/>
      </contour>
    </TTGlyph>
    <TTGlyph name="K" xMin="6" yMin="0" xMax="723" yMax="663">
      <contour>
        <pt x="493" y="616" on="1"/>
        <pt x="502" y="663" on="1"/>
        <pt x="723" y="663" on="1"/>
        <pt x="714" y="616" on="1"/>
        <pt x="617" y="603" on="1"/>
        <pt x="405" y="405" on="1"/>
        <pt x="588" y="56" on="1"/>
        <pt x="661" y="47" on="1"/>
        <pt x="653" y="0" on="1"/>
        <pt x="389" y="0" on="1"/>
        <pt x="396" y="47" on="1"/>
        <pt x="459" y="55" on="1"/>
        <pt x="321" y="326" on="1"/>
        <pt x="252" y="262" on="1"/>
        <pt x="242" y="211" on="0"/>
        <pt x="224" y="108" on="0"/>
        <pt x="216" y="57" on="1"/>
        <pt x="293" y="47" on="1"/>
        <pt x="283" y="0" on="1"/>
        <pt x="6" y="0" on="1"/>
        <pt x="15" y="47" on="1"/>
        <pt x="96" y="56" on="1"/>
        <pt x="152" y="353" on="1"/>
        <pt x="164" y="416" on="0"/>
        <pt x="186" y="543" on="0"/>
        <pt x="197" y="606" on="1"/>
        <pt x="114" y="616" on="1"/>
        <pt x="123" y="663" on="1"/>
        <pt x="406" y="663" on="1"/>
        <pt x="397" y="616" on="1"/>
        <pt x="317" y="607" on="1"/>
        <pt x="265" y="331" on="1"/>
        <pt x="554" y="605" on="1"/>
      </contour>
    </TTGlyph>
    <TTGlyph name="L" xMin="7" yMin="0" xMax="552" yMax="663">
      <contour>
        <pt x="115" y="616" on="1"/>
        <pt x="124" y="663" on="1"/>
        <pt x="421" y="663" on="1"/>
        <pt x="411" y="616" on="1"/>
        <pt x="320" y="606" on="1"/>
        <pt x="264" y="310" on="1"/>
        <pt x="251" y="246" on="0"/>
        <pt x="229" y="118" on="0"/>
        <pt x="219" y="54" on="1"/>
        <pt x="436" y="54" on="1"/>
        <pt x="486" y="192" on="1"/>
        <pt x="552" y="192" on="1"/>
        <pt x="512" y="0" on="1"/>
        <pt x="7" y="0" on="1"/>
        <pt x="16" y="47" on="1"/>
        <pt x="99" y="57" on="1"/>
        <pt x="155" y="353" on="1"/>
        <pt x="167" y="416" on="0"/>
        <pt x="189" y="543" on="0"/>
        <pt x="200" y="606" on="1"/>
      </contour>
    </TTGlyph>
    <TTGlyph name="Lacute" xMin="7" yMin="0" xMax="552" yMax="871">
      <component glyphName="L" x="0" y="0" flags="0x204"/>
      <component glyphName="acutecmb.cap" x="246" y="0" flags="0x4"/>
    </TTGlyph>
    <TTGlyph name="Lcaron" xMin="7" yMin="0" xMax="619" yMax="729">
      <contour>
        <pt x="579" y="729" on="1"/>
        <pt x="602" y="729" on="0"/>
        <pt x="619" y="707" on="0"/>
        <pt x="619" y="695" on="1"/>
        <pt x="619" y="670" on="0"/>
        <pt x="585" y="599" on="0"/>
        <pt x="566" y="564" on="1"/>
        <pt x="526" y="493" on="1"/>
        <pt x="487" y="497" on="1"/>
        <pt x="532" y="719" on="1"/>
        <pt x="546" y="724" on="0"/>
        <pt x="566" y="729" on="0"/>
      </contour>
      <contour>
        <pt x="115" y="616" on="1"/>
        <pt x="124" y="663" on="1"/>
        <pt x="421" y="663" on="1"/>
        <pt x="411" y="616" on="1"/>
        <pt x="320" y="606" on="1"/>
        <pt x="264" y="310" on="1"/>
        <pt x="251" y="246" on="0"/>
        <pt x="229" y="118" on="0"/>
        <pt x="219" y="54" on="1"/>
        <pt x="436" y="54" on="1"/>
        <pt x="486" y="192" on="1"/>
        <pt x="552" y="192" on="1"/>
        <pt x="512" y="0" on="1"/>
        <pt x="7" y="0" on="1"/>
        <pt x="16" y="47" on="1"/>
        <pt x="99" y="57" on="1"/>
        <pt x="155" y="353" on="1"/>
        <pt x="167" y="416" on="0"/>
        <pt x="189" y="543" on="0"/>
        <pt x="200" y="606" on="1"/>
      </contour>
    </TTGlyph>
    <TTGlyph name="Ldot" xMin="7" yMin="0" xMax="568" yMax="663">
      <component glyphName="L" x="0" y="0" flags="0x204"/>
      <component glyphName="periodcentered" x="303" y="46" flags="0x4"/>
    </TTGlyph>
    <TTGlyph name="Lslash" xMin="7" yMin="0" xMax="552" yMax="663">
      <contour>
        <pt x="115" y="616" on="1"/>
        <pt x="124" y="663" on="1"/>
        <pt x="421" y="663" on="1"/>
        <pt x="411" y="616" on="1"/>
        <pt x="320" y="606" on="1"/>
        <pt x="279" y="391" on="1"/>
        <pt x="444" y="474" on="1"/>
        <pt x="431" y="406" on="1"/>
        <pt x="267" y="323" on="1"/>
        <pt x="264" y="310" on="1"/>
        <pt x="251" y="246" on="0"/>
        <pt x="229" y="118" on="0"/>
        <pt x="219" y="54" on="1"/>
        <pt x="436" y="54" on="1"/>
        <pt x="486" y="192" on="1"/>
        <pt x="552" y="192" on="1"/>
        <pt x="512" y="0" on="1"/>
        <pt x="7" y="0" on="1"/>
        <pt x="16" y="47" on="1"/>
        <pt x="99" y="57" on="1"/>
        <pt x="139" y="267" on="1"/>
        <pt x="30" y="213" on="1"/>
        <pt x="44" y="281" on="1"/>
        <pt x="151" y="334" on="1"/>
        <pt x="155" y="353" on="1"/>
        <pt x="167" y="416" on="0"/>
        <pt x="189" y="543" on="0"/>
        <pt x="200" y="606" on="1"/>
      </contour>
    </TTGlyph>
    <TTGlyph name="M" xMin="-11" yMin="0" xMax="941" yMax="663">
      <contour>
        <pt x="-11" y="0" on="1"/>
        <pt x="-2" y="47" on="1"/>
        <pt x="93" y="61" on="1"/>
        <pt x="221" y="608" on="1"/>
        <pt x="139" y="616" on="1"/>
        <pt x="149" y="663" on="1"/>
        <pt x="349" y="663" on="1"/>
        <pt x="452" y="167" on="1"/>
        <pt x="742" y="663" on="1"/>
        <pt x="941" y="663" on="1"/>
        <pt x="934" y="616" on="1"/>
        <pt x="847" y="606" on="1"/>
        <pt x="803" y="312" on="1"/>
        <pt x="795" y="248" on="0"/>
        <pt x="777" y="121" on="0"/>
        <pt x="769" y="58" on="1"/>
        <pt x="852" y="48" on="1"/>
        <pt x="844" y="0" on="1"/>
        <pt x="562" y="0" on="1"/>
        <pt x="569" y="48" on="1"/>
        <pt x="649" y="57" on="1"/>
        <pt x="720" y="534" on="1"/>
        <pt x="410" y="1" on="1"/>
        <pt x="370" y="1" on="1"/>
        <pt x="253" y="532" on="1"/>
        <pt x="144" y="60" on="1"/>
        <pt x="234" y="47" on="1"/>
        <pt x="224" y="0" on="1"/>
      </contour>
    </TTGlyph>
    <TTGlyph name="N" xMin="0" yMin="-6" xMax="779" yMax="663">
      <contour>
        <pt x="524" y="616" on="1"/>
        <pt x="534" y="663" on="1"/>
        <pt x="779" y="663" on="1"/>
        <pt x="770" y="616" on="1"/>
        <pt x="689" y="603" on="1"/>
        <pt x="575" y="-6" on="1"/>
        <pt x="519" y="-6" on="1"/>
        <pt x="234" y="520" on="1"/>
        <pt x="146" y="60" on="1"/>
        <pt x="251" y="47" on="1"/>
        <pt x="243" y="0" on="1"/>
        <pt x="0" y="0" on="1"/>
        <pt x="9" y="47" on="1"/>
        <pt x="91" y="59" on="1"/>
        <pt x="193" y="595" on="1"/>
        <pt x="186" y="608" on="1"/>
        <pt x="107" y="616" on="1"/>
        <pt x="116" y="663" on="1"/>
        <pt x="293" y="663" on="1"/>
        <pt x="555" y="177" on="1"/>
        <pt x="634" y="603" on="1"/>
      </contour>
    </TTGlyph>
    <TTGlyph name="Nacute" xMin="0" yMin="-6" xMax="779" yMax="865">
      <component glyphName="N" x="0" y="0" flags="0x204"/>
      <component glyphName="acutecmb.cap" x="359" y="-6" flags="0x4"/>
    </TTGlyph>
    <TTGlyph name="Ncaron" xMin="0" yMin="-6" xMax="779" yMax="872">
      <component glyphName="N" x="0" y="0" flags="0x204"/>
      <component glyphName="caroncmb.cap" x="324" y="-6" flags="0x4"/>
    </TTGlyph>
    <TTGlyph name="Ntilde" xMin="0" yMin="-6" xMax="779" yMax="860">
      <component glyphName="N" x="0" y="0" flags="0x204"/>
      <component glyphName="tildecmb.cap" x="348" y="0" flags="0x4"/>
    </TTGlyph>
    <TTGlyph name="O" xMin="56" yMin="-16" xMax="664" yMax="680">
      <contour>
        <pt x="300" y="-16" on="1"/>
        <pt x="229" y="-16" on="0"/>
        <pt x="118" y="47" on="0"/>
        <pt x="56" y="170" on="0"/>
        <pt x="56" y="258" on="1"/>
        <pt x="56" y="342" on="0"/>
        <pt x="109" y="494" on="0"/>
        <pt x="205" y="612" on="0"/>
        <pt x="338" y="680" on="0"/>
        <pt x="419" y="680" on="1"/>
        <pt x="493" y="680" on="0"/>
        <pt x="603" y="612" on="0"/>
        <pt x="664" y="488" on="0"/>
        <pt x="664" y="405" on="1"/>
        <pt x="664" y="320" on="0"/>
        <pt x="612" y="168" on="0"/>
        <pt x="516" y="51" on="0"/>
        <pt x="382" y="-16" on="0"/>
      </contour>
      <contour>
        <pt x="313" y="37" on="1"/>
        <pt x="360" y="37" on="0"/>
        <pt x="444" y="97" on="0"/>
        <pt x="507" y="203" on="0"/>
        <pt x="543" y="342" on="0"/>
        <pt x="543" y="422" on="1"/>
        <pt x="543" y="519" on="0"/>
        <pt x="480" y="626" on="0"/>
        <pt x="408" y="626" on="1"/>
        <pt x="361" y="626" on="0"/>
        <pt x="277" y="567" on="0"/>
        <pt x="213" y="462" on="0"/>
        <pt x="177" y="323" on="0"/>
        <pt x="177" y="243" on="1"/>
        <pt x="177" y="147" on="0"/>
        <pt x="243" y="37" on="0"/>
      </contour>
    </TTGlyph>
    <TTGlyph name="OE" xMin="56" yMin="-17" xMax="899" yMax="680">
      <contour>
        <pt x="179" y="253" on="1"/>
        <pt x="179" y="146" on="0"/>
        <pt x="274" y="37" on="0"/>
        <pt x="350" y="37" on="1"/>
        <pt x="361" y="37" on="0"/>
        <pt x="384" y="39" on="0"/>
        <pt x="397" y="41" on="1"/>
        <pt x="456" y="353" on="1"/>
        <pt x="469" y="421" on="0"/>
        <pt x="492" y="556" on="0"/>
        <pt x="503" y="623" on="1"/>
        <pt x="492" y="625" on="0"/>
        <pt x="468" y="627" on="0"/>
        <pt x="454" y="627" on="1"/>
        <pt x="394" y="627" on="0"/>
        <pt x="293" y="571" on="0"/>
        <pt x="220" y="469" on="0"/>
        <pt x="179" y="333" on="0"/>
      </contour>
      <contour>
        <pt x="448" y="0" on="1"/>
        <pt x="419" y="-7" on="0"/>
        <pt x="365" y="-17" on="0"/>
        <pt x="330" y="-17" on="1"/>
        <pt x="250" y="-17" on="0"/>
        <pt x="126" y="44" on="0"/>
        <pt x="56" y="168" on="0"/>
        <pt x="56" y="262" on="1"/>
        <pt x="56" y="344" on="0"/>
        <pt x="113" y="494" on="0"/>
        <pt x="219" y="612" on="0"/>
        <pt x="364" y="680" on="0"/>
        <pt x="452" y="680" on="1"/>
        <pt x="484" y="680" on="0"/>
        <pt x="543" y="671" on="0"/>
        <pt x="574" y="663" on="1"/>
        <pt x="899" y="663" on="1"/>
        <pt x="874" y="488" on="1"/>
        <pt x="810" y="488" on="1"/>
        <pt x="811" y="610" on="1"/>
        <pt x="621" y="610" on="1"/>
        <pt x="575" y="366" on="1"/>
        <pt x="708" y="366" on="1"/>
        <pt x="739" y="454" on="1"/>
        <pt x="787" y="454" on="1"/>
        <pt x="745" y="224" on="1"/>
        <pt x="696" y="224" on="1"/>
        <pt x="699" y="313" on="1"/>
        <pt x="565" y="313" on="1"/>
        <pt x="564" y="310" on="1"/>
        <pt x="552" y="246" on="0"/>
        <pt x="529" y="118" on="0"/>
        <pt x="518" y="53" on="1"/>
        <pt x="749" y="53" on="1"/>
        <pt x="792" y="175" on="1"/>
        <pt x="857" y="175" on="1"/>
        <pt x="817" y="0" on="1"/>
      </contour>
    </TTGlyph>
    <TTGlyph name="Oacute" xMin="56" yMin="-16" xMax="664" yMax="875">
      <component glyphName="O" x="0" y="0" flags="0x204"/>
      <component glyphName="acutecmb.cap" x="355" y="4" flags="0x4"/>
    </TTGlyph>
    <TTGlyph name="Ocircumflex" xMin="56" yMin="-16" xMax="664" yMax="867">
      <component glyphName="O" x="0" y="0" flags="0x204"/>
      <component glyphName="circumflexcmb.cap" x="307" y="0" flags="0x4"/>
    </TTGlyph>
    <TTGlyph name="Odieresis" xMin="56" yMin="-16" xMax="664" yMax="849">
      <component glyphName="O" x="0" y="0" flags="0x204"/>
      <component glyphName="dieresiscmb.cap" x="299" y="0" flags="0x4"/>
    </TTGlyph>
    <TTGlyph name="Ograve" xMin="56" yMin="-16" xMax="664" yMax="878">
      <component glyphName="O" x="0" y="0" flags="0x204"/>
      <component glyphName="gravecmb.cap" x="322" y="0" flags="0x4"/>
    </TTGlyph>
    <TTGlyph name="Ohungarumlaut" xMin="56" yMin="-16" xMax="671" yMax="888">
      <component glyphName="O" x="0" y="0" flags="0x204"/>
      <component glyphName="hungarumlautcmb.cap" x="334" y="0" flags="0x4"/>
    </TTGlyph>
    <TTGlyph name="Omacron" xMin="56" yMin="-16" xMax="664" yMax="815">
      <component glyphName="O" x="0" y="0" flags="0x204"/>
      <component glyphName="macroncmb.cap" x="313" y="0" flags="0x4"/>
    </TTGlyph>
    <TTGlyph name="Oslash" xMin="5" yMin="-27" xMax="694" yMax="691">
      <contour>
        <pt x="694" y="651" on="1"/>
        <pt x="620" y="574" on="1"/>
        <pt x="641" y="540" on="0"/>
        <pt x="664" y="455" on="0"/>
        <pt x="664" y="405" on="1"/>
        <pt x="664" y="320" on="0"/>
        <pt x="612" y="168" on="0"/>
        <pt x="516" y="51" on="0"/>
        <pt x="382" y="-16" on="0"/>
        <pt x="300" y="-16" on="1"/>
        <pt x="190" y="-16" on="0"/>
        <pt x="125" y="54" on="1"/>
        <pt x="48" y="-27" on="1"/>
        <pt x="5" y="13" on="1"/>
        <pt x="90" y="103" on="1"/>
        <pt x="56" y="166" on="0"/>
        <pt x="56" y="258" on="1"/>
        <pt x="56" y="342" on="0"/>
        <pt x="109" y="494" on="0"/>
        <pt x="205" y="612" on="0"/>
        <pt x="338" y="680" on="0"/>
        <pt x="419" y="680" on="1"/>
        <pt x="469" y="680" on="0"/>
        <pt x="551" y="649" on="0"/>
        <pt x="582" y="620" on="1"/>
        <pt x="650" y="691" on="1"/>
      </contour>
      <contour>
        <pt x="172" y="246" on="1"/>
        <pt x="172" y="217" on="0"/>
        <pt x="175" y="191" on="1"/>
        <pt x="525" y="559" on="1"/>
        <pt x="493" y="627" on="0"/>
        <pt x="409" y="627" on="1"/>
        <pt x="360" y="627" on="0"/>
        <pt x="274" y="568" on="0"/>
        <pt x="209" y="463" on="0"/>
        <pt x="172" y="325" on="0"/>
      </contour>
      <contour>
        <pt x="311" y="37" on="1"/>
        <pt x="360" y="37" on="0"/>
        <pt x="446" y="97" on="0"/>
        <pt x="511" y="203" on="0"/>
        <pt x="548" y="342" on="0"/>
        <pt x="548" y="421" on="1"/>
        <pt x="548" y="441" on="0"/>
        <pt x="545" y="477" on="0"/>
        <pt x="543" y="493" on="1"/>
        <pt x="189" y="121" on="1"/>
        <pt x="220" y="37" on="0"/>
      </contour>
    </TTGlyph>
    <TTGlyph name="Otilde" xMin="56" yMin="-16" xMax="664" yMax="860">
      <component glyphName="O" x="0" y="0" flags="0x204"/>
      <component glyphName="tildecmb.cap" x="305" y="0" flags="0x4"/>
    </TTGlyph>
    <TTGlyph name="P" xMin="7" yMin="0" xMax="603" yMax="663">
      <contour>
        <pt x="115" y="616" on="1"/>
        <pt x="124" y="663" on="1"/>
        <pt x="365" y="663" on="1"/>
        <pt x="489" y="663" on="0"/>
        <pt x="603" y="565" on="0"/>
        <pt x="603" y="485" on="1"/>
        <pt x="603" y="422" on="0"/>
        <pt x="537" y="318" on="0"/>
        <pt x="405" y="255" on="0"/>
        <pt x="306" y="255" on="1"/>
        <pt x="254" y="255" on="1"/>
        <pt x="244" y="206" on="0"/>
        <pt x="227" y="107" on="0"/>
        <pt x="219" y="58" on="1"/>
        <pt x="312" y="47" on="1"/>
        <pt x="303" y="0" on="1"/>
        <pt x="7" y="0" on="1"/>
        <pt x="16" y="47" on="1"/>
        <pt x="99" y="56" on="1"/>
        <pt x="155" y="353" on="1"/>
        <pt x="167" y="416" on="0"/>
        <pt x="189" y="543" on="0"/>
        <pt x="200" y="606" on="1"/>
      </contour>
      <contour>
        <pt x="264" y="310" on="1"/>
        <pt x="264" y="309" on="0"/>
        <pt x="263" y="307" on="0"/>
        <pt x="263" y="306" on="1"/>
        <pt x="308" y="306" on="1"/>
        <pt x="391" y="306" on="0"/>
        <pt x="483" y="403" on="0"/>
        <pt x="483" y="484" on="1"/>
        <pt x="483" y="546" on="0"/>
        <pt x="415" y="612" on="0"/>
        <pt x="353" y="612" on="1"/>
        <pt x="321" y="612" on="1"/>
      </contour>
    </TTGlyph>
    <TTGlyph name="Q" xMin="56" yMin="-240" xMax="664" yMax="680">
      <contour>
        <pt x="313" y="37" on="1"/>
        <pt x="360" y="37" on="0"/>
        <pt x="444" y="97" on="0"/>
        <pt x="507" y="203" on="0"/>
        <pt x="543" y="342" on="0"/>
        <pt x="543" y="422" on="1"/>
        <pt x="543" y="519" on="0"/>
        <pt x="480" y="626" on="0"/>
        <pt x="408" y="626" on="1"/>
        <pt x="361" y="626" on="0"/>
        <pt x="277" y="567" on="0"/>
        <pt x="213" y="462" on="0"/>
        <pt x="177" y="323" on="0"/>
        <pt x="177" y="243" on="1"/>
        <pt x="177" y="147" on="0"/>
        <pt x="243" y="37" on="0"/>
      </contour>
      <contour>
        <pt x="475" y="-240" on="1"/>
        <pt x="373" y="-240" on="0"/>
        <pt x="251" y="-114" on="0"/>
        <pt x="242" y="-10" on="1"/>
        <pt x="159" y="7" on="0"/>
        <pt x="56" y="144" on="0"/>
        <pt x="56" y="258" on="1"/>
        <pt x="56" y="342" on="0"/>
        <pt x="109" y="494" on="0"/>
        <pt x="205" y="612" on="0"/>
        <pt x="338" y="680" on="0"/>
        <pt x="419" y="680" on="1"/>
        <pt x="493" y="680" on="0"/>
        <pt x="603" y="612" on="0"/>
        <pt x="664" y="488" on="0"/>
        <pt x="664" y="405" on="1"/>
        <pt x="664" y="327" on="0"/>
        <pt x="620" y="186" on="0"/>
        <pt x="539" y="73" on="0"/>
        <pt x="425" y="-1" on="0"/>
        <pt x="354" y="-12" on="1"/>
        <pt x="361" y="-86" on="0"/>
        <pt x="442" y="-169" on="0"/>
        <pt x="512" y="-169" on="1"/>
        <pt x="550" y="-169" on="0"/>
        <pt x="603" y="-157" on="0"/>
        <pt x="631" y="-145" on="1"/>
        <pt x="647" y="-180" on="1"/>
        <pt x="616" y="-206" on="0"/>
        <pt x="532" y="-240" on="0"/>
      </contour>
    </TTGlyph>
    <TTGlyph name="R" xMin="7" yMin="-12" xMax="647" yMax="663">
      <contour>
        <pt x="384" y="612" on="1"/>
        <pt x="321" y="612" on="1"/>
        <pt x="273" y="357" on="1"/>
        <pt x="327" y="358" on="1"/>
        <pt x="388" y="359" on="0"/>
        <pt x="462" y="400" on="0"/>
        <pt x="496" y="469" on="0"/>
        <pt x="496" y="511" on="1"/>
        <pt x="496" y="560" on="0"/>
        <pt x="438" y="612" on="0"/>
      </contour>
      <contour>
        <pt x="115" y="616" on="1"/>
        <pt x="124" y="663" on="1"/>
        <pt x="413" y="663" on="1"/>
        <pt x="509" y="663" on="0"/>
        <pt x="615" y="581" on="0"/>
        <pt x="615" y="508" on="1"/>
        <pt x="615" y="444" on="0"/>
        <pt x="522" y="340" on="0"/>
        <pt x="417" y="322" on="1"/>
        <pt x="461" y="306" on="0"/>
        <pt x="499" y="239" on="0"/>
        <pt x="516" y="181" on="1"/>
        <pt x="554" y="59" on="1"/>
        <pt x="647" y="47" on="1"/>
        <pt x="638" y="0" on="1"/>
        <pt x="613" y="-6" on="0"/>
        <pt x="577" y="-12" on="0"/>
        <pt x="548" y="-12" on="1"/>
        <pt x="496" y="-12" on="0"/>
        <pt x="438" y="26" on="0"/>
        <pt x="427" y="75" on="1"/>
        <pt x="389" y="211" on="1"/>
        <pt x="374" y="267" on="0"/>
        <pt x="336" y="306" on="0"/>
        <pt x="293" y="306" on="1"/>
        <pt x="263" y="306" on="1"/>
        <pt x="251" y="244" on="0"/>
        <pt x="229" y="119" on="0"/>
        <pt x="219" y="57" on="1"/>
        <pt x="306" y="47" on="1"/>
        <pt x="296" y="0" on="1"/>
        <pt x="7" y="0" on="1"/>
        <pt x="16" y="47" on="1"/>
        <pt x="99" y="56" on="1"/>
        <pt x="155" y="353" on="1"/>
        <pt x="167" y="416" on="0"/>
        <pt x="189" y="543" on="0"/>
        <pt x="200" y="606" on="1"/>
      </contour>
    </TTGlyph>
    <TTGlyph name="Racute" xMin="7" yMin="-12" xMax="647" yMax="871">
      <component glyphName="R" x="0" y="0" flags="0x204"/>
      <component glyphName="acutecmb.cap" x="335" y="0" flags="0x4"/>
    </TTGlyph>
    <TTGlyph name="Rcaron" xMin="7" yMin="-12" xMax="647" yMax="878">
      <component glyphName="R" x="0" y="0" flags="0x204"/>
      <component glyphName="caroncmb.cap" x="282" y="0" flags="0x4"/>
    </TTGlyph>
    <TTGlyph name="S" xMin="28" yMin="-17" xMax="515" yMax="680">
      <contour>
        <pt x="28" y="31" on="1"/>
        <pt x="46" y="176" on="1"/>
        <pt x="117" y="176" on="1"/>
        <pt x="129" y="49" on="1"/>
        <pt x="170" y="38" on="0"/>
        <pt x="207" y="38" on="1"/>
        <pt x="272" y="38" on="0"/>
        <pt x="340" y="97" on="0"/>
        <pt x="340" y="146" on="1"/>
        <pt x="340" y="167" on="0"/>
        <pt x="326" y="207" on="0"/>
        <pt x="284" y="254" on="0"/>
        <pt x="242" y="285" on="1"/>
        <pt x="190" y="324" on="0"/>
        <pt x="132" y="392" on="0"/>
        <pt x="110" y="456" on="0"/>
        <pt x="110" y="489" on="1"/>
        <pt x="110" y="546" on="0"/>
        <pt x="169" y="632" on="0"/>
        <pt x="272" y="680" on="0"/>
        <pt x="339" y="680" on="1"/>
        <pt x="385" y="680" on="0"/>
        <pt x="477" y="657" on="0"/>
        <pt x="515" y="632" on="1"/>
        <pt x="494" y="492" on="1"/>
        <pt x="422" y="492" on="1"/>
        <pt x="414" y="615" on="1"/>
        <pt x="398" y="621" on="0"/>
        <pt x="369" y="625" on="0"/>
        <pt x="354" y="625" on="1"/>
        <pt x="291" y="625" on="0"/>
        <pt x="216" y="573" on="0"/>
        <pt x="216" y="523" on="1"/>
        <pt x="216" y="488" on="0"/>
        <pt x="259" y="427" on="0"/>
        <pt x="314" y="387" on="1"/>
        <pt x="369" y="347" on="0"/>
        <pt x="429" y="280" on="0"/>
        <pt x="453" y="217" on="0"/>
        <pt x="453" y="183" on="1"/>
        <pt x="453" y="122" on="0"/>
        <pt x="392" y="32" on="0"/>
        <pt x="284" y="-17" on="0"/>
        <pt x="213" y="-17" on="1"/>
        <pt x="164" y="-17" on="0"/>
        <pt x="63" y="9" on="0"/>
      </contour>
    </TTGlyph>
    <TTGlyph name="Sacute" xMin="28" yMin="-17" xMax="535" yMax="875">
      <component glyphName="S" x="0" y="0" flags="0x204"/>
      <component glyphName="acutecmb.cap" x="270" y="4" flags="0x4"/>
    </TTGlyph>
    <TTGlyph name="Scaron" xMin="28" yMin="-17" xMax="531" yMax="878">
      <component glyphName="S" x="0" y="0" flags="0x204"/>
      <component glyphName="caroncmb.cap" x="239" y="0" flags="0x4"/>
    </TTGlyph>
    <TTGlyph name="T" xMin="74" yMin="0" xMax="653" yMax="663">
      <contour>
        <pt x="74" y="481" on="1"/>
        <pt x="111" y="663" on="1"/>
        <pt x="653" y="663" on="1"/>
        <pt x="622" y="481" on="1"/>
        <pt x="558" y="481" on="1"/>
        <pt x="561" y="610" on="1"/>
        <pt x="434" y="610" on="1"/>
        <pt x="377" y="310" on="1"/>
        <pt x="366" y="247" on="0"/>
        <pt x="343" y="121" on="0"/>
        <pt x="332" y="57" on="1"/>
        <pt x="426" y="47" on="1"/>
        <pt x="417" y="0" on="1"/>
        <pt x="110" y="0" on="1"/>
        <pt x="120" y="47" on="1"/>
        <pt x="213" y="57" on="1"/>
        <pt x="268" y="353" on="1"/>
        <pt x="281" y="417" on="0"/>
        <pt x="304" y="546" on="0"/>
        <pt x="314" y="610" on="1"/>
        <pt x="184" y="610" on="1"/>
        <pt x="139" y="481" on="1"/>
      </contour>
    </TTGlyph>
    <TTGlyph name="Tcaron" xMin="74" yMin="0" xMax="653" yMax="878">
      <component glyphName="T" x="0" y="0" flags="0x204"/>
      <component glyphName="caroncmb.cap" x="268" y="0" flags="0x4"/>
    </TTGlyph>
    <TTGlyph name="Thorn" xMin="7" yMin="0" xMax="585" yMax="663">
      <contour>
        <pt x="264" y="310" on="1"/>
        <pt x="259" y="282" on="0"/>
        <pt x="248" y="226" on="0"/>
        <pt x="243" y="197" on="1"/>
        <pt x="290" y="197" on="1"/>
        <pt x="375" y="197" on="0"/>
        <pt x="465" y="286" on="0"/>
        <pt x="465" y="362" on="1"/>
        <pt x="465" y="483" on="0"/>
        <pt x="333" y="483" on="1"/>
        <pt x="297" y="483" on="1"/>
      </contour>
      <contour>
        <pt x="115" y="616" on="1"/>
        <pt x="124" y="663" on="1"/>
        <pt x="412" y="663" on="1"/>
        <pt x="402" y="616" on="1"/>
        <pt x="320" y="607" on="1"/>
        <pt x="307" y="535" on="1"/>
        <pt x="344" y="535" on="1"/>
        <pt x="469" y="535" on="0"/>
        <pt x="585" y="440" on="0"/>
        <pt x="585" y="358" on="1"/>
        <pt x="585" y="299" on="0"/>
        <pt x="516" y="202" on="0"/>
        <pt x="382" y="146" on="0"/>
        <pt x="282" y="146" on="1"/>
        <pt x="234" y="146" on="1"/>
        <pt x="230" y="124" on="0"/>
        <pt x="223" y="80" on="0"/>
        <pt x="219" y="57" on="1"/>
        <pt x="303" y="47" on="1"/>
        <pt x="294" y="0" on="1"/>
        <pt x="7" y="0" on="1"/>
        <pt x="16" y="47" on="1"/>
        <pt x="99" y="56" on="1"/>
        <pt x="155" y="353" on="1"/>
        <pt x="167" y="416" on="0"/>
        <pt x="189" y="543" on="0"/>
        <pt x="200" y="606" on="1"/>
      </contour>
    </TTGlyph>
    <TTGlyph name="U" xMin="96" yMin="-17" xMax="770" yMax="663">
      <contour>
        <pt x="524" y="616" on="1"/>
        <pt x="533" y="663" on="1"/>
        <pt x="770" y="663" on="1"/>
        <pt x="761" y="616" on="1"/>
        <pt x="678" y="606" on="1"/>
        <pt x="615" y="269" on="1"/>
        <pt x="586" y="115" on="0"/>
        <pt x="438" y="-17" on="0"/>
        <pt x="328" y="-17" on="1"/>
        <pt x="224" y="-17" on="0"/>
        <pt x="109" y="83" on="0"/>
        <pt x="109" y="180" on="1"/>
        <pt x="109" y="203" on="0"/>
        <pt x="116" y="253" on="0"/>
        <pt x="120" y="278" on="1"/>
        <pt x="135" y="359" on="1"/>
        <pt x="146" y="420" on="0"/>
        <pt x="168" y="545" on="0"/>
        <pt x="178" y="607" on="1"/>
        <pt x="96" y="616" on="1"/>
        <pt x="105" y="663" on="1"/>
        <pt x="393" y="663" on="1"/>
        <pt x="384" y="616" on="1"/>
        <pt x="303" y="607" on="1"/>
        <pt x="242" y="282" on="1"/>
        <pt x="238" y="260" on="0"/>
        <pt x="231" y="216" on="0"/>
        <pt x="231" y="186" on="1"/>
        <pt x="231" y="127" on="0"/>
        <pt x="301" y="61" on="0"/>
        <pt x="357" y="61" on="1"/>
        <pt x="414" y="61" on="0"/>
        <pt x="492" y="102" on="0"/>
        <pt x="543" y="199" on="0"/>
        <pt x="559" y="283" on="1"/>
        <pt x="620" y="606" on="1"/>
      </contour>
    </TTGlyph>
    <TTGlyph name="Uacute" xMin="96" yMin="-17" xMax="770" yMax="871">
      <component glyphName="U" x="0" y="0" flags="0x204"/>
      <component glyphName="acutecmb.cap" x="406" y="0" flags="0x4"/>
    </TTGlyph>
    <TTGlyph name="Ucircumflex" xMin="96" yMin="-17" xMax="770" yMax="867">
      <component glyphName="U" x="0" y="0" flags="0x204"/>
      <component glyphName="circumflexcmb.cap" x="366" y="0" flags="0x4"/>
    </TTGlyph>
    <TTGlyph name="Udieresis" xMin="96" yMin="-17" xMax="770" yMax="849">
      <component glyphName="U" x="0" y="0" flags="0x204"/>
      <component glyphName="dieresiscmb.cap" x="363" y="0" flags="0x4"/>
    </TTGlyph>
    <TTGlyph name="Ugrave" xMin="96" yMin="-17" xMax="770" yMax="878">
      <component glyphName="U" x="0" y="0" flags="0x204"/>
      <component glyphName="gravecmb.cap" x="369" y="0" flags="0x4"/>
    </TTGlyph>
    <TTGlyph name="Uhungarumlaut" xMin="96" yMin="-17" xMax="770" yMax="888">
      <component glyphName="U" x="0" y="0" flags="0x204"/>
      <component glyphName="hungarumlautcmb.cap" x="377" y="0" flags="0x4"/>
    </TTGlyph>
    <TTGlyph name="Umacron" xMin="96" yMin="-17" xMax="770" yMax="815">
      <component glyphName="U" x="0" y="0" flags="0x204"/>
      <component glyphName="macroncmb.cap" x="372" y="0" flags="0x4"/>
    </TTGlyph>
    <TTGlyph name="Uogonek" xMin="96" yMin="-237" xMax="770" yMax="663">
      <contour>
        <pt x="524" y="616" on="1"/>
        <pt x="533" y="663" on="1"/>
        <pt x="770" y="663" on="1"/>
        <pt x="761" y="616" on="1"/>
        <pt x="678" y="606" on="1"/>
        <pt x="615" y="269" on="1"/>
        <pt x="599" y="181" on="0"/>
        <pt x="540" y="75" on="0"/>
        <pt x="501" y="39" on="1"/>
        <pt x="457" y="-1" on="0"/>
        <pt x="393" y="-87" on="0"/>
        <pt x="393" y="-129" on="1"/>
        <pt x="393" y="-156" on="0"/>
        <pt x="420" y="-183" on="0"/>
        <pt x="441" y="-183" on="1"/>
        <pt x="458" y="-183" on="0"/>
        <pt x="493" y="-169" on="0"/>
        <pt x="509" y="-159" on="1"/>
        <pt x="523" y="-181" on="1"/>
        <pt x="503" y="-202" on="0"/>
        <pt x="442" y="-237" on="0"/>
        <pt x="404" y="-237" on="1"/>
        <pt x="361" y="-237" on="0"/>
        <pt x="315" y="-195" on="0"/>
        <pt x="315" y="-160" on="1"/>
        <pt x="315" y="-119" on="0"/>
        <pt x="374" y="-43" on="0"/>
        <pt x="415" y="-5" on="1"/>
        <pt x="375" y="-17" on="0"/>
        <pt x="328" y="-17" on="1"/>
        <pt x="224" y="-17" on="0"/>
        <pt x="109" y="83" on="0"/>
        <pt x="109" y="180" on="1"/>
        <pt x="109" y="203" on="0"/>
        <pt x="116" y="253" on="0"/>
        <pt x="120" y="278" on="1"/>
        <pt x="135" y="359" on="1"/>
        <pt x="146" y="420" on="0"/>
        <pt x="168" y="545" on="0"/>
        <pt x="178" y="607" on="1"/>
        <pt x="96" y="616" on="1"/>
        <pt x="105" y="663" on="1"/>
        <pt x="393" y="663" on="1"/>
        <pt x="384" y="616" on="1"/>
        <pt x="303" y="607" on="1"/>
        <pt x="242" y="282" on="1"/>
        <pt x="238" y="260" on="0"/>
        <pt x="231" y="216" on="0"/>
        <pt x="231" y="186" on="1"/>
        <pt x="231" y="127" on="0"/>
        <pt x="301" y="61" on="0"/>
        <pt x="357" y="61" on="1"/>
        <pt x="414" y="61" on="0"/>
        <pt x="492" y="102" on="0"/>
        <pt x="543" y="199" on="0"/>
        <pt x="559" y="283" on="1"/>
        <pt x="620" y="606" on="1"/>
      </contour>
    </TTGlyph>
    <TTGlyph name="Uring" xMin="96" yMin="-17" xMax="770" yMax="897">
      <component glyphName="U" x="0" y="0" flags="0x204"/>
      <component glyphName="ringcmb.cap" x="356" y="0" flags="0x4"/>
    </TTGlyph>
    <TTGlyph name="V" xMin="61" yMin="-6" xMax="711" yMax="663">
      <contour>
        <pt x="482" y="618" on="1"/>
        <pt x="491" y="663" on="1"/>
        <pt x="711" y="663" on="1"/>
        <pt x="701" y="616" on="1"/>
        <pt x="619" y="604" on="1"/>
        <pt x="297" y="-6" on="1"/>
        <pt x="231" y="-6" on="1"/>
        <pt x="130" y="608" on="1"/>
        <pt x="61" y="616" on="1"/>
        <pt x="71" y="663" on="1"/>
        <pt x="356" y="663" on="1"/>
        <pt x="347" y="618" on="1"/>
        <pt x="257" y="606" on="1"/>
        <pt x="322" y="146" on="1"/>
        <pt x="561" y="605" on="1"/>
      </contour>
    </TTGlyph>
    <TTGlyph name="W" xMin="61" yMin="-6" xMax="987" yMax="663">
      <contour>
        <pt x="759" y="616" on="1"/>
        <pt x="769" y="663" on="1"/>
        <pt x="987" y="663" on="1"/>
        <pt x="978" y="616" on="1"/>
        <pt x="899" y="604" on="1"/>
        <pt x="620" y="-6" on="1"/>
        <pt x="553" y="-6" on="1"/>
        <pt x="491" y="490" on="1"/>
        <pt x="254" y="-6" on="1"/>
        <pt x="187" y="-6" on="1"/>
        <pt x="129" y="608" on="1"/>
        <pt x="61" y="616" on="1"/>
        <pt x="71" y="663" on="1"/>
        <pt x="349" y="663" on="1"/>
        <pt x="339" y="616" on="1"/>
        <pt x="253" y="606" on="1"/>
        <pt x="281" y="157" on="1"/>
        <pt x="491" y="605" on="1"/>
        <pt x="404" y="616" on="1"/>
        <pt x="413" y="663" on="1"/>
        <pt x="689" y="663" on="1"/>
        <pt x="680" y="616" on="1"/>
        <pt x="590" y="605" on="1"/>
        <pt x="641" y="152" on="1"/>
        <pt x="842" y="603" on="1"/>
      </contour>
    </TTGlyph>
    <TTGlyph name="X" xMin="-7" yMin="0" xMax="715" yMax="663">
      <contour>
        <pt x="477" y="616" on="1"/>
        <pt x="486" y="663" on="1"/>
        <pt x="715" y="663" on="1"/>
        <pt x="706" y="616" on="1"/>
        <pt x="621" y="604" on="1"/>
        <pt x="413" y="358" on="1"/>
        <pt x="538" y="57" on="1"/>
        <pt x="624" y="47" on="1"/>
        <pt x="615" y="0" on="1"/>
        <pt x="325" y="0" on="1"/>
        <pt x="334" y="47" on="1"/>
        <pt x="411" y="55" on="1"/>
        <pt x="321" y="270" on="1"/>
        <pt x="152" y="59" on="1"/>
        <pt x="232" y="47" on="1"/>
        <pt x="223" y="0" on="1"/>
        <pt x="-7" y="0" on="1"/>
        <pt x="2" y="47" on="1"/>
        <pt x="86" y="58" on="1"/>
        <pt x="302" y="315" on="1"/>
        <pt x="180" y="607" on="1"/>
        <pt x="105" y="616" on="1"/>
        <pt x="115" y="663" on="1"/>
        <pt x="400" y="663" on="1"/>
        <pt x="391" y="616" on="1"/>
        <pt x="309" y="607" on="1"/>
        <pt x="394" y="402" on="1"/>
        <pt x="556" y="604" on="1"/>
      </contour>
    </TTGlyph>
    <TTGlyph name="Y" xMin="61" yMin="0" xMax="671" yMax="663">
      <contour>
        <pt x="448" y="616" on="1"/>
        <pt x="457" y="663" on="1"/>
        <pt x="671" y="663" on="1"/>
        <pt x="661" y="616" on="1"/>
        <pt x="581" y="603" on="1"/>
        <pt x="365" y="278" on="1"/>
        <pt x="355" y="223" on="0"/>
        <pt x="336" y="113" on="0"/>
        <pt x="327" y="57" on="1"/>
        <pt x="421" y="47" on="1"/>
        <pt x="411" y="0" on="1"/>
        <pt x="105" y="0" on="1"/>
        <pt x="114" y="47" on="1"/>
        <pt x="207" y="57" on="1"/>
        <pt x="248" y="272" on="1"/>
        <pt x="133" y="608" on="1"/>
        <pt x="61" y="616" on="1"/>
        <pt x="71" y="663" on="1"/>
        <pt x="357" y="663" on="1"/>
        <pt x="348" y="616" on="1"/>
        <pt x="266" y="606" on="1"/>
        <pt x="348" y="332" on="1"/>
        <pt x="524" y="604" on="1"/>
      </contour>
    </TTGlyph>
    <TTGlyph name="Yacute" xMin="61" yMin="0" xMax="671" yMax="871">
      <component glyphName="Y" x="0" y="0" flags="0x204"/>
      <component glyphName="acutecmb.cap" x="321" y="0" flags="0x4"/>
    </TTGlyph>
    <TTGlyph name="Ydieresis" xMin="61" yMin="0" xMax="671" yMax="849">
      <component glyphName="Y" x="0" y="0" flags="0x204"/>
      <component glyphName="dieresiscmb.cap" x="297" y="0" flags="0x4"/>
    </TTGlyph>
    <TTGlyph name="Z" xMin="-3" yMin="0" xMax="594" yMax="663">
      <contour>
        <pt x="80" y="481" on="1"/>
        <pt x="117" y="663" on="1"/>
        <pt x="594" y="663" on="1"/>
        <pt x="586" y="623" on="1"/>
        <pt x="148" y="54" on="1"/>
        <pt x="411" y="54" on="1"/>
        <pt x="457" y="182" on="1"/>
        <pt x="527" y="182" on="1"/>
        <pt x="488" y="0" on="1"/>
        <pt x="-3" y="0" on="1"/>
        <pt x="5" y="41" on="1"/>
        <pt x="444" y="610" on="1"/>
        <pt x="195" y="610" on="1"/>
        <pt x="148" y="481" on="1"/>
      </contour>
    </TTGlyph>
    <TTGlyph name="Zacute" xMin="-3" yMin="0" xMax="594" yMax="871">
      <component glyphName="Z" x="0" y="0" flags="0x204"/>
      <component glyphName="acutecmb.cap" x="295" y="0" flags="0x4"/>
    </TTGlyph>
    <TTGlyph name="Zcaron" xMin="-3" yMin="0" xMax="594" yMax="878">
      <component glyphName="Z" x="0" y="0" flags="0x204"/>
      <component glyphName="caroncmb.cap" x="259" y="0" flags="0x4"/>
    </TTGlyph>
    <TTGlyph name="Zdotaccent" xMin="-3" yMin="0" xMax="594" yMax="856">
      <component glyphName="Z" x="0" y="0" flags="0x204"/>
      <component glyphName="dotaccentcmb.cap" x="253" y="0" flags="0x4"/>
    </TTGlyph>
    <TTGlyph name="a" xMin="46" yMin="-14" xMax="559" yMax="499">
      <contour>
        <pt x="157" y="161" on="1"/>
        <pt x="157" y="115" on="0"/>
        <pt x="188" y="72" on="0"/>
        <pt x="214" y="72" on="1"/>
        <pt x="237" y="72" on="0"/>
        <pt x="293" y="107" on="0"/>
        <pt x="330" y="146" on="1"/>
        <pt x="386" y="407" on="1"/>
        <pt x="373" y="414" on="0"/>
        <pt x="344" y="423" on="0"/>
        <pt x="329" y="423" on="1"/>
        <pt x="287" y="423" on="0"/>
        <pt x="239" y="377" on="1"/>
        <pt x="216" y="354" on="0"/>
        <pt x="178" y="283" on="0"/>
        <pt x="157" y="201" on="0"/>
      </contour>
      <contour>
        <pt x="386" y="-14" on="1"/>
        <pt x="357" y="-14" on="0"/>
        <pt x="319" y="23" on="0"/>
        <pt x="319" y="60" on="1"/>
        <pt x="319" y="69" on="0"/>
        <pt x="320" y="86" on="0"/>
        <pt x="321" y="94" on="1"/>
        <pt x="279" y="46" on="0"/>
        <pt x="187" y="-14" on="0"/>
        <pt x="146" y="-14" on="1"/>
        <pt x="108" y="-14" on="0"/>
        <pt x="46" y="45" on="0"/>
        <pt x="46" y="114" on="1"/>
        <pt x="46" y="167" on="0"/>
        <pt x="86" y="275" on="0"/>
        <pt x="154" y="372" on="0"/>
        <pt x="238" y="449" on="0"/>
        <pt x="328" y="493" on="0"/>
        <pt x="369" y="493" on="1"/>
        <pt x="389" y="493" on="0"/>
        <pt x="421" y="478" on="0"/>
        <pt x="436" y="464" on="1"/>
        <pt x="497" y="499" on="1"/>
        <pt x="514" y="488" on="1"/>
        <pt x="434" y="137" on="1"/>
        <pt x="426" y="103" on="0"/>
        <pt x="426" y="87" on="1"/>
        <pt x="426" y="66" on="0"/>
        <pt x="447" y="66" on="1"/>
        <pt x="464" y="66" on="0"/>
        <pt x="507" y="103" on="0"/>
        <pt x="532" y="134" on="1"/>
        <pt x="559" y="114" on="1"/>
        <pt x="540" y="84" on="0"/>
        <pt x="486" y="25" on="0"/>
        <pt x="422" y="-14" on="0"/>
      </contour>
    </TTGlyph>
    <TTGlyph name="a.sups" xMin="108" yMin="409" xMax="458" yMax="746">
      <contour>
        <pt x="186" y="528" on="1"/>
        <pt x="186" y="497" on="0"/>
        <pt x="207" y="470" on="0"/>
        <pt x="225" y="470" on="1"/>
        <pt x="255" y="470" on="0"/>
        <pt x="301" y="512" on="1"/>
        <pt x="301" y="514" on="1"/>
        <pt x="338" y="686" on="1"/>
        <pt x="329" y="690" on="0"/>
        <pt x="310" y="695" on="0"/>
        <pt x="299" y="695" on="1"/>
        <pt x="274" y="695" on="0"/>
        <pt x="221" y="650" on="0"/>
        <pt x="186" y="574" on="0"/>
      </contour>
      <contour>
        <pt x="341" y="409" on="1"/>
        <pt x="321" y="409" on="0"/>
        <pt x="295" y="435" on="0"/>
        <pt x="294" y="463" on="1"/>
        <pt x="294" y="466" on="0"/>
        <pt x="294" y="472" on="0"/>
        <pt x="294" y="475" on="1"/>
        <pt x="266" y="446" on="0"/>
        <pt x="205" y="409" on="0"/>
        <pt x="177" y="409" on="1"/>
        <pt x="150" y="409" on="0"/>
        <pt x="108" y="448" on="0"/>
        <pt x="108" y="496" on="1"/>
        <pt x="108" y="540" on="0"/>
        <pt x="149" y="627" on="0"/>
        <pt x="215" y="699" on="0"/>
        <pt x="291" y="742" on="0"/>
        <pt x="326" y="742" on="1"/>
        <pt x="353" y="742" on="0"/>
        <pt x="375" y="723" on="1"/>
        <pt x="415" y="746" on="1"/>
        <pt x="427" y="738" on="1"/>
        <pt x="374" y="509" on="1"/>
        <pt x="372" y="499" on="0"/>
        <pt x="369" y="483" on="0"/>
        <pt x="369" y="478" on="1"/>
        <pt x="369" y="464" on="0"/>
        <pt x="383" y="464" on="1"/>
        <pt x="394" y="464" on="0"/>
        <pt x="423" y="488" on="0"/>
        <pt x="439" y="507" on="1"/>
        <pt x="458" y="494" on="1"/>
        <pt x="439" y="463" on="0"/>
        <pt x="377" y="409" on="0"/>
      </contour>
    </TTGlyph>
    <TTGlyph name="aacute" xMin="46" yMin="-14" xMax="559" yMax="771">
      <component glyphName="a" x="0" y="0" flags="0x204"/>
      <component glyphName="uni0301" x="282" y="0" flags="0x4"/>
    </TTGlyph>
    <TTGlyph name="abreve" xMin="46" yMin="-14" xMax="559" yMax="733">
      <component glyphName="a" x="0" y="0" flags="0x204"/>
      <component glyphName="uni0306" x="298" y="0" flags="0x4"/>
    </TTGlyph>
    <TTGlyph name="acircumflex" xMin="46" yMin="-14" xMax="559" yMax="748">
      <component glyphName="a" x="0" y="0" flags="0x204"/>
      <component glyphName="uni0302" x="280" y="0" flags="0x4"/>
    </TTGlyph>
    <TTGlyph name="acute" xMin="213" yMin="536" xMax="388" yMax="771">
      <component glyphName="uni0301" x="149" y="0" flags="0x4"/>
    </TTGlyph>
    <TTGlyph name="acutecmb.cap" xMin="33" yMin="705" xMax="265" yMax="871">
      <contour>
        <pt x="33" y="733" on="1"/>
        <pt x="62" y="759" on="0"/>
        <pt x="118" y="809" on="0"/>
        <pt x="147" y="834" on="1"/>
        <pt x="173" y="856" on="0"/>
        <pt x="202" y="871" on="0"/>
        <pt x="221" y="871" on="1"/>
        <pt x="241" y="871" on="0"/>
        <pt x="265" y="847" on="0"/>
        <pt x="265" y="829" on="1"/>
        <pt x="265" y="814" on="0"/>
        <pt x="245" y="784" on="0"/>
        <pt x="207" y="768" on="1"/>
        <pt x="168" y="752" on="0"/>
        <pt x="89" y="721" on="0"/>
        <pt x="50" y="705" on="1"/>
      </contour>
    </TTGlyph>
    <TTGlyph name="adieresis" xMin="46" yMin="-14" xMax="559" yMax="732">
      <component glyphName="a" x="0" y="0" flags="0x204"/>
      <component glyphName="uni0308" x="290" y="0" flags="0x4"/>
    </TTGlyph>
    <TTGlyph name="ae" xMin="46" yMin="-14" xMax="723" yMax="493">
      <contour>
        <pt x="157" y="161" on="1"/>
        <pt x="157" y="115" on="0"/>
        <pt x="188" y="72" on="0"/>
        <pt x="214" y="72" on="1"/>
        <pt x="259" y="72" on="0"/>
        <pt x="327" y="141" on="1"/>
        <pt x="326" y="149" on="0"/>
        <pt x="325" y="165" on="0"/>
        <pt x="325" y="173" on="1"/>
        <pt x="325" y="235" on="0"/>
        <pt x="369" y="351" on="0"/>
        <pt x="406" y="396" on="1"/>
        <pt x="369" y="423" on="0"/>
        <pt x="329" y="423" on="1"/>
        <pt x="287" y="423" on="0"/>
        <pt x="239" y="377" on="1"/>
        <pt x="216" y="354" on="0"/>
        <pt x="178" y="283" on="0"/>
        <pt x="157" y="201" on="0"/>
      </contour>
      <contour>
        <pt x="585" y="444" on="1"/>
        <pt x="563" y="444" on="0"/>
        <pt x="512" y="408" on="0"/>
        <pt x="466" y="346" on="0"/>
        <pt x="434" y="264" on="0"/>
        <pt x="431" y="219" on="1"/>
        <pt x="507" y="243" on="0"/>
        <pt x="594" y="301" on="0"/>
        <pt x="632" y="363" on="0"/>
        <pt x="632" y="390" on="1"/>
        <pt x="632" y="416" on="0"/>
        <pt x="605" y="444" on="0"/>
      </contour>
      <contour>
        <pt x="488" y="-14" on="1"/>
        <pt x="432" y="-14" on="0"/>
        <pt x="350" y="45" on="0"/>
        <pt x="334" y="102" on="1"/>
        <pt x="291" y="50" on="0"/>
        <pt x="190" y="-14" on="0"/>
        <pt x="146" y="-14" on="1"/>
        <pt x="108" y="-14" on="0"/>
        <pt x="46" y="45" on="0"/>
        <pt x="46" y="114" on="1"/>
        <pt x="46" y="167" on="0"/>
        <pt x="86" y="275" on="0"/>
        <pt x="154" y="372" on="0"/>
        <pt x="238" y="449" on="0"/>
        <pt x="328" y="493" on="0"/>
        <pt x="369" y="493" on="1"/>
        <pt x="396" y="493" on="0"/>
        <pt x="443" y="467" on="0"/>
        <pt x="462" y="446" on="1"/>
        <pt x="493" y="469" on="0"/>
        <pt x="565" y="493" on="0"/>
        <pt x="604" y="493" on="1"/>
        <pt x="661" y="493" on="0"/>
        <pt x="723" y="440" on="0"/>
        <pt x="723" y="393" on="1"/>
        <pt x="723" y="356" on="0"/>
        <pt x="665" y="278" on="0"/>
        <pt x="537" y="207" on="0"/>
        <pt x="431" y="178" on="1"/>
        <pt x="436" y="123" on="0"/>
        <pt x="488" y="72" on="0"/>
        <pt x="531" y="72" on="1"/>
        <pt x="577" y="72" on="0"/>
        <pt x="645" y="117" on="0"/>
        <pt x="667" y="145" on="1"/>
        <pt x="692" y="126" on="1"/>
        <pt x="672" y="90" on="0"/>
        <pt x="611" y="26" on="0"/>
        <pt x="534" y="-14" on="0"/>
      </contour>
    </TTGlyph>
    <TTGlyph name="agrave" xMin="46" yMin="-14" xMax="559" yMax="772">
      <component glyphName="a" x="0" y="0" flags="0x204"/>
      <component glyphName="uni0300" x="320" y="0" flags="0x4"/>
    </TTGlyph>
    <TTGlyph name="amacron" xMin="46" yMin="-14" xMax="559" yMax="677">
      <component glyphName="a" x="0" y="0" flags="0x204"/>
      <component glyphName="uni0304" x="303" y="0" flags="0x4"/>
    </TTGlyph>
    <TTGlyph name="ampersand" xMin="63" yMin="-14" xMax="753" yMax="680">
      <contour>
        <pt x="328" y="-14" on="1"/>
        <pt x="203" y="-14" on="0"/>
        <pt x="63" y="102" on="0"/>
        <pt x="63" y="200" on="1"/>
        <pt x="63" y="247" on="0"/>
        <pt x="102" y="334" on="0"/>
        <pt x="174" y="403" on="0"/>
        <pt x="225" y="421" on="1"/>
        <pt x="206" y="456" on="0"/>
        <pt x="206" y="497" on="1"/>
        <pt x="206" y="546" on="0"/>
        <pt x="257" y="629" on="0"/>
        <pt x="352" y="680" on="0"/>
        <pt x="417" y="680" on="1"/>
        <pt x="479" y="680" on="0"/>
        <pt x="556" y="633" on="0"/>
        <pt x="566" y="589" on="1"/>
        <pt x="564" y="572" on="0"/>
        <pt x="542" y="549" on="0"/>
        <pt x="520" y="549" on="1"/>
        <pt x="501" y="549" on="0"/>
        <pt x="469" y="573" on="0"/>
        <pt x="457" y="601" on="1"/>
        <pt x="441" y="640" on="1"/>
        <pt x="438" y="640" on="0"/>
        <pt x="433" y="640" on="0"/>
        <pt x="431" y="640" on="1"/>
        <pt x="365" y="640" on="0"/>
        <pt x="290" y="569" on="0"/>
        <pt x="290" y="506" on="1"/>
        <pt x="290" y="470" on="0"/>
        <pt x="306" y="436" on="1"/>
        <pt x="310" y="436" on="0"/>
        <pt x="316" y="436" on="0"/>
        <pt x="320" y="436" on="1"/>
        <pt x="367" y="436" on="0"/>
        <pt x="419" y="410" on="0"/>
        <pt x="419" y="384" on="1"/>
        <pt x="419" y="364" on="0"/>
        <pt x="393" y="340" on="0"/>
        <pt x="367" y="340" on="1"/>
        <pt x="333" y="340" on="0"/>
        <pt x="276" y="363" on="0"/>
        <pt x="255" y="382" on="1"/>
        <pt x="212" y="357" on="0"/>
        <pt x="173" y="278" on="0"/>
        <pt x="173" y="234" on="1"/>
        <pt x="173" y="183" on="0"/>
        <pt x="222" y="113" on="0"/>
        <pt x="304" y="77" on="0"/>
        <pt x="354" y="77" on="1"/>
        <pt x="435" y="77" on="0"/>
        <pt x="522" y="136" on="0"/>
        <pt x="522" y="181" on="1"/>
        <pt x="522" y="216" on="0"/>
        <pt x="478" y="257" on="0"/>
        <pt x="423" y="261" on="1"/>
        <pt x="431" y="314" on="1"/>
        <pt x="527" y="321" on="0"/>
        <pt x="636" y="415" on="0"/>
        <pt x="669" y="504" on="1"/>
        <pt x="753" y="467" on="1"/>
        <pt x="718" y="387" on="0"/>
        <pt x="608" y="300" on="0"/>
        <pt x="528" y="284" on="1"/>
        <pt x="557" y="267" on="0"/>
        <pt x="581" y="210" on="0"/>
        <pt x="581" y="179" on="1"/>
        <pt x="581" y="124" on="0"/>
        <pt x="520" y="36" on="0"/>
        <pt x="407" y="-14" on="0"/>
      </contour>
    </TTGlyph>
    <TTGlyph name="ampersand.alt" xMin="44" yMin="-17" xMax="986" yMax="680">
      <contour>
        <pt x="319" y="573" on="1"/>
        <pt x="319" y="544" on="0"/>
        <pt x="353" y="488" on="0"/>
        <pt x="375" y="462" on="1"/>
        <pt x="412" y="485" on="0"/>
        <pt x="444" y="536" on="0"/>
        <pt x="444" y="570" on="1"/>
        <pt x="444" y="608" on="0"/>
        <pt x="413" y="640" on="0"/>
        <pt x="386" y="640" on="1"/>
        <pt x="355" y="640" on="0"/>
        <pt x="319" y="605" on="0"/>
      </contour>
      <contour>
        <pt x="759" y="-17" on="1"/>
        <pt x="686" y="-17" on="0"/>
        <pt x="570" y="37" on="0"/>
        <pt x="517" y="113" on="1"/>
        <pt x="508" y="126" on="0"/>
        <pt x="490" y="153" on="0"/>
        <pt x="481" y="166" on="1"/>
        <pt x="427" y="70" on="0"/>
        <pt x="294" y="-15" on="0"/>
        <pt x="217" y="-15" on="1"/>
        <pt x="135" y="-15" on="0"/>
        <pt x="44" y="79" on="0"/>
        <pt x="44" y="157" on="1"/>
        <pt x="44" y="230" on="0"/>
        <pt x="151" y="365" on="0"/>
        <pt x="278" y="415" on="1"/>
        <pt x="251" y="446" on="0"/>
        <pt x="222" y="505" on="0"/>
        <pt x="222" y="542" on="1"/>
        <pt x="222" y="585" on="0"/>
        <pt x="267" y="646" on="0"/>
        <pt x="342" y="680" on="0"/>
        <pt x="388" y="680" on="1"/>
        <pt x="444" y="680" on="0"/>
        <pt x="523" y="629" on="0"/>
        <pt x="523" y="577" on="1"/>
        <pt x="523" y="531" on="0"/>
        <pt x="456" y="468" on="0"/>
        <pt x="397" y="439" on="1"/>
        <pt x="430" y="404" on="0"/>
        <pt x="491" y="330" on="0"/>
        <pt x="519" y="292" on="1"/>
        <pt x="559" y="363" on="0"/>
        <pt x="650" y="492" on="0"/>
        <pt x="746" y="594" on="0"/>
        <pt x="845" y="653" on="0"/>
        <pt x="894" y="653" on="1"/>
        <pt x="930" y="653" on="0"/>
        <pt x="979" y="618" on="0"/>
        <pt x="986" y="586" on="1"/>
        <pt x="983" y="561" on="0"/>
        <pt x="951" y="533" on="0"/>
        <pt x="931" y="533" on="1"/>
        <pt x="915" y="533" on="0"/>
        <pt x="880" y="553" on="0"/>
        <pt x="854" y="581" on="1"/>
        <pt x="801" y="566" on="0"/>
        <pt x="696" y="476" on="0"/>
        <pt x="594" y="342" on="0"/>
        <pt x="543" y="260" on="1"/>
        <pt x="566" y="230" on="0"/>
        <pt x="608" y="169" on="0"/>
        <pt x="629" y="138" on="1"/>
        <pt x="671" y="77" on="0"/>
        <pt x="758" y="34" on="0"/>
        <pt x="796" y="34" on="1"/>
        <pt x="830" y="34" on="0"/>
        <pt x="874" y="48" on="0"/>
        <pt x="892" y="61" on="1"/>
        <pt x="871" y="99" on="0"/>
        <pt x="871" y="129" on="1"/>
        <pt x="871" y="155" on="0"/>
        <pt x="903" y="193" on="0"/>
        <pt x="931" y="194" on="1"/>
        <pt x="954" y="188" on="0"/>
        <pt x="974" y="156" on="0"/>
        <pt x="974" y="136" on="1"/>
        <pt x="974" y="99" on="0"/>
        <pt x="919" y="28" on="0"/>
        <pt x="822" y="-17" on="0"/>
      </contour>
      <contour>
        <pt x="267" y="70" on="1"/>
        <pt x="315" y="69" on="0"/>
        <pt x="410" y="129" on="0"/>
        <pt x="457" y="200" on="1"/>
        <pt x="423" y="247" on="0"/>
        <pt x="346" y="342" on="0"/>
        <pt x="303" y="388" on="1"/>
        <pt x="300" y="391" on="1"/>
        <pt x="219" y="348" on="0"/>
        <pt x="150" y="249" on="0"/>
        <pt x="150" y="197" on="1"/>
        <pt x="150" y="137" on="0"/>
        <pt x="218" y="71" on="0"/>
      </contour>
    </TTGlyph>
    <TTGlyph name="aogonek" xMin="46" yMin="-237" xMax="559" yMax="499">
      <contour>
        <pt x="157" y="161" on="1"/>
        <pt x="157" y="115" on="0"/>
        <pt x="188" y="72" on="0"/>
        <pt x="214" y="72" on="1"/>
        <pt x="237" y="72" on="0"/>
        <pt x="293" y="107" on="0"/>
        <pt x="330" y="146" on="1"/>
        <pt x="386" y="407" on="1"/>
        <pt x="373" y="414" on="0"/>
        <pt x="344" y="423" on="0"/>
        <pt x="329" y="423" on="1"/>
        <pt x="287" y="423" on="0"/>
        <pt x="239" y="377" on="1"/>
        <pt x="216" y="354" on="0"/>
        <pt x="178" y="283" on="0"/>
        <pt x="157" y="201" on="0"/>
      </contour>
      <contour>
        <pt x="312" y="-160" on="1"/>
        <pt x="312" y="-120" on="0"/>
        <pt x="367" y="-48" on="0"/>
        <pt x="404" y="-12" on="1"/>
        <pt x="400" y="-13" on="0"/>
        <pt x="391" y="-14" on="0"/>
        <pt x="386" y="-14" on="1"/>
        <pt x="357" y="-14" on="0"/>
        <pt x="319" y="23" on="0"/>
        <pt x="319" y="60" on="1"/>
        <pt x="319" y="69" on="0"/>
        <pt x="320" y="86" on="0"/>
        <pt x="321" y="94" on="1"/>
        <pt x="279" y="46" on="0"/>
        <pt x="187" y="-14" on="0"/>
        <pt x="146" y="-14" on="1"/>
        <pt x="108" y="-14" on="0"/>
        <pt x="46" y="45" on="0"/>
        <pt x="46" y="114" on="1"/>
        <pt x="46" y="167" on="0"/>
        <pt x="86" y="275" on="0"/>
        <pt x="154" y="372" on="0"/>
        <pt x="238" y="449" on="0"/>
        <pt x="328" y="493" on="0"/>
        <pt x="369" y="493" on="1"/>
        <pt x="389" y="493" on="0"/>
        <pt x="421" y="478" on="0"/>
        <pt x="436" y="464" on="1"/>
        <pt x="497" y="499" on="1"/>
        <pt x="514" y="488" on="1"/>
        <pt x="434" y="137" on="1"/>
        <pt x="426" y="103" on="0"/>
        <pt x="426" y="87" on="1"/>
        <pt x="426" y="66" on="0"/>
        <pt x="447" y="66" on="1"/>
        <pt x="464" y="66" on="0"/>
        <pt x="507" y="103" on="0"/>
        <pt x="532" y="134" on="1"/>
        <pt x="559" y="114" on="1"/>
        <pt x="543" y="89" on="0"/>
        <pt x="501" y="40" on="0"/>
        <pt x="477" y="18" on="1"/>
        <pt x="438" y="-19" on="0"/>
        <pt x="390" y="-91" on="0"/>
        <pt x="390" y="-129" on="1"/>
        <pt x="390" y="-156" on="0"/>
        <pt x="417" y="-183" on="0"/>
        <pt x="438" y="-183" on="1"/>
        <pt x="455" y="-183" on="0"/>
        <pt x="491" y="-169" on="0"/>
        <pt x="506" y="-159" on="1"/>
        <pt x="520" y="-181" on="1"/>
        <pt x="500" y="-202" on="0"/>
        <pt x="439" y="-237" on="0"/>
        <pt x="401" y="-237" on="1"/>
        <pt x="358" y="-237" on="0"/>
        <pt x="312" y="-195" on="0"/>
      </contour>
    </TTGlyph>
    <TTGlyph name="approxequal" xMin="78" yMin="131" xMax="499" yMax="533">
      <component glyphName="asciitilde" x="0" y="-133" flags="0x204"/>
      <component glyphName="asciitilde" x="0" y="107" flags="0x4"/>
    </TTGlyph>
    <TTGlyph name="aring" xMin="46" yMin="-14" xMax="559" yMax="767">
      <component glyphName="a" x="0" y="0" flags="0x204"/>
      <component glyphName="uni030A" x="297" y="0" flags="0x4"/>
    </TTGlyph>
    <TTGlyph name="asciicircum" xMin="89" yMin="196" xMax="486" yMax="492">
      <contour>
        <pt x="89" y="237" on="1"/>
        <pt x="251" y="492" on="1"/>
        <pt x="324" y="492" on="1"/>
        <pt x="486" y="237" on="1"/>
        <pt x="427" y="196" on="1"/>
        <pt x="287" y="414" on="1"/>
        <pt x="147" y="196" on="1"/>
      </contour>
    </TTGlyph>
    <TTGlyph name="asciitilde" xMin="78" yMin="264" xMax="499" yMax="426">
      <contour>
        <pt x="309" y="374" on="1"/>
        <pt x="336" y="351" on="0"/>
        <pt x="369" y="333" on="0"/>
        <pt x="386" y="333" on="1"/>
        <pt x="405" y="333" on="0"/>
        <pt x="436" y="370" on="0"/>
        <pt x="440" y="420" on="1"/>
        <pt x="499" y="413" on="1"/>
        <pt x="497" y="335" on="0"/>
        <pt x="433" y="264" on="0"/>
        <pt x="380" y="264" on="1"/>
        <pt x="352" y="264" on="0"/>
        <pt x="299" y="291" on="0"/>
        <pt x="269" y="316" on="1"/>
        <pt x="241" y="339" on="0"/>
        <pt x="209" y="357" on="0"/>
        <pt x="192" y="357" on="1"/>
        <pt x="173" y="357" on="0"/>
        <pt x="142" y="320" on="0"/>
        <pt x="137" y="270" on="1"/>
        <pt x="78" y="277" on="1"/>
        <pt x="81" y="355" on="0"/>
        <pt x="145" y="426" on="0"/>
        <pt x="197" y="426" on="1"/>
        <pt x="226" y="426" on="0"/>
        <pt x="278" y="400" on="0"/>
      </contour>
    </TTGlyph>
    <TTGlyph name="asterisk" xMin="106" yMin="342" xMax="503" yMax="743">
      <contour>
        <pt x="283" y="743" on="1"/>
        <pt x="320" y="743" on="0"/>
        <pt x="327" y="703" on="1"/>
        <pt x="329" y="689" on="0"/>
        <pt x="328" y="622" on="0"/>
        <pt x="326" y="560" on="1"/>
        <pt x="383" y="609" on="0"/>
        <pt x="445" y="655" on="0"/>
        <pt x="464" y="655" on="1"/>
        <pt x="480" y="655" on="0"/>
        <pt x="503" y="634" on="0"/>
        <pt x="503" y="613" on="1"/>
        <pt x="503" y="586" on="0"/>
        <pt x="428" y="555" on="0"/>
        <pt x="342" y="530" on="1"/>
        <pt x="412" y="487" on="0"/>
        <pt x="474" y="442" on="0"/>
        <pt x="476" y="419" on="1"/>
        <pt x="478" y="404" on="0"/>
        <pt x="458" y="378" on="0"/>
        <pt x="441" y="376" on="1"/>
        <pt x="415" y="374" on="0"/>
        <pt x="365" y="437" on="0"/>
        <pt x="318" y="507" on="1"/>
        <pt x="298" y="422" on="0"/>
        <pt x="263" y="342" on="0"/>
        <pt x="236" y="342" on="1"/>
        <pt x="221" y="342" on="0"/>
        <pt x="197" y="362" on="0"/>
        <pt x="197" y="381" on="1"/>
        <pt x="197" y="403" on="0"/>
        <pt x="241" y="461" on="0"/>
        <pt x="287" y="521" on="1"/>
        <pt x="194" y="512" on="0"/>
        <pt x="106" y="522" on="0"/>
        <pt x="106" y="558" on="1"/>
        <pt x="106" y="575" on="0"/>
        <pt x="127" y="599" on="0"/>
        <pt x="146" y="599" on="1"/>
        <pt x="165" y="599" on="0"/>
        <pt x="229" y="578" on="0"/>
        <pt x="293" y="555" on="1"/>
        <pt x="268" y="615" on="0"/>
        <pt x="242" y="685" on="0"/>
        <pt x="242" y="701" on="1"/>
        <pt x="242" y="716" on="0"/>
        <pt x="260" y="743" on="0"/>
      </contour>
    </TTGlyph>
    <TTGlyph name="at" xMin="60" yMin="-154" xMax="847" yMax="657">
      <contour>
        <pt x="347" y="197" on="1"/>
        <pt x="347" y="155" on="0"/>
        <pt x="375" y="117" on="0"/>
        <pt x="398" y="117" on="1"/>
        <pt x="419" y="117" on="0"/>
        <pt x="468" y="146" on="0"/>
        <pt x="500" y="180" on="1"/>
        <pt x="552" y="417" on="1"/>
        <pt x="540" y="423" on="0"/>
        <pt x="514" y="431" on="0"/>
        <pt x="501" y="431" on="1"/>
        <pt x="476" y="431" on="0"/>
        <pt x="423" y="395" on="0"/>
        <pt x="376" y="331" on="0"/>
        <pt x="347" y="246" on="0"/>
      </contour>
      <contour>
        <pt x="581" y="41" on="1"/>
        <pt x="532" y="41" on="0"/>
        <pt x="490" y="92" on="0"/>
        <pt x="492" y="132" on="1"/>
        <pt x="455" y="92" on="0"/>
        <pt x="374" y="41" on="0"/>
        <pt x="337" y="41" on="1"/>
        <pt x="303" y="41" on="0"/>
        <pt x="248" y="93" on="0"/>
        <pt x="248" y="152" on="1"/>
        <pt x="248" y="200" on="0"/>
        <pt x="284" y="298" on="0"/>
        <pt x="344" y="386" on="0"/>
        <pt x="420" y="454" on="0"/>
        <pt x="499" y="494" on="0"/>
        <pt x="536" y="494" on="1"/>
        <pt x="569" y="494" on="0"/>
        <pt x="596" y="467" on="1"/>
        <pt x="650" y="499" on="1"/>
        <pt x="665" y="489" on="1"/>
        <pt x="593" y="168" on="1"/>
        <pt x="585" y="134" on="0"/>
        <pt x="598" y="106" on="0"/>
        <pt x="622" y="106" on="1"/>
        <pt x="642" y="106" on="0"/>
        <pt x="697" y="137" on="0"/>
        <pt x="750" y="199" on="0"/>
        <pt x="785" y="295" on="0"/>
        <pt x="785" y="359" on="1"/>
        <pt x="785" y="475" on="0"/>
        <pt x="654" y="612" on="0"/>
        <pt x="536" y="612" on="1"/>
        <pt x="449" y="612" on="0"/>
        <pt x="301" y="543" on="0"/>
        <pt x="191" y="423" on="0"/>
        <pt x="130" y="264" on="0"/>
        <pt x="130" y="174" on="1"/>
        <pt x="130" y="44" on="0"/>
        <pt x="279" y="-99" on="0"/>
        <pt x="412" y="-99" on="1"/>
        <pt x="456" y="-99" on="0"/>
        <pt x="533" y="-85" on="0"/>
        <pt x="570" y="-72" on="1"/>
        <pt x="581" y="-111" on="1"/>
        <pt x="536" y="-132" on="0"/>
        <pt x="435" y="-154" on="0"/>
        <pt x="385" y="-154" on="1"/>
        <pt x="285" y="-154" on="0"/>
        <pt x="139" y="-75" on="0"/>
        <pt x="60" y="67" on="0"/>
        <pt x="60" y="159" on="1"/>
        <pt x="60" y="262" on="0"/>
        <pt x="132" y="443" on="0"/>
        <pt x="262" y="580" on="0"/>
        <pt x="438" y="657" on="0"/>
        <pt x="543" y="657" on="1"/>
        <pt x="648" y="657" on="0"/>
        <pt x="782" y="575" on="0"/>
        <pt x="847" y="440" on="0"/>
        <pt x="847" y="358" on="1"/>
        <pt x="847" y="281" on="0"/>
        <pt x="794" y="163" on="0"/>
        <pt x="711" y="82" on="0"/>
        <pt x="620" y="41" on="0"/>
      </contour>
    </TTGlyph>
    <TTGlyph name="at.cap" xMin="65" yMin="-131" xMax="852" yMax="680">
      <component glyphName="at" x="5" y="23" flags="0x204"/>
    </TTGlyph>
    <TTGlyph name="atilde" xMin="46" yMin="-14" xMax="569" yMax="721">
      <component glyphName="a" x="0" y="0" flags="0x204"/>
      <component glyphName="uni0303" x="288" y="0" flags="0x4"/>
    </TTGlyph>
    <TTGlyph name="b" xMin="78" yMin="-14" xMax="521" yMax="730">
      <contour>
        <pt x="185" y="106" on="1"/>
        <pt x="185" y="82" on="0"/>
        <pt x="210" y="54" on="0"/>
        <pt x="234" y="54" on="1"/>
        <pt x="288" y="54" on="0"/>
        <pt x="338" y="111" on="1"/>
        <pt x="370" y="147" on="0"/>
        <pt x="412" y="264" on="0"/>
        <pt x="412" y="320" on="1"/>
        <pt x="412" y="364" on="0"/>
        <pt x="381" y="409" on="0"/>
        <pt x="355" y="409" on="1"/>
        <pt x="327" y="409" on="0"/>
        <pt x="263" y="366" on="0"/>
        <pt x="226" y="328" on="1"/>
        <pt x="205" y="235" on="1"/>
        <pt x="195" y="185" on="0"/>
        <pt x="185" y="130" on="0"/>
      </contour>
      <contour>
        <pt x="178" y="-14" on="1"/>
        <pt x="135" y="-14" on="0"/>
        <pt x="78" y="35" on="0"/>
        <pt x="78" y="84" on="1"/>
        <pt x="78" y="119" on="0"/>
        <pt x="93" y="202" on="0"/>
        <pt x="103" y="248" on="1"/>
        <pt x="180" y="632" on="1"/>
        <pt x="95" y="640" on="1"/>
        <pt x="101" y="673" on="1"/>
        <pt x="293" y="730" on="1"/>
        <pt x="306" y="720" on="1"/>
        <pt x="234" y="375" on="1"/>
        <pt x="278" y="430" on="0"/>
        <pt x="380" y="493" on="0"/>
        <pt x="423" y="493" on="1"/>
        <pt x="465" y="493" on="0"/>
        <pt x="521" y="433" on="0"/>
        <pt x="521" y="362" on="1"/>
        <pt x="521" y="308" on="0"/>
        <pt x="482" y="200" on="0"/>
        <pt x="415" y="103" on="0"/>
        <pt x="327" y="29" on="0"/>
        <pt x="228" y="-14" on="0"/>
      </contour>
    </TTGlyph>
    <TTGlyph name="b.sups" xMin="128" yMin="409" xMax="429" yMax="893">
      <contour>
        <pt x="202" y="488" on="1"/>
        <pt x="202" y="454" on="0"/>
        <pt x="235" y="454" on="1"/>
        <pt x="263" y="454" on="0"/>
        <pt x="316" y="503" on="0"/>
        <pt x="352" y="582" on="0"/>
        <pt x="352" y="626" on="1"/>
        <pt x="352" y="682" on="0"/>
        <pt x="313" y="682" on="1"/>
        <pt x="295" y="682" on="0"/>
        <pt x="253" y="658" on="0"/>
        <pt x="229" y="637" on="1"/>
        <pt x="214" y="569" on="1"/>
        <pt x="208" y="538" on="0"/>
        <pt x="202" y="502" on="0"/>
      </contour>
      <contour>
        <pt x="196" y="409" on="1"/>
        <pt x="166" y="409" on="0"/>
        <pt x="128" y="443" on="0"/>
        <pt x="128" y="478" on="1"/>
        <pt x="128" y="501" on="0"/>
        <pt x="139" y="558" on="0"/>
        <pt x="144" y="587" on="1"/>
        <pt x="192" y="825" on="1"/>
        <pt x="135" y="830" on="1"/>
        <pt x="139" y="853" on="1"/>
        <pt x="272" y="893" on="1"/>
        <pt x="281" y="885" on="1"/>
        <pt x="236" y="671" on="1"/>
        <pt x="265" y="704" on="0"/>
        <pt x="333" y="742" on="0"/>
        <pt x="361" y="742" on="1"/>
        <pt x="390" y="742" on="0"/>
        <pt x="429" y="702" on="0"/>
        <pt x="429" y="654" on="1"/>
        <pt x="429" y="608" on="0"/>
        <pt x="389" y="521" on="0"/>
        <pt x="322" y="451" on="0"/>
        <pt x="239" y="409" on="0"/>
      </contour>
    </TTGlyph>
    <TTGlyph name="backslash" xMin="116" yMin="-160" xMax="284" yMax="710">
      <contour>
        <pt x="284" y="-160" on="1"/>
        <pt x="205" y="-160" on="1"/>
        <pt x="116" y="710" on="1"/>
        <pt x="195" y="710" on="1"/>
      </contour>
    </TTGlyph>
    <TTGlyph name="bar" xMin="108" yMin="-250" xMax="185" yMax="750">
      <contour>
        <pt x="108" y="-250" on="1"/>
        <pt x="108" y="750" on="1"/>
        <pt x="185" y="750" on="1"/>
        <pt x="185" y="-250" on="1"/>
      </contour>
    </TTGlyph>
    <TTGlyph name="braceleft" xMin="58" yMin="-159" xMax="417" yMax="715">
      <contour>
        <pt x="58" y="254" on="1"/>
        <pt x="68" y="302" on="1"/>
        <pt x="141" y="312" on="0"/>
        <pt x="193" y="372" on="0"/>
        <pt x="193" y="418" on="1"/>
        <pt x="193" y="447" on="0"/>
        <pt x="175" y="515" on="0"/>
        <pt x="175" y="552" on="1"/>
        <pt x="175" y="635" on="0"/>
        <pt x="283" y="715" on="0"/>
        <pt x="383" y="715" on="1"/>
        <pt x="417" y="715" on="1"/>
        <pt x="409" y="669" on="1"/>
        <pt x="384" y="667" on="1"/>
        <pt x="320" y="663" on="0"/>
        <pt x="273" y="605" on="0"/>
        <pt x="273" y="546" on="1"/>
        <pt x="273" y="520" on="0"/>
        <pt x="276" y="453" on="0"/>
        <pt x="276" y="430" on="1"/>
        <pt x="276" y="374" on="0"/>
        <pt x="210" y="293" on="0"/>
        <pt x="151" y="278" on="1"/>
        <pt x="189" y="268" on="0"/>
        <pt x="226" y="220" on="0"/>
        <pt x="226" y="186" on="1"/>
        <pt x="226" y="162" on="0"/>
        <pt x="211" y="98" on="0"/>
        <pt x="190" y="31" on="0"/>
        <pt x="175" y="-31" on="0"/>
        <pt x="175" y="-54" on="1"/>
        <pt x="175" y="-104" on="0"/>
        <pt x="244" y="-110" on="1"/>
        <pt x="277" y="-113" on="1"/>
        <pt x="268" y="-159" on="1"/>
        <pt x="221" y="-159" on="1"/>
        <pt x="154" y="-159" on="0"/>
        <pt x="75" y="-112" on="0"/>
        <pt x="75" y="-63" on="1"/>
        <pt x="75" y="-29" on="0"/>
        <pt x="98" y="36" on="0"/>
        <pt x="128" y="99" on="0"/>
        <pt x="151" y="158" on="0"/>
        <pt x="151" y="185" on="1"/>
        <pt x="151" y="211" on="0"/>
        <pt x="111" y="247" on="0"/>
      </contour>
    </TTGlyph>
    <TTGlyph name="braceleft.cap" xMin="65" yMin="-126" xMax="424" yMax="748">
      <component glyphName="braceleft" x="7" y="33" flags="0x204"/>
    </TTGlyph>
    <TTGlyph name="braceright" xMin="-10" yMin="-159" xMax="349" yMax="715">
      <contour>
        <pt x="349" y="302" on="1"/>
        <pt x="339" y="254" on="1"/>
        <pt x="266" y="244" on="0"/>
        <pt x="214" y="184" on="0"/>
        <pt x="214" y="138" on="1"/>
        <pt x="214" y="109" on="0"/>
        <pt x="232" y="41" on="0"/>
        <pt x="232" y="4" on="1"/>
        <pt x="232" y="-78" on="0"/>
        <pt x="124" y="-159" on="0"/>
        <pt x="24" y="-159" on="1"/>
        <pt x="-10" y="-159" on="1"/>
        <pt x="-2" y="-113" on="1"/>
        <pt x="23" y="-111" on="1"/>
        <pt x="87" y="-107" on="0"/>
        <pt x="134" y="-49" on="0"/>
        <pt x="134" y="10" on="1"/>
        <pt x="134" y="36" on="0"/>
        <pt x="131" y="104" on="0"/>
        <pt x="131" y="126" on="1"/>
        <pt x="131" y="182" on="0"/>
        <pt x="198" y="263" on="0"/>
        <pt x="256" y="278" on="1"/>
        <pt x="218" y="289" on="0"/>
        <pt x="181" y="336" on="0"/>
        <pt x="181" y="370" on="1"/>
        <pt x="181" y="394" on="0"/>
        <pt x="196" y="458" on="0"/>
        <pt x="217" y="525" on="0"/>
        <pt x="232" y="588" on="0"/>
        <pt x="232" y="610" on="1"/>
        <pt x="232" y="660" on="0"/>
        <pt x="163" y="666" on="1"/>
        <pt x="130" y="669" on="1"/>
        <pt x="139" y="715" on="1"/>
        <pt x="186" y="715" on="1"/>
        <pt x="254" y="715" on="0"/>
        <pt x="332" y="668" on="0"/>
        <pt x="332" y="619" on="1"/>
        <pt x="332" y="585" on="0"/>
        <pt x="309" y="520" on="0"/>
        <pt x="279" y="457" on="0"/>
        <pt x="256" y="398" on="0"/>
        <pt x="256" y="371" on="1"/>
        <pt x="256" y="345" on="0"/>
        <pt x="297" y="309" on="0"/>
      </contour>
    </TTGlyph>
    <TTGlyph name="braceright.cap" xMin="-3" yMin="-126" xMax="356" yMax="748">
      <component glyphName="braceright" x="7" y="33" flags="0x204"/>
    </TTGlyph>
    <TTGlyph name="bracketleft" xMin="28" yMin="-159" xMax="408" yMax="715">
      <contour>
        <pt x="28" y="-159" on="1"/>
        <pt x="46" y="-82" on="0"/>
        <pt x="78" y="78" on="0"/>
        <pt x="94" y="158" on="1"/>
        <pt x="141" y="398" on="1"/>
        <pt x="158" y="477" on="0"/>
        <pt x="188" y="636" on="0"/>
        <pt x="201" y="715" on="1"/>
        <pt x="408" y="715" on="1"/>
        <pt x="398" y="668" on="1"/>
        <pt x="287" y="656" on="1"/>
        <pt x="274" y="592" on="0"/>
        <pt x="248" y="463" on="0"/>
        <pt x="234" y="398" on="1"/>
        <pt x="188" y="158" on="1"/>
        <pt x="175" y="94" on="0"/>
        <pt x="149" y="-35" on="0"/>
        <pt x="138" y="-100" on="1"/>
        <pt x="244" y="-112" on="1"/>
        <pt x="235" y="-159" on="1"/>
      </contour>
    </TTGlyph>
    <TTGlyph name="bracketleft.cap" xMin="35" yMin="-126" xMax="415" yMax="748">
      <component glyphName="bracketleft" x="7" y="33" flags="0x204"/>
    </TTGlyph>
    <TTGlyph name="bracketleft.dnom" xMin="81" yMin="-101" xMax="323" yMax="435">
      <component glyphName="bracketleft.sups" x="-89" y="-419" flags="0x204"/>
    </TTGlyph>
    <TTGlyph name="bracketleft.numr" xMin="134" yMin="149" xMax="376" yMax="685">
      <component glyphName="bracketleft.sups" x="-36" y="-169" flags="0x204"/>
    </TTGlyph>
    <TTGlyph name="bracketleft.subs" xMin="37" yMin="-308" xMax="279" yMax="228">
      <component glyphName="bracketleft.sups" x="-133" y="-626" flags="0x204"/>
    </TTGlyph>
    <TTGlyph name="bracketleft.sups" xMin="170" yMin="318" xMax="412" yMax="854">
      <contour>
        <pt x="170" y="318" on="1"/>
        <pt x="279" y="854" on="1"/>
        <pt x="412" y="854" on="1"/>
        <pt x="406" y="821" on="1"/>
        <pt x="337" y="810" on="1"/>
        <pt x="245" y="362" on="1"/>
        <pt x="310" y="351" on="1"/>
        <pt x="304" y="318" on="1"/>
      </contour>
    </TTGlyph>
    <TTGlyph name="bracketright" xMin="-26" yMin="-159" xMax="354" yMax="715">
      <contour>
        <pt x="354" y="715" on="1"/>
        <pt x="336" y="638" on="0"/>
        <pt x="304" y="478" on="0"/>
        <pt x="288" y="398" on="1"/>
        <pt x="241" y="158" on="1"/>
        <pt x="225" y="79" on="0"/>
        <pt x="195" y="-80" on="0"/>
        <pt x="181" y="-159" on="1"/>
        <pt x="-26" y="-159" on="1"/>
        <pt x="-16" y="-112" on="1"/>
        <pt x="95" y="-100" on="1"/>
        <pt x="109" y="-36" on="0"/>
        <pt x="135" y="93" on="0"/>
        <pt x="148" y="158" on="1"/>
        <pt x="194" y="398" on="1"/>
        <pt x="208" y="462" on="0"/>
        <pt x="233" y="592" on="0"/>
        <pt x="244" y="656" on="1"/>
        <pt x="138" y="668" on="1"/>
        <pt x="147" y="715" on="1"/>
      </contour>
    </TTGlyph>
    <TTGlyph name="bracketright.cap" xMin="-19" yMin="-126" xMax="361" yMax="748">
      <component glyphName="bracketright" x="7" y="33" flags="0x204"/>
    </TTGlyph>
    <TTGlyph name="bracketright.dnom" xMin="42" yMin="-101" xMax="284" yMax="435">
      <component glyphName="bracketright.sups" x="-89" y="-419" flags="0x204"/>
    </TTGlyph>
    <TTGlyph name="bracketright.numr" xMin="95" yMin="149" xMax="337" yMax="685">
      <component glyphName="bracketright.sups" x="-36" y="-169" flags="0x204"/>
    </TTGlyph>
    <TTGlyph name="bracketright.subs" xMin="-2" yMin="-308" xMax="240" yMax="228">
      <component glyphName="bracketright.sups" x="-133" y="-626" flags="0x204"/>
    </TTGlyph>
    <TTGlyph name="bracketright.sups" xMin="131" yMin="318" xMax="373" yMax="854">
      <contour>
        <pt x="233" y="821" on="1"/>
        <pt x="240" y="854" on="1"/>
        <pt x="373" y="854" on="1"/>
        <pt x="264" y="318" on="1"/>
        <pt x="131" y="318" on="1"/>
        <pt x="137" y="351" on="1"/>
        <pt x="207" y="362" on="1"/>
        <pt x="298" y="810" on="1"/>
      </contour>
    </TTGlyph>
    <TTGlyph name="breve" xMin="132" yMin="569" xMax="448" yMax="733">
      <component glyphName="uni0306" x="190" y="0" flags="0x4"/>
    </TTGlyph>
    <TTGlyph name="brevecmb.cap" xMin="-28" yMin="720" xMax="284" yMax="864">
      <contour>
        <pt x="113" y="720" on="1"/>
        <pt x="55" y="720" on="0"/>
        <pt x="-17" y="790" on="0"/>
        <pt x="-28" y="848" on="1"/>
        <pt x="3" y="863" on="1"/>
        <pt x="19" y="832" on="0"/>
        <pt x="83" y="792" on="0"/>
        <pt x="124" y="792" on="1"/>
        <pt x="165" y="792" on="0"/>
        <pt x="229" y="832" on="0"/>
        <pt x="252" y="864" on="1"/>
        <pt x="284" y="849" on="1"/>
        <pt x="272" y="817" on="0"/>
        <pt x="228" y="758" on="0"/>
        <pt x="160" y="720" on="0"/>
      </contour>
    </TTGlyph>
    <TTGlyph name="brokenbar" xMin="108" yMin="-250" xMax="185" yMax="750">
      <contour>
        <pt x="108" y="-250" on="1"/>
        <pt x="108" y="200" on="1"/>
        <pt x="185" y="200" on="1"/>
        <pt x="185" y="-250" on="1"/>
      </contour>
      <contour>
        <pt x="185" y="320" on="1"/>
        <pt x="108" y="320" on="1"/>
        <pt x="108" y="750" on="1"/>
        <pt x="185" y="750" on="1"/>
      </contour>
    </TTGlyph>
    <TTGlyph name="bullet" xMin="75" yMin="226" xMax="304" yMax="454">
      <contour>
        <pt x="180" y="226" on="1"/>
        <pt x="134" y="226" on="0"/>
        <pt x="75" y="284" on="0"/>
        <pt x="75" y="327" on="1"/>
        <pt x="75" y="364" on="0"/>
        <pt x="111" y="421" on="0"/>
        <pt x="169" y="454" on="0"/>
        <pt x="200" y="454" on="1"/>
        <pt x="245" y="454" on="0"/>
        <pt x="304" y="396" on="0"/>
        <pt x="304" y="353" on="1"/>
        <pt x="304" y="316" on="0"/>
        <pt x="269" y="258" on="0"/>
        <pt x="212" y="226" on="0"/>
      </contour>
    </TTGlyph>
    <TTGlyph name="c" xMin="52" yMin="-14" xMax="451" yMax="493">
      <contour>
        <pt x="213" y="-14" on="1"/>
        <pt x="143" y="-14" on="0"/>
        <pt x="52" y="83" on="0"/>
        <pt x="52" y="174" on="1"/>
        <pt x="52" y="238" on="0"/>
        <pt x="96" y="353" on="0"/>
        <pt x="173" y="442" on="0"/>
        <pt x="272" y="493" on="0"/>
        <pt x="327" y="493" on="1"/>
        <pt x="377" y="493" on="0"/>
        <pt x="441" y="448" on="0"/>
        <pt x="451" y="410" on="1"/>
        <pt x="449" y="387" on="0"/>
        <pt x="416" y="360" on="0"/>
        <pt x="395" y="360" on="1"/>
        <pt x="374" y="360" on="0"/>
        <pt x="344" y="387" on="0"/>
        <pt x="331" y="405" on="1"/>
        <pt x="300" y="448" on="1"/>
        <pt x="259" y="427" on="0"/>
        <pt x="196" y="348" on="0"/>
        <pt x="161" y="248" on="0"/>
        <pt x="161" y="194" on="1"/>
        <pt x="161" y="132" on="0"/>
        <pt x="220" y="72" on="0"/>
        <pt x="269" y="72" on="1"/>
        <pt x="305" y="72" on="0"/>
        <pt x="369" y="115" on="0"/>
        <pt x="394" y="145" on="1"/>
        <pt x="419" y="126" on="1"/>
        <pt x="399" y="89" on="0"/>
        <pt x="335" y="25" on="0"/>
        <pt x="257" y="-14" on="0"/>
      </contour>
    </TTGlyph>
    <TTGlyph name="c.sups" xMin="111" yMin="409" xMax="383" yMax="742">
      <contour>
        <pt x="222" y="409" on="1"/>
        <pt x="173" y="409" on="0"/>
        <pt x="111" y="474" on="0"/>
        <pt x="111" y="532" on="1"/>
        <pt x="111" y="588" on="0"/>
        <pt x="162" y="684" on="0"/>
        <pt x="247" y="742" on="0"/>
        <pt x="298" y="742" on="1"/>
        <pt x="333" y="742" on="0"/>
        <pt x="376" y="711" on="0"/>
        <pt x="383" y="685" on="1"/>
        <pt x="382" y="669" on="0"/>
        <pt x="359" y="647" on="0"/>
        <pt x="344" y="647" on="1"/>
        <pt x="329" y="647" on="0"/>
        <pt x="308" y="666" on="0"/>
        <pt x="300" y="679" on="1"/>
        <pt x="279" y="711" on="1"/>
        <pt x="237" y="689" on="0"/>
        <pt x="188" y="598" on="0"/>
        <pt x="188" y="549" on="1"/>
        <pt x="188" y="508" on="0"/>
        <pt x="229" y="471" on="0"/>
        <pt x="262" y="471" on="1"/>
        <pt x="287" y="471" on="0"/>
        <pt x="330" y="497" on="0"/>
        <pt x="347" y="518" on="1"/>
        <pt x="364" y="505" on="1"/>
        <pt x="343" y="467" on="0"/>
        <pt x="267" y="409" on="0"/>
      </contour>
    </TTGlyph>
    <TTGlyph name="cacute" xMin="52" yMin="-14" xMax="495" yMax="771">
      <component glyphName="c" x="0" y="0" flags="0x204"/>
      <component glyphName="uni0301" x="256" y="0" flags="0x4"/>
    </TTGlyph>
    <TTGlyph name="caron" xMin="151" yMin="555" xMax="452" yMax="760">
      <component glyphName="uni030C" x="188" y="0" flags="0x4"/>
    </TTGlyph>
    <TTGlyph name="caroncmb.cap" xMin="-20" yMin="718" xMax="292" yMax="878">
      <contour>
        <pt x="10" y="877" on="1"/>
        <pt x="127" y="783" on="1"/>
        <pt x="271" y="878" on="1"/>
        <pt x="292" y="854" on="1"/>
        <pt x="152" y="718" on="1"/>
        <pt x="84" y="718" on="1"/>
        <pt x="-20" y="854" on="1"/>
      </contour>
    </TTGlyph>
    <TTGlyph name="ccaron" xMin="52" yMin="-14" xMax="520" yMax="760">
      <component glyphName="c" x="0" y="0" flags="0x204"/>
      <component glyphName="uni030C" x="256" y="0" flags="0x4"/>
    </TTGlyph>
    <TTGlyph name="ccedilla" xMin="52" yMin="-231" xMax="451" yMax="493">
      <component glyphName="c" x="0" y="0" flags="0x204"/>
      <component glyphName="uni0327" x="248" y="0" flags="0x4"/>
    </TTGlyph>
    <TTGlyph name="cedilla" xMin="35" yMin="-231" xMax="234" yMax="0">
      <component glyphName="uni0327" x="187" y="0" flags="0x4"/>
    </TTGlyph>
    <TTGlyph name="cent" xMin="73" yMin="-45" xMax="497" yMax="656">
      <contour>
        <pt x="73" y="241" on="1"/>
        <pt x="73" y="303" on="0"/>
        <pt x="114" y="414" on="0"/>
        <pt x="184" y="501" on="0"/>
        <pt x="275" y="554" on="0"/>
        <pt x="325" y="558" on="1"/>
        <pt x="345" y="656" on="1"/>
        <pt x="391" y="656" on="1"/>
        <pt x="371" y="557" on="1"/>
        <pt x="427" y="549" on="0"/>
        <pt x="497" y="475" on="0"/>
        <pt x="497" y="418" on="1"/>
        <pt x="494" y="393" on="0"/>
        <pt x="465" y="372" on="0"/>
        <pt x="450" y="372" on="1"/>
        <pt x="426" y="372" on="0"/>
        <pt x="400" y="403" on="0"/>
        <pt x="397" y="442" on="1"/>
        <pt x="392" y="505" on="1"/>
        <pt x="385" y="507" on="0"/>
        <pt x="370" y="509" on="0"/>
        <pt x="361" y="510" on="1"/>
        <pt x="285" y="138" on="1"/>
        <pt x="325" y="138" on="0"/>
        <pt x="390" y="181" on="0"/>
        <pt x="415" y="211" on="1"/>
        <pt x="440" y="192" on="1"/>
        <pt x="414" y="143" on="0"/>
        <pt x="323" y="66" on="0"/>
        <pt x="268" y="55" on="1"/>
        <pt x="248" y="-45" on="1"/>
        <pt x="202" y="-45" on="1"/>
        <pt x="222" y="52" on="1"/>
        <pt x="155" y="57" on="0"/>
        <pt x="73" y="153" on="0"/>
      </contour>
      <contour>
        <pt x="178" y="264" on="1"/>
        <pt x="178" y="215" on="0"/>
        <pt x="212" y="157" on="0"/>
        <pt x="241" y="146" on="1"/>
        <pt x="315" y="508" on="1"/>
        <pt x="273" y="499" on="0"/>
        <pt x="212" y="421" on="0"/>
        <pt x="178" y="316" on="0"/>
      </contour>
    </TTGlyph>
    <TTGlyph name="circumflex" xMin="139" yMin="545" xMax="450" yMax="748">
      <component glyphName="uni0302" x="205" y="0" flags="0x4"/>
    </TTGlyph>
    <TTGlyph name="circumflexcmb.cap" xMin="-37" yMin="704" xMax="284" yMax="867">
      <contour>
        <pt x="167" y="867" on="1"/>
        <pt x="284" y="730" on="1"/>
        <pt x="258" y="704" on="1"/>
        <pt x="131" y="792" on="1"/>
        <pt x="-21" y="704" on="1"/>
        <pt x="-37" y="731" on="1"/>
        <pt x="120" y="867" on="1"/>
      </contour>
    </TTGlyph>
    <TTGlyph name="colon" xMin="54" yMin="-12" xMax="283" yMax="487">
      <component glyphName="period" x="-1" y="0" flags="0x4"/>
      <component glyphName="period" x="74" y="349" flags="0x4"/>
    </TTGlyph>
    <TTGlyph name="colon.sups" xMin="109" yMin="409" xMax="268" yMax="743">
      <contour>
        <pt x="160" y="409" on="1"/>
        <pt x="138" y="409" on="0"/>
        <pt x="109" y="439" on="0"/>
        <pt x="109" y="458" on="1"/>
        <pt x="109" y="483" on="0"/>
        <pt x="145" y="517" on="0"/>
        <pt x="170" y="517" on="1"/>
        <pt x="193" y="517" on="0"/>
        <pt x="221" y="488" on="0"/>
        <pt x="221" y="468" on="1"/>
        <pt x="221" y="443" on="0"/>
        <pt x="185" y="409" on="0"/>
      </contour>
      <contour>
        <pt x="208" y="635" on="1"/>
        <pt x="185" y="635" on="0"/>
        <pt x="156" y="665" on="0"/>
        <pt x="156" y="684" on="1"/>
        <pt x="156" y="710" on="0"/>
        <pt x="192" y="743" on="0"/>
        <pt x="217" y="743" on="1"/>
        <pt x="240" y="743" on="0"/>
        <pt x="268" y="714" on="0"/>
        <pt x="268" y="694" on="1"/>
        <pt x="268" y="669" on="0"/>
        <pt x="232" y="635" on="0"/>
      </contour>
    </TTGlyph>
    <TTGlyph name="comma" xMin="-4" yMin="-161" xMax="203" yMax="138">
      <contour>
        <pt x="9" y="-161" on="1"/>
        <pt x="-4" y="-126" on="1"/>
        <pt x="74" y="-95" on="0"/>
        <pt x="119" y="-24" on="1"/>
        <pt x="90" y="2" on="1"/>
        <pt x="74" y="13" on="0"/>
        <pt x="59" y="49" on="0"/>
        <pt x="59" y="66" on="1"/>
        <pt x="59" y="93" on="0"/>
        <pt x="97" y="138" on="0"/>
        <pt x="134" y="138" on="1"/>
        <pt x="167" y="138" on="0"/>
        <pt x="193" y="118" on="1"/>
        <pt x="198" y="108" on="0"/>
        <pt x="203" y="89" on="0"/>
        <pt x="203" y="76" on="1"/>
        <pt x="203" y="23" on="0"/>
        <pt x="154" y="-72" on="0"/>
        <pt x="67" y="-143" on="0"/>
      </contour>
    </TTGlyph>
    <TTGlyph name="comma.dnom" xMin="-30" yMin="-114" xMax="129" yMax="97">
      <component glyphName="comma.sups" x="-89" y="-419" flags="0x204"/>
    </TTGlyph>
    <TTGlyph name="comma.numr" xMin="23" yMin="136" xMax="182" yMax="347">
      <component glyphName="comma.sups" x="-36" y="-169" flags="0x204"/>
    </TTGlyph>
    <TTGlyph name="comma.subs" xMin="-74" yMin="-321" xMax="85" yMax="-110">
      <component glyphName="comma.sups" x="-133" y="-626" flags="0x204"/>
    </TTGlyph>
    <TTGlyph name="comma.sups" xMin="59" yMin="305" xMax="218" yMax="516">
      <contour>
        <pt x="68" y="305" on="1"/>
        <pt x="59" y="333" on="1"/>
        <pt x="94" y="346" on="0"/>
        <pt x="139" y="383" on="0"/>
        <pt x="156" y="411" on="1"/>
        <pt x="130" y="432" on="0"/>
        <pt x="113" y="456" on="0"/>
        <pt x="113" y="469" on="1"/>
        <pt x="113" y="486" on="0"/>
        <pt x="143" y="516" on="0"/>
        <pt x="167" y="516" on="1"/>
        <pt x="198" y="516" on="0"/>
        <pt x="215" y="493" on="1"/>
        <pt x="217" y="486" on="0"/>
        <pt x="218" y="475" on="0"/>
        <pt x="218" y="467" on="1"/>
        <pt x="218" y="429" on="0"/>
        <pt x="176" y="361" on="0"/>
        <pt x="107" y="313" on="0"/>
      </contour>
    </TTGlyph>
    <TTGlyph name="copyright" xMin="72" yMin="-17" xMax="766" yMax="680">
      <contour>
        <pt x="388" y="29" on="1"/>
        <pt x="451" y="29" on="0"/>
        <pt x="567" y="75" on="0"/>
        <pt x="658" y="163" on="0"/>
        <pt x="710" y="287" on="0"/>
        <pt x="710" y="365" on="1"/>
        <pt x="710" y="449" on="0"/>
        <pt x="642" y="570" on="0"/>
        <pt x="525" y="635" on="0"/>
        <pt x="450" y="635" on="1"/>
        <pt x="387" y="635" on="0"/>
        <pt x="271" y="588" on="0"/>
        <pt x="181" y="500" on="0"/>
        <pt x="128" y="376" on="0"/>
        <pt x="128" y="299" on="1"/>
        <pt x="128" y="214" on="0"/>
        <pt x="196" y="93" on="0"/>
        <pt x="314" y="29" on="0"/>
      </contour>
      <contour>
        <pt x="389" y="-17" on="1"/>
        <pt x="299" y="-17" on="0"/>
        <pt x="155" y="58" on="0"/>
        <pt x="72" y="197" on="0"/>
        <pt x="72" y="294" on="1"/>
        <pt x="72" y="383" on="0"/>
        <pt x="134" y="526" on="0"/>
        <pt x="241" y="627" on="0"/>
        <pt x="376" y="680" on="0"/>
        <pt x="449" y="680" on="1"/>
        <pt x="540" y="680" on="0"/>
        <pt x="683" y="605" on="0"/>
        <pt x="766" y="466" on="0"/>
        <pt x="766" y="369" on="1"/>
        <pt x="766" y="280" on="0"/>
        <pt x="704" y="137" on="0"/>
        <pt x="597" y="36" on="0"/>
        <pt x="462" y="-17" on="0"/>
      </contour>
      <contour>
        <pt x="414" y="129" on="1"/>
        <pt x="364" y="129" on="0"/>
        <pt x="285" y="173" on="0"/>
        <pt x="239" y="254" on="0"/>
        <pt x="239" y="311" on="1"/>
        <pt x="239" y="374" on="0"/>
        <pt x="297" y="477" on="0"/>
        <pt x="398" y="539" on="0"/>
        <pt x="464" y="539" on="1"/>
        <pt x="495" y="539" on="0"/>
        <pt x="545" y="526" on="0"/>
        <pt x="573" y="509" on="1"/>
        <pt x="559" y="414" on="1"/>
        <pt x="513" y="414" on="1"/>
        <pt x="511" y="491" on="1"/>
        <pt x="489" y="499" on="0"/>
        <pt x="464" y="499" on="1"/>
        <pt x="417" y="499" on="0"/>
        <pt x="353" y="445" on="0"/>
        <pt x="321" y="360" on="0"/>
        <pt x="321" y="313" on="1"/>
        <pt x="321" y="245" on="0"/>
        <pt x="384" y="170" on="0"/>
        <pt x="430" y="170" on="1"/>
        <pt x="450" y="170" on="0"/>
        <pt x="469" y="176" on="1"/>
        <pt x="495" y="251" on="1"/>
        <pt x="541" y="251" on="1"/>
        <pt x="525" y="157" on="1"/>
        <pt x="503" y="146" on="0"/>
        <pt x="449" y="129" on="0"/>
      </contour>
    </TTGlyph>
    <TTGlyph name="currency" xMin="62" yMin="92" xMax="531" yMax="561">
      <contour>
        <pt x="192" y="326" on="1"/>
        <pt x="192" y="278" on="0"/>
        <pt x="254" y="218" on="0"/>
        <pt x="296" y="218" on="1"/>
        <pt x="339" y="218" on="0"/>
        <pt x="400" y="278" on="0"/>
        <pt x="400" y="326" on="1"/>
        <pt x="400" y="375" on="0"/>
        <pt x="339" y="435" on="0"/>
        <pt x="296" y="435" on="1"/>
        <pt x="254" y="435" on="0"/>
        <pt x="192" y="375" on="0"/>
      </contour>
      <contour>
        <pt x="125" y="326" on="1"/>
        <pt x="125" y="358" on="0"/>
        <pt x="145" y="413" on="0"/>
        <pt x="162" y="434" on="1"/>
        <pt x="127" y="453" on="1"/>
        <pt x="96" y="471" on="0"/>
        <pt x="62" y="502" on="0"/>
        <pt x="62" y="520" on="1"/>
        <pt x="62" y="537" on="0"/>
        <pt x="86" y="561" on="0"/>
        <pt x="103" y="561" on="1"/>
        <pt x="121" y="561" on="0"/>
        <pt x="151" y="528" on="0"/>
        <pt x="169" y="496" on="1"/>
        <pt x="189" y="460" on="1"/>
        <pt x="236" y="496" on="0"/>
        <pt x="296" y="496" on="1"/>
        <pt x="358" y="496" on="0"/>
        <pt x="403" y="460" on="1"/>
        <pt x="423" y="496" on="1"/>
        <pt x="442" y="528" on="0"/>
        <pt x="472" y="561" on="0"/>
        <pt x="490" y="561" on="1"/>
        <pt x="507" y="561" on="0"/>
        <pt x="531" y="537" on="0"/>
        <pt x="531" y="520" on="1"/>
        <pt x="531" y="502" on="0"/>
        <pt x="498" y="472" on="0"/>
        <pt x="466" y="453" on="1"/>
        <pt x="430" y="434" on="1"/>
        <pt x="447" y="413" on="0"/>
        <pt x="467" y="358" on="0"/>
        <pt x="467" y="326" on="1"/>
        <pt x="467" y="295" on="0"/>
        <pt x="448" y="240" on="0"/>
        <pt x="431" y="219" on="1"/>
        <pt x="466" y="199" on="1"/>
        <pt x="498" y="181" on="0"/>
        <pt x="531" y="151" on="0"/>
        <pt x="531" y="133" on="1"/>
        <pt x="531" y="117" on="0"/>
        <pt x="507" y="92" on="0"/>
        <pt x="490" y="92" on="1"/>
        <pt x="472" y="92" on="0"/>
        <pt x="442" y="126" on="0"/>
        <pt x="423" y="157" on="1"/>
        <pt x="404" y="193" on="1"/>
        <pt x="357" y="157" on="0"/>
        <pt x="296" y="157" on="1"/>
        <pt x="266" y="157" on="0"/>
        <pt x="212" y="176" on="0"/>
        <pt x="189" y="192" on="1"/>
        <pt x="169" y="157" on="1"/>
        <pt x="151" y="126" on="0"/>
        <pt x="121" y="92" on="0"/>
        <pt x="103" y="92" on="1"/>
        <pt x="87" y="92" on="0"/>
        <pt x="62" y="116" on="0"/>
        <pt x="62" y="133" on="1"/>
        <pt x="62" y="151" on="0"/>
        <pt x="96" y="181" on="0"/>
        <pt x="127" y="199" on="1"/>
        <pt x="162" y="219" on="1"/>
        <pt x="145" y="240" on="0"/>
        <pt x="125" y="294" on="0"/>
      </contour>
    </TTGlyph>
    <TTGlyph name="d" xMin="47" yMin="-14" xMax="564" yMax="730">
      <contour>
        <pt x="157" y="164" on="1"/>
        <pt x="157" y="115" on="0"/>
        <pt x="191" y="72" on="0"/>
        <pt x="217" y="72" on="1"/>
        <pt x="241" y="72" on="0"/>
        <pt x="298" y="109" on="0"/>
        <pt x="335" y="149" on="1"/>
        <pt x="387" y="404" on="1"/>
        <pt x="361" y="423" on="0"/>
        <pt x="329" y="423" on="1"/>
        <pt x="304" y="423" on="0"/>
        <pt x="253" y="397" on="0"/>
        <pt x="234" y="376" on="1"/>
        <pt x="211" y="353" on="0"/>
        <pt x="176" y="281" on="0"/>
        <pt x="157" y="201" on="0"/>
      </contour>
      <contour>
        <pt x="439" y="138" on="1"/>
        <pt x="435" y="120" on="0"/>
        <pt x="431" y="95" on="0"/>
        <pt x="431" y="87" on="1"/>
        <pt x="431" y="77" on="0"/>
        <pt x="443" y="66" on="0"/>
        <pt x="451" y="66" on="1"/>
        <pt x="467" y="66" on="0"/>
        <pt x="513" y="102" on="0"/>
        <pt x="537" y="133" on="1"/>
        <pt x="564" y="113" on="1"/>
        <pt x="545" y="81" on="0"/>
        <pt x="489" y="23" on="0"/>
        <pt x="424" y="-14" on="0"/>
        <pt x="388" y="-14" on="1"/>
        <pt x="358" y="-14" on="0"/>
        <pt x="322" y="22" on="0"/>
        <pt x="322" y="53" on="1"/>
        <pt x="322" y="70" on="0"/>
        <pt x="325" y="97" on="1"/>
        <pt x="283" y="48" on="0"/>
        <pt x="186" y="-14" on="0"/>
        <pt x="144" y="-14" on="1"/>
        <pt x="106" y="-14" on="0"/>
        <pt x="47" y="47" on="0"/>
        <pt x="47" y="120" on="1"/>
        <pt x="47" y="171" on="0"/>
        <pt x="85" y="276" on="0"/>
        <pt x="151" y="373" on="0"/>
        <pt x="234" y="449" on="0"/>
        <pt x="323" y="493" on="0"/>
        <pt x="366" y="493" on="1"/>
        <pt x="388" y="493" on="0"/>
        <pt x="409" y="484" on="1"/>
        <pt x="438" y="632" on="1"/>
        <pt x="349" y="640" on="1"/>
        <pt x="354" y="673" on="1"/>
        <pt x="546" y="730" on="1"/>
        <pt x="560" y="720" on="1"/>
      </contour>
    </TTGlyph>
    <TTGlyph name="d.sups" xMin="109" yMin="409" xMax="462" yMax="893">
      <contour>
        <pt x="186" y="529" on="1"/>
        <pt x="186" y="498" on="0"/>
        <pt x="209" y="470" on="0"/>
        <pt x="227" y="470" on="1"/>
        <pt x="259" y="470" on="0"/>
        <pt x="304" y="514" on="1"/>
        <pt x="339" y="684" on="1"/>
        <pt x="321" y="695" on="0"/>
        <pt x="299" y="695" on="1"/>
        <pt x="267" y="695" on="0"/>
        <pt x="215" y="647" on="0"/>
        <pt x="186" y="572" on="0"/>
      </contour>
      <contour>
        <pt x="377" y="509" on="1"/>
        <pt x="372" y="484" on="0"/>
        <pt x="375" y="464" on="0"/>
        <pt x="386" y="464" on="1"/>
        <pt x="396" y="464" on="0"/>
        <pt x="427" y="486" on="0"/>
        <pt x="443" y="507" on="1"/>
        <pt x="462" y="494" on="1"/>
        <pt x="442" y="460" on="0"/>
        <pt x="378" y="409" on="0"/>
        <pt x="342" y="409" on="1"/>
        <pt x="321" y="409" on="0"/>
        <pt x="297" y="436" on="0"/>
        <pt x="297" y="458" on="1"/>
        <pt x="297" y="463" on="0"/>
        <pt x="297" y="472" on="0"/>
        <pt x="298" y="477" on="1"/>
        <pt x="270" y="447" on="0"/>
        <pt x="204" y="409" on="0"/>
        <pt x="175" y="409" on="1"/>
        <pt x="149" y="409" on="0"/>
        <pt x="109" y="449" on="0"/>
        <pt x="109" y="499" on="1"/>
        <pt x="109" y="541" on="0"/>
        <pt x="148" y="627" on="0"/>
        <pt x="212" y="699" on="0"/>
        <pt x="288" y="742" on="0"/>
        <pt x="325" y="742" on="1"/>
        <pt x="333" y="742" on="0"/>
        <pt x="346" y="740" on="0"/>
        <pt x="353" y="737" on="1"/>
        <pt x="370" y="825" on="1"/>
        <pt x="311" y="830" on="1"/>
        <pt x="314" y="853" on="1"/>
        <pt x="446" y="893" on="1"/>
        <pt x="455" y="885" on="1"/>
      </contour>
    </TTGlyph>
    <TTGlyph name="dagger" xMin="80" yMin="-87" xMax="531" yMax="717">
      <contour>
        <pt x="352" y="717" on="1"/>
        <pt x="372" y="717" on="0"/>
        <pt x="392" y="698" on="0"/>
        <pt x="392" y="675" on="1"/>
        <pt x="392" y="662" on="0"/>
        <pt x="377" y="618" on="0"/>
        <pt x="357" y="571" on="0"/>
        <pt x="349" y="551" on="1"/>
        <pt x="325" y="499" on="1"/>
        <pt x="376" y="513" on="1"/>
        <pt x="401" y="521" on="0"/>
        <pt x="461" y="534" on="0"/>
        <pt x="481" y="534" on="1"/>
        <pt x="531" y="534" on="0"/>
        <pt x="531" y="495" on="1"/>
        <pt x="531" y="467" on="0"/>
        <pt x="495" y="435" on="0"/>
        <pt x="464" y="435" on="1"/>
        <pt x="443" y="435" on="0"/>
        <pt x="386" y="448" on="0"/>
        <pt x="363" y="455" on="1"/>
        <pt x="320" y="468" on="1"/>
        <pt x="323" y="431" on="0"/>
        <pt x="326" y="379" on="0"/>
        <pt x="324" y="357" on="1"/>
        <pt x="323" y="319" on="0"/>
        <pt x="311" y="271" on="1"/>
        <pt x="305" y="240" on="0"/>
        <pt x="281" y="148" on="0"/>
        <pt x="244" y="12" on="0"/>
        <pt x="216" y="-87" on="1"/>
        <pt x="185" y="-87" on="1"/>
        <pt x="200" y="45" on="0"/>
        <pt x="220" y="210" on="0"/>
        <pt x="224" y="245" on="1"/>
        <pt x="229" y="285" on="0"/>
        <pt x="242" y="352" on="0"/>
        <pt x="267" y="423" on="0"/>
        <pt x="289" y="469" on="1"/>
        <pt x="239" y="456" on="1"/>
        <pt x="212" y="449" on="0"/>
        <pt x="150" y="435" on="0"/>
        <pt x="129" y="435" on="1"/>
        <pt x="80" y="435" on="0"/>
        <pt x="80" y="476" on="1"/>
        <pt x="80" y="505" on="0"/>
        <pt x="118" y="535" on="0"/>
        <pt x="146" y="535" on="1"/>
        <pt x="166" y="535" on="0"/>
        <pt x="224" y="521" on="0"/>
        <pt x="247" y="514" on="1"/>
        <pt x="295" y="500" on="1"/>
        <pt x="292" y="551" on="1"/>
        <pt x="291" y="581" on="0"/>
        <pt x="290" y="635" on="0"/>
        <pt x="294" y="659" on="1"/>
        <pt x="296" y="685" on="0"/>
        <pt x="329" y="717" on="0"/>
      </contour>
    </TTGlyph>
    <TTGlyph name="daggerdbl" xMin="24" yMin="-97" xMax="531" yMax="717">
      <contour>
        <pt x="351" y="717" on="1"/>
        <pt x="371" y="717" on="0"/>
        <pt x="392" y="698" on="0"/>
        <pt x="392" y="675" on="1"/>
        <pt x="392" y="662" on="0"/>
        <pt x="377" y="618" on="0"/>
        <pt x="356" y="571" on="0"/>
        <pt x="348" y="551" on="1"/>
        <pt x="325" y="499" on="1"/>
        <pt x="375" y="513" on="1"/>
        <pt x="401" y="521" on="0"/>
        <pt x="461" y="534" on="0"/>
        <pt x="480" y="534" on="1"/>
        <pt x="531" y="534" on="0"/>
        <pt x="531" y="495" on="1"/>
        <pt x="531" y="467" on="0"/>
        <pt x="495" y="435" on="0"/>
        <pt x="463" y="435" on="1"/>
        <pt x="443" y="435" on="0"/>
        <pt x="386" y="448" on="0"/>
        <pt x="363" y="455" on="1"/>
        <pt x="318" y="469" on="1"/>
        <pt x="324" y="432" on="0"/>
        <pt x="329" y="380" on="0"/>
        <pt x="328" y="336" on="0"/>
        <pt x="323" y="311" on="1"/>
        <pt x="317" y="275" on="0"/>
        <pt x="292" y="207" on="0"/>
        <pt x="263" y="151" on="1"/>
        <pt x="317" y="165" on="1"/>
        <pt x="343" y="172" on="0"/>
        <pt x="405" y="186" on="0"/>
        <pt x="427" y="186" on="1"/>
        <pt x="477" y="186" on="0"/>
        <pt x="477" y="144" on="1"/>
        <pt x="477" y="116" on="0"/>
        <pt x="439" y="86" on="0"/>
        <pt x="410" y="86" on="1"/>
        <pt x="389" y="86" on="0"/>
        <pt x="332" y="100" on="0"/>
        <pt x="309" y="106" on="1"/>
        <pt x="260" y="121" on="1"/>
        <pt x="263" y="69" on="1"/>
        <pt x="265" y="39" on="0"/>
        <pt x="266" y="-15" on="0"/>
        <pt x="262" y="-39" on="1"/>
        <pt x="260" y="-65" on="0"/>
        <pt x="227" y="-97" on="0"/>
        <pt x="204" y="-97" on="1"/>
        <pt x="184" y="-97" on="0"/>
        <pt x="163" y="-78" on="0"/>
        <pt x="163" y="-55" on="1"/>
        <pt x="163" y="-41" on="0"/>
        <pt x="178" y="2" on="0"/>
        <pt x="199" y="50" on="0"/>
        <pt x="207" y="69" on="1"/>
        <pt x="230" y="122" on="1"/>
        <pt x="180" y="107" on="1"/>
        <pt x="155" y="100" on="0"/>
        <pt x="95" y="86" on="0"/>
        <pt x="75" y="86" on="1"/>
        <pt x="50" y="86" on="0"/>
        <pt x="24" y="108" on="0"/>
        <pt x="24" y="127" on="1"/>
        <pt x="24" y="155" on="0"/>
        <pt x="61" y="186" on="0"/>
        <pt x="92" y="186" on="1"/>
        <pt x="113" y="186" on="0"/>
        <pt x="169" y="173" on="0"/>
        <pt x="193" y="165" on="1"/>
        <pt x="236" y="152" on="1"/>
        <pt x="230" y="191" on="0"/>
        <pt x="225" y="244" on="0"/>
        <pt x="227" y="287" on="0"/>
        <pt x="231" y="311" on="1"/>
        <pt x="235" y="336" on="0"/>
        <pt x="248" y="379" on="0"/>
        <pt x="272" y="432" on="0"/>
        <pt x="291" y="470" on="1"/>
        <pt x="238" y="456" on="1"/>
        <pt x="212" y="449" on="0"/>
        <pt x="150" y="435" on="0"/>
        <pt x="128" y="435" on="1"/>
        <pt x="78" y="435" on="0"/>
        <pt x="78" y="476" on="1"/>
        <pt x="78" y="505" on="0"/>
        <pt x="117" y="535" on="0"/>
        <pt x="145" y="535" on="1"/>
        <pt x="166" y="535" on="0"/>
        <pt x="224" y="521" on="0"/>
        <pt x="247" y="514" on="1"/>
        <pt x="295" y="500" on="1"/>
        <pt x="292" y="551" on="1"/>
        <pt x="291" y="581" on="0"/>
        <pt x="290" y="635" on="0"/>
        <pt x="294" y="659" on="1"/>
        <pt x="296" y="685" on="0"/>
        <pt x="329" y="717" on="0"/>
      </contour>
    </TTGlyph>
    <TTGlyph name="dcaron" xMin="47" yMin="-14" xMax="726" yMax="746">
      <contour>
        <pt x="686" y="746" on="1"/>
        <pt x="710" y="746" on="0"/>
        <pt x="726" y="724" on="0"/>
        <pt x="726" y="713" on="1"/>
        <pt x="726" y="688" on="0"/>
        <pt x="692" y="616" on="0"/>
        <pt x="673" y="581" on="1"/>
        <pt x="634" y="511" on="1"/>
        <pt x="595" y="515" on="1"/>
        <pt x="640" y="736" on="1"/>
        <pt x="653" y="742" on="0"/>
        <pt x="673" y="746" on="0"/>
      </contour>
      <contour>
        <pt x="157" y="164" on="1"/>
        <pt x="157" y="115" on="0"/>
        <pt x="191" y="72" on="0"/>
        <pt x="217" y="72" on="1"/>
        <pt x="241" y="72" on="0"/>
        <pt x="298" y="109" on="0"/>
        <pt x="335" y="149" on="1"/>
        <pt x="387" y="404" on="1"/>
        <pt x="361" y="423" on="0"/>
        <pt x="329" y="423" on="1"/>
        <pt x="304" y="423" on="0"/>
        <pt x="253" y="397" on="0"/>
        <pt x="234" y="376" on="1"/>
        <pt x="211" y="353" on="0"/>
        <pt x="176" y="281" on="0"/>
        <pt x="157" y="201" on="0"/>
      </contour>
      <contour>
        <pt x="439" y="138" on="1"/>
        <pt x="435" y="120" on="0"/>
        <pt x="431" y="95" on="0"/>
        <pt x="431" y="87" on="1"/>
        <pt x="431" y="77" on="0"/>
        <pt x="443" y="66" on="0"/>
        <pt x="451" y="66" on="1"/>
        <pt x="467" y="66" on="0"/>
        <pt x="513" y="102" on="0"/>
        <pt x="537" y="133" on="1"/>
        <pt x="564" y="113" on="1"/>
        <pt x="545" y="81" on="0"/>
        <pt x="489" y="23" on="0"/>
        <pt x="424" y="-14" on="0"/>
        <pt x="388" y="-14" on="1"/>
        <pt x="358" y="-14" on="0"/>
        <pt x="322" y="22" on="0"/>
        <pt x="322" y="53" on="1"/>
        <pt x="322" y="70" on="0"/>
        <pt x="325" y="97" on="1"/>
        <pt x="283" y="48" on="0"/>
        <pt x="186" y="-14" on="0"/>
        <pt x="144" y="-14" on="1"/>
        <pt x="106" y="-14" on="0"/>
        <pt x="47" y="47" on="0"/>
        <pt x="47" y="120" on="1"/>
        <pt x="47" y="171" on="0"/>
        <pt x="85" y="276" on="0"/>
        <pt x="151" y="373" on="0"/>
        <pt x="234" y="449" on="0"/>
        <pt x="323" y="493" on="0"/>
        <pt x="366" y="493" on="1"/>
        <pt x="388" y="493" on="0"/>
        <pt x="409" y="484" on="1"/>
        <pt x="438" y="632" on="1"/>
        <pt x="349" y="640" on="1"/>
        <pt x="354" y="673" on="1"/>
        <pt x="546" y="730" on="1"/>
        <pt x="560" y="720" on="1"/>
      </contour>
    </TTGlyph>
    <TTGlyph name="dcroat" xMin="47" yMin="-14" xMax="626" yMax="730">
      <contour>
        <pt x="157" y="164" on="1"/>
        <pt x="157" y="115" on="0"/>
        <pt x="191" y="72" on="0"/>
        <pt x="217" y="72" on="1"/>
        <pt x="241" y="72" on="0"/>
        <pt x="298" y="109" on="0"/>
        <pt x="335" y="149" on="1"/>
        <pt x="384" y="387" on="1"/>
        <pt x="359" y="405" on="0"/>
        <pt x="328" y="405" on="1"/>
        <pt x="302" y="405" on="0"/>
        <pt x="252" y="379" on="0"/>
        <pt x="232" y="358" on="1"/>
        <pt x="200" y="324" on="0"/>
        <pt x="157" y="216" on="0"/>
      </contour>
      <contour>
        <pt x="439" y="138" on="1"/>
        <pt x="435" y="120" on="0"/>
        <pt x="431" y="95" on="0"/>
        <pt x="431" y="87" on="1"/>
        <pt x="431" y="77" on="0"/>
        <pt x="443" y="66" on="0"/>
        <pt x="451" y="66" on="1"/>
        <pt x="467" y="66" on="0"/>
        <pt x="513" y="102" on="0"/>
        <pt x="537" y="133" on="1"/>
        <pt x="564" y="113" on="1"/>
        <pt x="545" y="81" on="0"/>
        <pt x="489" y="23" on="0"/>
        <pt x="424" y="-14" on="0"/>
        <pt x="388" y="-14" on="1"/>
        <pt x="358" y="-14" on="0"/>
        <pt x="322" y="22" on="0"/>
        <pt x="322" y="53" on="1"/>
        <pt x="322" y="70" on="0"/>
        <pt x="325" y="97" on="1"/>
        <pt x="283" y="48" on="0"/>
        <pt x="186" y="-14" on="0"/>
        <pt x="144" y="-14" on="1"/>
        <pt x="106" y="-14" on="0"/>
        <pt x="47" y="47" on="0"/>
        <pt x="47" y="120" on="1"/>
        <pt x="47" y="169" on="0"/>
        <pt x="85" y="269" on="0"/>
        <pt x="151" y="361" on="0"/>
        <pt x="233" y="433" on="0"/>
        <pt x="322" y="475" on="0"/>
        <pt x="365" y="475" on="1"/>
        <pt x="387" y="475" on="0"/>
        <pt x="404" y="468" on="1"/>
        <pt x="418" y="533" on="1"/>
        <pt x="268" y="533" on="1"/>
        <pt x="276" y="572" on="1"/>
        <pt x="426" y="572" on="1"/>
        <pt x="438" y="633" on="1"/>
        <pt x="349" y="640" on="1"/>
        <pt x="354" y="673" on="1"/>
        <pt x="546" y="730" on="1"/>
        <pt x="560" y="720" on="1"/>
        <pt x="529" y="572" on="1"/>
        <pt x="626" y="572" on="1"/>
        <pt x="618" y="533" on="1"/>
        <pt x="521" y="533" on="1"/>
      </contour>
    </TTGlyph>
    <TTGlyph name="degree" xMin="114" yMin="418" xMax="373" yMax="680">
      <contour>
        <pt x="244" y="460" on="1"/>
        <pt x="279" y="460" on="0"/>
        <pt x="326" y="509" on="0"/>
        <pt x="326" y="548" on="1"/>
        <pt x="326" y="588" on="0"/>
        <pt x="279" y="639" on="0"/>
        <pt x="244" y="639" on="1"/>
        <pt x="209" y="639" on="0"/>
        <pt x="161" y="588" on="0"/>
        <pt x="161" y="548" on="1"/>
        <pt x="161" y="509" on="0"/>
        <pt x="209" y="460" on="0"/>
      </contour>
      <contour>
        <pt x="244" y="418" on="1"/>
        <pt x="192" y="418" on="0"/>
        <pt x="114" y="488" on="0"/>
        <pt x="114" y="548" on="1"/>
        <pt x="114" y="589" on="0"/>
        <pt x="150" y="648" on="0"/>
        <pt x="209" y="680" on="0"/>
        <pt x="244" y="680" on="1"/>
        <pt x="279" y="680" on="0"/>
        <pt x="337" y="648" on="0"/>
        <pt x="373" y="589" on="0"/>
        <pt x="373" y="548" on="1"/>
        <pt x="373" y="508" on="0"/>
        <pt x="337" y="450" on="0"/>
        <pt x="279" y="418" on="0"/>
      </contour>
    </TTGlyph>
    <TTGlyph name="dieresis" xMin="130" yMin="609" xMax="460" yMax="732">
      <component glyphName="uni0308" x="193" y="0" flags="0x4"/>
    </TTGlyph>
    <TTGlyph name="dieresiscmb.cap" xMin="-45" yMin="732" xMax="298" yMax="849">
      <contour>
        <pt x="8" y="732" on="1"/>
        <pt x="-12" y="732" on="0"/>
        <pt x="-45" y="759" on="0"/>
        <pt x="-45" y="784" on="1"/>
        <pt x="-45" y="815" on="0"/>
        <pt x="-4" y="849" on="0"/>
        <pt x="19" y="849" on="1"/>
        <pt x="42" y="849" on="0"/>
        <pt x="72" y="821" on="0"/>
        <pt x="72" y="799" on="1"/>
        <pt x="72" y="768" on="0"/>
        <pt x="34" y="732" on="0"/>
      </contour>
      <contour>
        <pt x="233" y="732" on="1"/>
        <pt x="214" y="732" on="0"/>
        <pt x="181" y="759" on="0"/>
        <pt x="181" y="784" on="1"/>
        <pt x="181" y="815" on="0"/>
        <pt x="222" y="849" on="0"/>
        <pt x="245" y="849" on="1"/>
        <pt x="268" y="849" on="0"/>
        <pt x="298" y="821" on="0"/>
        <pt x="298" y="799" on="1"/>
        <pt x="298" y="768" on="0"/>
        <pt x="259" y="732" on="0"/>
      </contour>
    </TTGlyph>
    <TTGlyph name="divide" xMin="60" yMin="71" xMax="510" yMax="582">
      <contour>
        <pt x="285" y="71" on="1"/>
        <pt x="258" y="71" on="0"/>
        <pt x="219" y="107" on="0"/>
        <pt x="219" y="135" on="1"/>
        <pt x="219" y="164" on="0"/>
        <pt x="258" y="200" on="0"/>
        <pt x="285" y="200" on="1"/>
        <pt x="313" y="200" on="0"/>
        <pt x="352" y="164" on="0"/>
        <pt x="352" y="135" on="1"/>
        <pt x="352" y="107" on="0"/>
        <pt x="313" y="71" on="0"/>
      </contour>
      <contour>
        <pt x="285" y="453" on="1"/>
        <pt x="258" y="453" on="0"/>
        <pt x="219" y="490" on="0"/>
        <pt x="219" y="518" on="1"/>
        <pt x="219" y="547" on="0"/>
        <pt x="258" y="582" on="0"/>
        <pt x="285" y="582" on="1"/>
        <pt x="313" y="582" on="0"/>
        <pt x="352" y="547" on="0"/>
        <pt x="352" y="518" on="1"/>
        <pt x="352" y="490" on="0"/>
        <pt x="313" y="453" on="0"/>
      </contour>
      <contour>
        <pt x="510" y="293" on="1"/>
        <pt x="60" y="293" on="1"/>
        <pt x="60" y="360" on="1"/>
        <pt x="510" y="360" on="1"/>
      </contour>
    </TTGlyph>
    <TTGlyph name="dollar" xMin="52" yMin="-115" xMax="530" yMax="743">
      <contour>
        <pt x="183" y="-115" on="1"/>
        <pt x="204" y="-12" on="1"/>
        <pt x="133" y="-7" on="0"/>
        <pt x="56" y="62" on="0"/>
        <pt x="52" y="132" on="1"/>
        <pt x="66" y="173" on="0"/>
        <pt x="102" y="173" on="1"/>
        <pt x="124" y="173" on="0"/>
        <pt x="152" y="144" on="0"/>
        <pt x="155" y="102" on="1"/>
        <pt x="159" y="42" on="1"/>
        <pt x="185" y="34" on="0"/>
        <pt x="213" y="32" on="1"/>
        <pt x="261" y="272" on="1"/>
        <pt x="239" y="286" on="1"/>
        <pt x="182" y="321" on="0"/>
        <pt x="123" y="401" on="0"/>
        <pt x="123" y="461" on="1"/>
        <pt x="123" y="511" on="0"/>
        <pt x="172" y="596" on="0"/>
        <pt x="268" y="650" on="0"/>
        <pt x="339" y="653" on="1"/>
        <pt x="358" y="743" on="1"/>
        <pt x="407" y="743" on="1"/>
        <pt x="388" y="652" on="1"/>
        <pt x="451" y="646" on="0"/>
        <pt x="525" y="581" on="0"/>
        <pt x="530" y="525" on="1"/>
        <pt x="521" y="475" on="0"/>
        <pt x="480" y="475" on="1"/>
        <pt x="461" y="475" on="0"/>
        <pt x="429" y="502" on="0"/>
        <pt x="427" y="542" on="1"/>
        <pt x="425" y="598" on="1"/>
        <pt x="399" y="605" on="0"/>
        <pt x="379" y="606" on="1"/>
        <pt x="331" y="371" on="1"/>
        <pt x="342" y="364" on="1"/>
        <pt x="388" y="336" on="0"/>
        <pt x="446" y="285" on="0"/>
        <pt x="474" y="225" on="0"/>
        <pt x="474" y="183" on="1"/>
        <pt x="474" y="101" on="0"/>
        <pt x="357" y="-7" on="0"/>
        <pt x="252" y="-12" on="1"/>
        <pt x="231" y="-115" on="1"/>
      </contour>
      <contour>
        <pt x="371" y="145" on="1"/>
        <pt x="371" y="183" on="0"/>
        <pt x="335" y="225" on="0"/>
        <pt x="304" y="245" on="1"/>
        <pt x="261" y="32" on="1"/>
        <pt x="314" y="38" on="0"/>
        <pt x="371" y="99" on="0"/>
      </contour>
      <contour>
        <pt x="223" y="498" on="1"/>
        <pt x="223" y="458" on="0"/>
        <pt x="258" y="416" on="0"/>
        <pt x="287" y="397" on="1"/>
        <pt x="330" y="606" on="1"/>
        <pt x="281" y="600" on="0"/>
        <pt x="223" y="546" on="0"/>
      </contour>
    </TTGlyph>
    <TTGlyph name="dotaccent" xMin="244" yMin="610" xMax="371" yMax="745">
      <component glyphName="uni0307" x="200" y="0" flags="0x4"/>
    </TTGlyph>
    <TTGlyph name="dotaccentcmb.cap" xMin="67" yMin="722" xMax="194" yMax="856">
      <contour>
        <pt x="126" y="722" on="1"/>
        <pt x="100" y="722" on="0"/>
        <pt x="67" y="755" on="0"/>
        <pt x="67" y="783" on="1"/>
        <pt x="67" y="814" on="0"/>
        <pt x="109" y="856" on="0"/>
        <pt x="136" y="856" on="1"/>
        <pt x="162" y="856" on="0"/>
        <pt x="194" y="822" on="0"/>
        <pt x="194" y="795" on="1"/>
        <pt x="194" y="765" on="0"/>
        <pt x="152" y="722" on="0"/>
      </contour>
    </TTGlyph>
    <TTGlyph name="dotlessi" xMin="62" yMin="-14" xMax="323" yMax="494">
      <contour>
        <pt x="79" y="45" on="1"/>
        <pt x="79" y="60" on="0"/>
        <pt x="86" y="104" on="0"/>
        <pt x="91" y="130" on="1"/>
        <pt x="147" y="396" on="1"/>
        <pt x="62" y="403" on="1"/>
        <pt x="67" y="436" on="1"/>
        <pt x="258" y="494" on="1"/>
        <pt x="273" y="482" on="1"/>
        <pt x="200" y="137" on="1"/>
        <pt x="192" y="103" on="0"/>
        <pt x="192" y="87" on="1"/>
        <pt x="192" y="77" on="0"/>
        <pt x="204" y="66" on="0"/>
        <pt x="211" y="66" on="1"/>
        <pt x="240" y="66" on="0"/>
        <pt x="295" y="133" on="1"/>
        <pt x="323" y="113" on="1"/>
        <pt x="302" y="82" on="0"/>
        <pt x="248" y="23" on="0"/>
        <pt x="184" y="-14" on="0"/>
        <pt x="144" y="-14" on="1"/>
        <pt x="116" y="-14" on="0"/>
        <pt x="79" y="16" on="0"/>
      </contour>
    </TTGlyph>
    <TTGlyph name="e" xMin="52" yMin="-14" xMax="450" yMax="493">
      <contour>
        <pt x="312" y="444" on="1"/>
        <pt x="290" y="444" on="0"/>
        <pt x="239" y="408" on="0"/>
        <pt x="193" y="346" on="0"/>
        <pt x="161" y="264" on="0"/>
        <pt x="158" y="219" on="1"/>
        <pt x="234" y="243" on="0"/>
        <pt x="321" y="301" on="0"/>
        <pt x="359" y="363" on="0"/>
        <pt x="359" y="390" on="1"/>
        <pt x="359" y="416" on="0"/>
        <pt x="332" y="444" on="0"/>
      </contour>
      <contour>
        <pt x="215" y="-14" on="1"/>
        <pt x="143" y="-14" on="0"/>
        <pt x="52" y="82" on="0"/>
        <pt x="52" y="173" on="1"/>
        <pt x="52" y="236" on="0"/>
        <pt x="95" y="351" on="0"/>
        <pt x="172" y="441" on="0"/>
        <pt x="273" y="493" on="0"/>
        <pt x="331" y="493" on="1"/>
        <pt x="388" y="493" on="0"/>
        <pt x="450" y="440" on="0"/>
        <pt x="450" y="393" on="1"/>
        <pt x="450" y="356" on="0"/>
        <pt x="392" y="278" on="0"/>
        <pt x="264" y="207" on="0"/>
        <pt x="158" y="178" on="1"/>
        <pt x="163" y="123" on="0"/>
        <pt x="215" y="72" on="0"/>
        <pt x="258" y="72" on="1"/>
        <pt x="304" y="72" on="0"/>
        <pt x="372" y="117" on="0"/>
        <pt x="394" y="145" on="1"/>
        <pt x="419" y="126" on="1"/>
        <pt x="399" y="90" on="0"/>
        <pt x="338" y="26" on="0"/>
        <pt x="261" y="-14" on="0"/>
      </contour>
    </TTGlyph>
    <TTGlyph name="e.sups" xMin="111" yMin="409" xMax="383" yMax="742">
      <contour>
        <pt x="288" y="708" on="1"/>
        <pt x="269" y="708" on="0"/>
        <pt x="223" y="668" on="0"/>
        <pt x="189" y="602" on="0"/>
        <pt x="186" y="562" on="1"/>
        <pt x="262" y="585" on="0"/>
        <pt x="319" y="648" on="0"/>
        <pt x="319" y="675" on="1"/>
        <pt x="319" y="692" on="0"/>
        <pt x="302" y="708" on="0"/>
      </contour>
      <contour>
        <pt x="224" y="409" on="1"/>
        <pt x="175" y="409" on="0"/>
        <pt x="111" y="473" on="0"/>
        <pt x="111" y="531" on="1"/>
        <pt x="111" y="587" on="0"/>
        <pt x="161" y="683" on="0"/>
        <pt x="247" y="742" on="0"/>
        <pt x="301" y="742" on="1"/>
        <pt x="340" y="742" on="0"/>
        <pt x="383" y="706" on="0"/>
        <pt x="383" y="675" on="1"/>
        <pt x="383" y="636" on="0"/>
        <pt x="293" y="561" on="0"/>
        <pt x="187" y="535" on="1"/>
        <pt x="191" y="502" on="0"/>
        <pt x="227" y="471" on="0"/>
        <pt x="255" y="471" on="1"/>
        <pt x="287" y="471" on="0"/>
        <pt x="332" y="499" on="0"/>
        <pt x="347" y="518" on="1"/>
        <pt x="364" y="505" on="1"/>
        <pt x="343" y="468" on="0"/>
        <pt x="271" y="409" on="0"/>
      </contour>
    </TTGlyph>
    <TTGlyph name="eacute" xMin="52" yMin="-14" xMax="495" yMax="771">
      <component glyphName="e" x="0" y="0" flags="0x204"/>
      <component glyphName="uni0301" x="256" y="0" flags="0x4"/>
    </TTGlyph>
    <TTGlyph name="eacute.sups" xMin="111" yMin="409" xMax="419" yMax="927">
      <contour>
        <pt x="298" y="783" on="1"/>
        <pt x="340" y="884" on="1"/>
        <pt x="350" y="908" on="0"/>
        <pt x="372" y="927" on="0"/>
        <pt x="386" y="927" on="1"/>
        <pt x="399" y="927" on="0"/>
        <pt x="419" y="909" on="0"/>
        <pt x="419" y="893" on="1"/>
        <pt x="419" y="870" on="0"/>
        <pt x="393" y="844" on="1"/>
        <pt x="320" y="768" on="1"/>
      </contour>
      <contour>
        <pt x="288" y="708" on="1"/>
        <pt x="269" y="708" on="0"/>
        <pt x="223" y="668" on="0"/>
        <pt x="189" y="602" on="0"/>
        <pt x="186" y="562" on="1"/>
        <pt x="262" y="585" on="0"/>
        <pt x="319" y="648" on="0"/>
        <pt x="319" y="675" on="1"/>
        <pt x="319" y="692" on="0"/>
        <pt x="302" y="708" on="0"/>
      </contour>
      <contour>
        <pt x="224" y="409" on="1"/>
        <pt x="175" y="409" on="0"/>
        <pt x="111" y="473" on="0"/>
        <pt x="111" y="531" on="1"/>
        <pt x="111" y="587" on="0"/>
        <pt x="161" y="683" on="0"/>
        <pt x="247" y="742" on="0"/>
        <pt x="301" y="742" on="1"/>
        <pt x="340" y="742" on="0"/>
        <pt x="383" y="706" on="0"/>
        <pt x="383" y="675" on="1"/>
        <pt x="383" y="636" on="0"/>
        <pt x="293" y="561" on="0"/>
        <pt x="187" y="535" on="1"/>
        <pt x="191" y="502" on="0"/>
        <pt x="227" y="471" on="0"/>
        <pt x="255" y="471" on="1"/>
        <pt x="287" y="471" on="0"/>
        <pt x="332" y="499" on="0"/>
        <pt x="347" y="518" on="1"/>
        <pt x="364" y="505" on="1"/>
        <pt x="343" y="468" on="0"/>
        <pt x="271" y="409" on="0"/>
      </contour>
    </TTGlyph>
    <TTGlyph name="ecaron" xMin="52" yMin="-14" xMax="520" yMax="760">
      <component glyphName="e" x="0" y="0" flags="0x204"/>
      <component glyphName="uni030C" x="256" y="0" flags="0x4"/>
    </TTGlyph>
    <TTGlyph name="ecircumflex" xMin="52" yMin="-14" xMax="493" yMax="748">
      <component glyphName="e" x="0" y="0" flags="0x204"/>
      <component glyphName="uni0302" x="248" y="0" flags="0x4"/>
    </TTGlyph>
    <TTGlyph name="edieresis" xMin="52" yMin="-14" xMax="518" yMax="732">
      <component glyphName="e" x="0" y="0" flags="0x204"/>
      <component glyphName="uni0308" x="251" y="0" flags="0x4"/>
    </TTGlyph>
    <TTGlyph name="edotaccent" xMin="52" yMin="-14" xMax="450" yMax="745">
      <component glyphName="e" x="0" y="0" flags="0x204"/>
      <component glyphName="uni0307" x="249" y="0" flags="0x4"/>
    </TTGlyph>
    <TTGlyph name="egrave" xMin="52" yMin="-14" xMax="450" yMax="772">
      <component glyphName="e" x="0" y="0" flags="0x204"/>
      <component glyphName="uni0300" x="276" y="0" flags="0x4"/>
    </TTGlyph>
    <TTGlyph name="egrave.sups" xMin="111" yMin="409" xMax="383" yMax="927">
      <contour>
        <pt x="318" y="783" on="1"/>
        <pt x="296" y="768" on="1"/>
        <pt x="222" y="845" on="1"/>
        <pt x="195" y="870" on="0"/>
        <pt x="195" y="894" on="1"/>
        <pt x="195" y="909" on="0"/>
        <pt x="217" y="927" on="0"/>
        <pt x="230" y="927" on="1"/>
        <pt x="244" y="927" on="0"/>
        <pt x="266" y="908" on="0"/>
        <pt x="275" y="885" on="1"/>
      </contour>
      <contour>
        <pt x="288" y="708" on="1"/>
        <pt x="269" y="708" on="0"/>
        <pt x="223" y="668" on="0"/>
        <pt x="189" y="602" on="0"/>
        <pt x="186" y="562" on="1"/>
        <pt x="262" y="585" on="0"/>
        <pt x="319" y="648" on="0"/>
        <pt x="319" y="675" on="1"/>
        <pt x="319" y="692" on="0"/>
        <pt x="302" y="708" on="0"/>
      </contour>
      <contour>
        <pt x="224" y="409" on="1"/>
        <pt x="175" y="409" on="0"/>
        <pt x="111" y="473" on="0"/>
        <pt x="111" y="531" on="1"/>
        <pt x="111" y="587" on="0"/>
        <pt x="161" y="683" on="0"/>
        <pt x="247" y="742" on="0"/>
        <pt x="301" y="742" on="1"/>
        <pt x="340" y="742" on="0"/>
        <pt x="383" y="706" on="0"/>
        <pt x="383" y="675" on="1"/>
        <pt x="383" y="636" on="0"/>
        <pt x="293" y="561" on="0"/>
        <pt x="187" y="535" on="1"/>
        <pt x="191" y="502" on="0"/>
        <pt x="227" y="471" on="0"/>
        <pt x="255" y="471" on="1"/>
        <pt x="287" y="471" on="0"/>
        <pt x="332" y="499" on="0"/>
        <pt x="347" y="518" on="1"/>
        <pt x="364" y="505" on="1"/>
        <pt x="343" y="468" on="0"/>
        <pt x="271" y="409" on="0"/>
      </contour>
    </TTGlyph>
    <TTGlyph name="eight" xMin="63" yMin="-14" xMax="507" yMax="653">
      <component glyphName="eight.lf" x="0" y="0" flags="0x4"/>
    </TTGlyph>
    <TTGlyph name="eight.cap" xMin="63" yMin="-14" xMax="512" yMax="680">
      <contour>
        <pt x="232" y="524" on="1"/>
        <pt x="232" y="483" on="0"/>
        <pt x="273" y="418" on="0"/>
        <pt x="331" y="374" on="1"/>
        <pt x="390" y="411" on="0"/>
        <pt x="428" y="489" on="0"/>
        <pt x="428" y="535" on="1"/>
        <pt x="428" y="583" on="0"/>
        <pt x="382" y="636" on="0"/>
        <pt x="341" y="636" on="1"/>
        <pt x="291" y="636" on="0"/>
        <pt x="232" y="573" on="0"/>
      </contour>
      <contour>
        <pt x="241" y="-14" on="1"/>
        <pt x="158" y="-14" on="0"/>
        <pt x="63" y="61" on="0"/>
        <pt x="63" y="122" on="1"/>
        <pt x="63" y="184" on="0"/>
        <pt x="150" y="288" on="0"/>
        <pt x="226" y="320" on="1"/>
        <pt x="180" y="359" on="0"/>
        <pt x="136" y="443" on="0"/>
        <pt x="136" y="491" on="1"/>
        <pt x="136" y="544" on="0"/>
        <pt x="191" y="630" on="0"/>
        <pt x="286" y="680" on="0"/>
        <pt x="345" y="680" on="1"/>
        <pt x="398" y="680" on="0"/>
        <pt x="473" y="642" on="0"/>
        <pt x="512" y="580" on="0"/>
        <pt x="512" y="544" on="1"/>
        <pt x="512" y="480" on="0"/>
        <pt x="443" y="391" on="0"/>
        <pt x="361" y="353" on="1"/>
        <pt x="420" y="309" on="0"/>
        <pt x="467" y="227" on="0"/>
        <pt x="467" y="171" on="1"/>
        <pt x="467" y="118" on="0"/>
        <pt x="409" y="34" on="0"/>
        <pt x="307" y="-14" on="0"/>
      </contour>
      <contour>
        <pt x="150" y="134" on="1"/>
        <pt x="150" y="85" on="0"/>
        <pt x="201" y="30" on="0"/>
        <pt x="250" y="30" on="1"/>
        <pt x="301" y="30" on="0"/>
        <pt x="364" y="89" on="0"/>
        <pt x="364" y="140" on="1"/>
        <pt x="364" y="170" on="0"/>
        <pt x="346" y="217" on="0"/>
        <pt x="299" y="267" on="0"/>
        <pt x="254" y="299" on="1"/>
        <pt x="199" y="265" on="0"/>
        <pt x="150" y="183" on="0"/>
      </contour>
    </TTGlyph>
    <TTGlyph name="eight.dnom" xMin="35" yMin="-9" xMax="329" yMax="402">
      <component glyphName="eight.sups" x="-89" y="-419" flags="0x204"/>
    </TTGlyph>
    <TTGlyph name="eight.lf" xMin="63" yMin="-14" xMax="507" yMax="653">
      <contour>
        <pt x="227" y="501" on="1"/>
        <pt x="227" y="475" on="0"/>
        <pt x="246" y="434" on="0"/>
        <pt x="291" y="392" on="0"/>
        <pt x="329" y="364" on="1"/>
        <pt x="385" y="399" on="0"/>
        <pt x="423" y="470" on="0"/>
        <pt x="423" y="512" on="1"/>
        <pt x="423" y="557" on="0"/>
        <pt x="377" y="609" on="0"/>
        <pt x="335" y="609" on="1"/>
        <pt x="286" y="609" on="0"/>
        <pt x="227" y="548" on="0"/>
      </contour>
      <contour>
        <pt x="241" y="-14" on="1"/>
        <pt x="158" y="-14" on="0"/>
        <pt x="63" y="61" on="0"/>
        <pt x="63" y="122" on="1"/>
        <pt x="63" y="182" on="0"/>
        <pt x="150" y="278" on="0"/>
        <pt x="223" y="310" on="1"/>
        <pt x="177" y="347" on="0"/>
        <pt x="130" y="423" on="0"/>
        <pt x="130" y="468" on="1"/>
        <pt x="130" y="520" on="0"/>
        <pt x="186" y="603" on="0"/>
        <pt x="281" y="653" on="0"/>
        <pt x="339" y="653" on="1"/>
        <pt x="393" y="653" on="0"/>
        <pt x="468" y="616" on="0"/>
        <pt x="507" y="556" on="0"/>
        <pt x="507" y="521" on="1"/>
        <pt x="507" y="460" on="0"/>
        <pt x="438" y="379" on="0"/>
        <pt x="358" y="343" on="1"/>
        <pt x="417" y="300" on="0"/>
        <pt x="467" y="224" on="0"/>
        <pt x="467" y="171" on="1"/>
        <pt x="467" y="118" on="0"/>
        <pt x="409" y="34" on="0"/>
        <pt x="307" y="-14" on="0"/>
      </contour>
      <contour>
        <pt x="150" y="134" on="1"/>
        <pt x="150" y="85" on="0"/>
        <pt x="201" y="30" on="0"/>
        <pt x="250" y="30" on="1"/>
        <pt x="301" y="30" on="0"/>
        <pt x="364" y="89" on="0"/>
        <pt x="364" y="140" on="1"/>
        <pt x="364" y="169" on="0"/>
        <pt x="344" y="212" on="0"/>
        <pt x="296" y="258" on="0"/>
        <pt x="252" y="289" on="1"/>
        <pt x="198" y="257" on="0"/>
        <pt x="150" y="180" on="0"/>
      </contour>
    </TTGlyph>
    <TTGlyph name="eight.numr" xMin="88" yMin="241" xMax="382" yMax="652">
      <component glyphName="eight.sups" x="-36" y="-169" flags="0x204"/>
    </TTGlyph>
    <TTGlyph name="eight.osf" xMin="68" yMin="-13" xMax="505" yMax="653">
      <contour>
        <pt x="231" y="503" on="1"/>
        <pt x="231" y="467" on="0"/>
        <pt x="280" y="403" on="0"/>
        <pt x="331" y="360" on="1"/>
        <pt x="387" y="402" on="0"/>
        <pt x="422" y="476" on="0"/>
        <pt x="422" y="515" on="1"/>
        <pt x="422" y="560" on="0"/>
        <pt x="370" y="608" on="0"/>
        <pt x="329" y="608" on="1"/>
        <pt x="283" y="608" on="0"/>
        <pt x="231" y="548" on="0"/>
      </contour>
      <contour>
        <pt x="248" y="-13" on="1"/>
        <pt x="162" y="-13" on="0"/>
        <pt x="68" y="63" on="0"/>
        <pt x="68" y="119" on="1"/>
        <pt x="68" y="166" on="0"/>
        <pt x="115" y="237" on="0"/>
        <pt x="190" y="289" on="0"/>
        <pt x="232" y="307" on="1"/>
        <pt x="184" y="349" on="0"/>
        <pt x="131" y="428" on="0"/>
        <pt x="131" y="474" on="1"/>
        <pt x="131" y="528" on="0"/>
        <pt x="187" y="608" on="0"/>
        <pt x="278" y="653" on="0"/>
        <pt x="332" y="653" on="1"/>
        <pt x="386" y="653" on="0"/>
        <pt x="463" y="616" on="0"/>
        <pt x="505" y="555" on="0"/>
        <pt x="505" y="518" on="1"/>
        <pt x="505" y="461" on="0"/>
        <pt x="432" y="375" on="0"/>
        <pt x="358" y="339" on="1"/>
        <pt x="413" y="293" on="0"/>
        <pt x="469" y="212" on="0"/>
        <pt x="469" y="163" on="1"/>
        <pt x="469" y="87" on="0"/>
        <pt x="352" y="-13" on="0"/>
      </contour>
      <contour>
        <pt x="159" y="121" on="1"/>
        <pt x="159" y="81" on="0"/>
        <pt x="208" y="30" on="0"/>
        <pt x="254" y="30" on="1"/>
        <pt x="301" y="30" on="0"/>
        <pt x="363" y="86" on="0"/>
        <pt x="363" y="138" on="1"/>
        <pt x="363" y="164" on="0"/>
        <pt x="343" y="205" on="0"/>
        <pt x="298" y="251" on="0"/>
        <pt x="259" y="284" on="1"/>
        <pt x="159" y="220" on="0"/>
      </contour>
    </TTGlyph>
    <TTGlyph name="eight.subs" xMin="-9" yMin="-216" xMax="285" yMax="195">
      <component glyphName="eight.sups" x="-133" y="-626" flags="0x204"/>
    </TTGlyph>
    <TTGlyph name="eight.sups" xMin="124" yMin="410" xMax="418" yMax="821">
      <contour>
        <pt x="241" y="735" on="1"/>
        <pt x="241" y="714" on="0"/>
        <pt x="268" y="679" on="0"/>
        <pt x="306" y="650" on="1"/>
        <pt x="336" y="672" on="0"/>
        <pt x="355" y="712" on="0"/>
        <pt x="355" y="733" on="1"/>
        <pt x="355" y="760" on="0"/>
        <pt x="327" y="789" on="0"/>
        <pt x="302" y="789" on="1"/>
        <pt x="273" y="789" on="0"/>
        <pt x="241" y="758" on="0"/>
      </contour>
      <contour>
        <pt x="245" y="410" on="1"/>
        <pt x="190" y="410" on="0"/>
        <pt x="124" y="459" on="0"/>
        <pt x="124" y="496" on="1"/>
        <pt x="124" y="534" on="0"/>
        <pt x="177" y="589" on="0"/>
        <pt x="226" y="608" on="1"/>
        <pt x="197" y="631" on="0"/>
        <pt x="164" y="677" on="0"/>
        <pt x="164" y="708" on="1"/>
        <pt x="164" y="756" on="0"/>
        <pt x="242" y="821" on="0"/>
        <pt x="303" y="821" on="1"/>
        <pt x="359" y="821" on="0"/>
        <pt x="418" y="770" on="0"/>
        <pt x="418" y="739" on="1"/>
        <pt x="418" y="704" on="0"/>
        <pt x="375" y="655" on="0"/>
        <pt x="327" y="635" on="1"/>
        <pt x="366" y="604" on="0"/>
        <pt x="398" y="556" on="0"/>
        <pt x="398" y="524" on="1"/>
        <pt x="398" y="475" on="0"/>
        <pt x="316" y="410" on="0"/>
      </contour>
      <contour>
        <pt x="191" y="502" on="1"/>
        <pt x="191" y="474" on="0"/>
        <pt x="222" y="442" on="0"/>
        <pt x="249" y="442" on="1"/>
        <pt x="315" y="442" on="0"/>
        <pt x="315" y="503" on="1"/>
        <pt x="315" y="526" on="0"/>
        <pt x="286" y="562" on="0"/>
        <pt x="246" y="593" on="1"/>
        <pt x="215" y="573" on="0"/>
        <pt x="191" y="529" on="0"/>
      </contour>
    </TTGlyph>
    <TTGlyph name="eight.tosf" xMin="78" yMin="-13" xMax="515" yMax="653">
      <component glyphName="eight.osf" x="10" y="0" flags="0x4"/>
    </TTGlyph>
    <TTGlyph name="ellipsis" xMin="55" yMin="-12" xMax="822" yMax="138">
      <component glyphName="period" x="0" y="0" flags="0x4"/>
      <component glyphName="period" x="307" y="0" flags="0x4"/>
      <component glyphName="period" x="613" y="0" flags="0x4"/>
    </TTGlyph>
    <TTGlyph name="emacron" xMin="52" yMin="-14" xMax="492" yMax="677">
      <component glyphName="e" x="0" y="0" flags="0x204"/>
      <component glyphName="uni0304" x="262" y="0" flags="0x4"/>
    </TTGlyph>
    <TTGlyph name="emdash" xMin="53" yMin="214" xMax="798" yMax="291">
      <contour>
        <pt x="53" y="214" on="1"/>
        <pt x="53" y="291" on="1"/>
        <pt x="798" y="291" on="1"/>
        <pt x="798" y="214" on="1"/>
      </contour>
    </TTGlyph>
    <TTGlyph name="emdash.cap" xMin="65" yMin="267" xMax="810" yMax="344">
      <component glyphName="emdash" x="12" y="53" flags="0x204"/>
    </TTGlyph>
    <TTGlyph name="emdash.sups" xMin="106" yMin="549" xMax="589" yMax="606">
      <contour>
        <pt x="106" y="549" on="1"/>
        <pt x="106" y="606" on="1"/>
        <pt x="589" y="606" on="1"/>
        <pt x="589" y="549" on="1"/>
      </contour>
    </TTGlyph>
    <TTGlyph name="endash" xMin="53" yMin="214" xMax="498" yMax="291">
      <contour>
        <pt x="53" y="214" on="1"/>
        <pt x="53" y="291" on="1"/>
        <pt x="498" y="291" on="1"/>
        <pt x="498" y="214" on="1"/>
      </contour>
    </TTGlyph>
    <TTGlyph name="endash.cap" xMin="65" yMin="267" xMax="510" yMax="344">
      <component glyphName="endash" x="12" y="53" flags="0x204"/>
    </TTGlyph>
    <TTGlyph name="endash.sups" xMin="106" yMin="549" xMax="399" yMax="606">
      <contour>
        <pt x="106" y="549" on="1"/>
        <pt x="106" y="606" on="1"/>
        <pt x="398" y="606" on="1"/>
        <pt x="399" y="549" on="1"/>
      </contour>
    </TTGlyph>
    <TTGlyph name="eogonek" xMin="52" yMin="-237" xMax="450" yMax="493">
      <contour>
        <pt x="312" y="444" on="1"/>
        <pt x="290" y="444" on="0"/>
        <pt x="239" y="408" on="0"/>
        <pt x="193" y="346" on="0"/>
        <pt x="161" y="264" on="0"/>
        <pt x="158" y="219" on="1"/>
        <pt x="234" y="243" on="0"/>
        <pt x="321" y="301" on="0"/>
        <pt x="359" y="363" on="0"/>
        <pt x="359" y="390" on="1"/>
        <pt x="359" y="416" on="0"/>
        <pt x="332" y="444" on="0"/>
      </contour>
      <contour>
        <pt x="250" y="-237" on="1"/>
        <pt x="207" y="-237" on="0"/>
        <pt x="161" y="-195" on="0"/>
        <pt x="161" y="-160" on="1"/>
        <pt x="161" y="-119" on="0"/>
        <pt x="217" y="-46" on="0"/>
        <pt x="257" y="-9" on="1"/>
        <pt x="235" y="-14" on="0"/>
        <pt x="215" y="-14" on="1"/>
        <pt x="143" y="-14" on="0"/>
        <pt x="52" y="82" on="0"/>
        <pt x="52" y="173" on="1"/>
        <pt x="52" y="236" on="0"/>
        <pt x="95" y="351" on="0"/>
        <pt x="172" y="441" on="0"/>
        <pt x="273" y="493" on="0"/>
        <pt x="331" y="493" on="1"/>
        <pt x="388" y="493" on="0"/>
        <pt x="450" y="440" on="0"/>
        <pt x="450" y="393" on="1"/>
        <pt x="450" y="356" on="0"/>
        <pt x="392" y="278" on="0"/>
        <pt x="264" y="207" on="0"/>
        <pt x="158" y="178" on="1"/>
        <pt x="163" y="123" on="0"/>
        <pt x="215" y="72" on="0"/>
        <pt x="258" y="72" on="1"/>
        <pt x="304" y="72" on="0"/>
        <pt x="372" y="117" on="0"/>
        <pt x="394" y="145" on="1"/>
        <pt x="419" y="126" on="1"/>
        <pt x="386" y="71" on="0"/>
        <pt x="333" y="24" on="1"/>
        <pt x="290" y="-14" on="0"/>
        <pt x="239" y="-89" on="0"/>
        <pt x="239" y="-129" on="1"/>
        <pt x="239" y="-156" on="0"/>
        <pt x="266" y="-183" on="0"/>
        <pt x="286" y="-183" on="1"/>
        <pt x="303" y="-183" on="0"/>
        <pt x="339" y="-169" on="0"/>
        <pt x="354" y="-159" on="1"/>
        <pt x="368" y="-181" on="1"/>
        <pt x="349" y="-202" on="0"/>
        <pt x="287" y="-237" on="0"/>
      </contour>
    </TTGlyph>
    <TTGlyph name="equal" xMin="60" yMin="190" xMax="510" yMax="463">
      <component glyphName="minus" x="0" y="-103" flags="0x204"/>
      <component glyphName="minus" x="0" y="103" flags="0x4"/>
    </TTGlyph>
    <TTGlyph name="estimated" xMin="46" yMin="-12" xMax="754" yMax="660">
      <contour>
        <pt x="180" y="334" on="1"/>
        <pt x="620" y="334" on="1"/>
        <pt x="626" y="334" on="0"/>
        <pt x="626" y="340" on="1"/>
        <pt x="626" y="524" on="1"/>
        <pt x="626" y="536" on="0"/>
        <pt x="616" y="546" on="1"/>
        <pt x="574" y="590" on="0"/>
        <pt x="464" y="640" on="0"/>
        <pt x="402" y="640" on="1"/>
        <pt x="338" y="640" on="0"/>
        <pt x="226" y="587" on="0"/>
        <pt x="184" y="542" on="1"/>
        <pt x="181" y="538" on="0"/>
        <pt x="176" y="526" on="0"/>
        <pt x="176" y="520" on="1"/>
        <pt x="176" y="340" on="1"/>
        <pt x="176" y="334" on="0"/>
      </contour>
      <contour>
        <pt x="184" y="108" on="1"/>
        <pt x="225" y="62" on="0"/>
        <pt x="338" y="8" on="0"/>
        <pt x="402" y="8" on="1"/>
        <pt x="470" y="8" on="0"/>
        <pt x="588" y="69" on="0"/>
        <pt x="630" y="120" on="1"/>
        <pt x="682" y="120" on="1"/>
        <pt x="633" y="60" on="0"/>
        <pt x="486" y="-12" on="0"/>
        <pt x="400" y="-12" on="1"/>
        <pt x="327" y="-12" on="0"/>
        <pt x="198" y="40" on="0"/>
        <pt x="101" y="132" on="0"/>
        <pt x="46" y="254" on="0"/>
        <pt x="46" y="324" on="1"/>
        <pt x="46" y="394" on="0"/>
        <pt x="101" y="516" on="0"/>
        <pt x="198" y="608" on="0"/>
        <pt x="327" y="660" on="0"/>
        <pt x="400" y="660" on="1"/>
        <pt x="474" y="660" on="0"/>
        <pt x="602" y="608" on="0"/>
        <pt x="699" y="516" on="0"/>
        <pt x="754" y="394" on="0"/>
        <pt x="754" y="324" on="1"/>
        <pt x="754" y="316" on="1"/>
        <pt x="180" y="316" on="1"/>
        <pt x="176" y="316" on="0"/>
        <pt x="176" y="312" on="1"/>
        <pt x="176" y="128" on="1"/>
        <pt x="176" y="122" on="0"/>
        <pt x="181" y="113" on="0"/>
      </contour>
    </TTGlyph>
    <TTGlyph name="eth" xMin="50" yMin="-14" xMax="501" yMax="742">
      <contour>
        <pt x="233" y="-14" on="1"/>
        <pt x="153" y="-14" on="0"/>
        <pt x="50" y="82" on="0"/>
        <pt x="50" y="176" on="1"/>
        <pt x="50" y="242" on="0"/>
        <pt x="93" y="355" on="0"/>
        <pt x="166" y="439" on="0"/>
        <pt x="262" y="485" on="0"/>
        <pt x="314" y="485" on="1"/>
        <pt x="362" y="485" on="0"/>
        <pt x="391" y="459" on="1"/>
        <pt x="382" y="500" on="0"/>
        <pt x="354" y="569" on="0"/>
        <pt x="332" y="598" on="1"/>
        <pt x="204" y="532" on="1"/>
        <pt x="185" y="572" on="1"/>
        <pt x="302" y="634" on="1"/>
        <pt x="266" y="672" on="0"/>
        <pt x="209" y="704" on="1"/>
        <pt x="236" y="742" on="1"/>
        <pt x="272" y="728" on="0"/>
        <pt x="335" y="688" on="0"/>
        <pt x="361" y="665" on="1"/>
        <pt x="480" y="727" on="1"/>
        <pt x="501" y="685" on="1"/>
        <pt x="395" y="631" on="1"/>
        <pt x="446" y="573" on="0"/>
        <pt x="500" y="422" on="0"/>
        <pt x="500" y="333" on="1"/>
        <pt x="500" y="228" on="0"/>
        <pt x="427" y="72" on="0"/>
        <pt x="306" y="-14" on="0"/>
      </contour>
      <contour>
        <pt x="242" y="33" on="1"/>
        <pt x="285" y="33" on="0"/>
        <pt x="353" y="112" on="0"/>
        <pt x="393" y="244" on="0"/>
        <pt x="393" y="323" on="1"/>
        <pt x="393" y="387" on="0"/>
        <pt x="352" y="436" on="0"/>
        <pt x="317" y="436" on="1"/>
        <pt x="274" y="436" on="0"/>
        <pt x="204" y="364" on="0"/>
        <pt x="163" y="243" on="0"/>
        <pt x="163" y="170" on="1"/>
        <pt x="163" y="96" on="0"/>
        <pt x="207" y="33" on="0"/>
      </contour>
    </TTGlyph>
    <TTGlyph name="exclam" xMin="53" yMin="-13" xMax="311" yMax="680">
      <contour>
        <pt x="134" y="208" on="1"/>
        <pt x="144" y="353" on="1"/>
        <pt x="149" y="453" on="0"/>
        <pt x="160" y="573" on="0"/>
        <pt x="165" y="597" on="1"/>
        <pt x="176" y="644" on="0"/>
        <pt x="221" y="680" on="0"/>
        <pt x="252" y="680" on="1"/>
        <pt x="282" y="680" on="0"/>
        <pt x="311" y="648" on="0"/>
        <pt x="311" y="620" on="1"/>
        <pt x="311" y="603" on="0"/>
        <pt x="300" y="553" on="0"/>
        <pt x="270" y="465" on="0"/>
        <pt x="216" y="320" on="0"/>
        <pt x="173" y="208" on="1"/>
      </contour>
      <contour>
        <pt x="53" y="52" on="1"/>
        <pt x="53" y="85" on="0"/>
        <pt x="102" y="131" on="0"/>
        <pt x="133" y="131" on="1"/>
        <pt x="162" y="131" on="0"/>
        <pt x="199" y="91" on="0"/>
        <pt x="199" y="64" on="1"/>
        <pt x="199" y="32" on="0"/>
        <pt x="151" y="-13" on="0"/>
        <pt x="119" y="-13" on="1"/>
        <pt x="91" y="-13" on="0"/>
        <pt x="53" y="24" on="0"/>
      </contour>
    </TTGlyph>
    <TTGlyph name="exclamdown" xMin="13" yMin="-198" xMax="271" yMax="495">
      <contour>
        <pt x="190" y="274" on="1"/>
        <pt x="180" y="129" on="1"/>
        <pt x="176" y="29" on="0"/>
        <pt x="164" y="-91" on="0"/>
        <pt x="159" y="-115" on="1"/>
        <pt x="149" y="-162" on="0"/>
        <pt x="103" y="-198" on="0"/>
        <pt x="72" y="-198" on="1"/>
        <pt x="42" y="-198" on="0"/>
        <pt x="13" y="-166" on="0"/>
        <pt x="13" y="-138" on="1"/>
        <pt x="13" y="-121" on="0"/>
        <pt x="24" y="-71" on="0"/>
        <pt x="54" y="17" on="0"/>
        <pt x="108" y="162" on="0"/>
        <pt x="151" y="274" on="1"/>
      </contour>
      <contour>
        <pt x="271" y="430" on="1"/>
        <pt x="271" y="397" on="0"/>
        <pt x="223" y="351" on="0"/>
        <pt x="191" y="351" on="1"/>
        <pt x="162" y="351" on="0"/>
        <pt x="125" y="391" on="0"/>
        <pt x="125" y="418" on="1"/>
        <pt x="125" y="450" on="0"/>
        <pt x="174" y="495" on="0"/>
        <pt x="205" y="495" on="1"/>
        <pt x="234" y="495" on="0"/>
        <pt x="271" y="458" on="0"/>
      </contour>
    </TTGlyph>
    <TTGlyph name="exclamdown.cap" xMin="52" yMin="-14" xMax="310" yMax="679">
      <contour>
        <pt x="229" y="458" on="1"/>
        <pt x="219" y="313" on="1"/>
        <pt x="215" y="213" on="0"/>
        <pt x="203" y="93" on="0"/>
        <pt x="198" y="69" on="1"/>
        <pt x="188" y="22" on="0"/>
        <pt x="142" y="-14" on="0"/>
        <pt x="111" y="-14" on="1"/>
        <pt x="81" y="-14" on="0"/>
        <pt x="52" y="18" on="0"/>
        <pt x="52" y="46" on="1"/>
        <pt x="52" y="63" on="0"/>
        <pt x="63" y="113" on="0"/>
        <pt x="93" y="201" on="0"/>
        <pt x="147" y="346" on="0"/>
        <pt x="190" y="458" on="1"/>
      </contour>
      <contour>
        <pt x="310" y="614" on="1"/>
        <pt x="310" y="581" on="0"/>
        <pt x="262" y="535" on="0"/>
        <pt x="230" y="535" on="1"/>
        <pt x="201" y="535" on="0"/>
        <pt x="164" y="575" on="0"/>
        <pt x="164" y="602" on="1"/>
        <pt x="164" y="634" on="0"/>
        <pt x="213" y="679" on="0"/>
        <pt x="244" y="679" on="1"/>
        <pt x="273" y="679" on="0"/>
        <pt x="310" y="642" on="0"/>
      </contour>
    </TTGlyph>
    <TTGlyph name="f" xMin="-154" yMin="-243" xMax="500" yMax="743">
      <contour>
        <pt x="378" y="743" on="1"/>
        <pt x="423" y="743" on="0"/>
        <pt x="493" y="699" on="0"/>
        <pt x="500" y="668" on="1"/>
        <pt x="496" y="646" on="0"/>
        <pt x="465" y="622" on="0"/>
        <pt x="447" y="622" on="1"/>
        <pt x="425" y="622" on="0"/>
        <pt x="390" y="649" on="0"/>
        <pt x="370" y="676" on="1"/>
        <pt x="349" y="706" on="1"/>
        <pt x="318" y="686" on="0"/>
        <pt x="271" y="592" on="0"/>
        <pt x="256" y="495" on="1"/>
        <pt x="255" y="491" on="0"/>
        <pt x="254" y="483" on="0"/>
        <pt x="253" y="479" on="1"/>
        <pt x="378" y="479" on="1"/>
        <pt x="368" y="421" on="1"/>
        <pt x="245" y="425" on="1"/>
        <pt x="230" y="328" on="0"/>
        <pt x="200" y="133" on="0"/>
        <pt x="183" y="41" on="1"/>
        <pt x="168" y="-35" on="0"/>
        <pt x="123" y="-148" on="0"/>
        <pt x="84" y="-186" on="1"/>
        <pt x="53" y="-216" on="0"/>
        <pt x="-11" y="-243" on="0"/>
        <pt x="-40" y="-243" on="1"/>
        <pt x="-80" y="-243" on="0"/>
        <pt x="-141" y="-209" on="0"/>
        <pt x="-154" y="-174" on="1"/>
        <pt x="-150" y="-154" on="0"/>
        <pt x="-122" y="-127" on="0"/>
        <pt x="-100" y="-127" on="1"/>
        <pt x="-77" y="-127" on="0"/>
        <pt x="-39" y="-154" on="0"/>
        <pt x="-23" y="-175" on="1"/>
        <pt x="-6" y="-196" on="1"/>
        <pt x="3" y="-186" on="0"/>
        <pt x="22" y="-161" on="0"/>
        <pt x="30" y="-145" on="1"/>
        <pt x="47" y="-113" on="0"/>
        <pt x="70" y="-25" on="0"/>
        <pt x="82" y="41" on="1"/>
        <pt x="98" y="138" on="0"/>
        <pt x="126" y="327" on="0"/>
        <pt x="141" y="427" on="1"/>
        <pt x="51" y="427" on="1"/>
        <pt x="60" y="470" on="1"/>
        <pt x="149" y="479" on="1"/>
        <pt x="166" y="578" on="0"/>
        <pt x="239" y="693" on="0"/>
        <pt x="333" y="743" on="0"/>
      </contour>
    </TTGlyph>
    <TTGlyph name="f.sups" xMin="-26" yMin="261" xMax="414" yMax="902">
      <contour>
        <pt x="331" y="902" on="1"/>
        <pt x="361" y="902" on="0"/>
        <pt x="409" y="874" on="0"/>
        <pt x="414" y="853" on="1"/>
        <pt x="411" y="837" on="0"/>
        <pt x="389" y="818" on="0"/>
        <pt x="377" y="818" on="1"/>
        <pt x="348" y="818" on="0"/>
        <pt x="324" y="854" on="1"/>
        <pt x="308" y="878" on="1"/>
        <pt x="307" y="877" on="0"/>
        <pt x="305" y="876" on="0"/>
        <pt x="303" y="875" on="1"/>
        <pt x="292" y="868" on="0"/>
        <pt x="273" y="841" on="0"/>
        <pt x="258" y="790" on="0"/>
        <pt x="251" y="745" on="1"/>
        <pt x="250" y="742" on="0"/>
        <pt x="250" y="736" on="0"/>
        <pt x="249" y="733" on="1"/>
        <pt x="333" y="733" on="1"/>
        <pt x="326" y="693" on="1"/>
        <pt x="243" y="695" on="1"/>
        <pt x="233" y="631" on="0"/>
        <pt x="214" y="506" on="0"/>
        <pt x="203" y="447" on="1"/>
        <pt x="194" y="398" on="0"/>
        <pt x="164" y="326" on="0"/>
        <pt x="138" y="301" on="1"/>
        <pt x="97" y="261" on="0"/>
        <pt x="53" y="261" on="1"/>
        <pt x="25" y="261" on="0"/>
        <pt x="-18" y="283" on="0"/>
        <pt x="-26" y="308" on="1"/>
        <pt x="-24" y="323" on="0"/>
        <pt x="-4" y="343" on="0"/>
        <pt x="11" y="343" on="1"/>
        <pt x="28" y="343" on="0"/>
        <pt x="53" y="324" on="0"/>
        <pt x="64" y="310" on="1"/>
        <pt x="76" y="294" on="1"/>
        <pt x="82" y="301" on="0"/>
        <pt x="94" y="317" on="0"/>
        <pt x="99" y="328" on="1"/>
        <pt x="110" y="351" on="0"/>
        <pt x="126" y="408" on="0"/>
        <pt x="133" y="447" on="1"/>
        <pt x="143" y="509" on="0"/>
        <pt x="160" y="633" on="0"/>
        <pt x="170" y="697" on="1"/>
        <pt x="110" y="697" on="1"/>
        <pt x="116" y="727" on="1"/>
        <pt x="175" y="733" on="1"/>
        <pt x="185" y="787" on="0"/>
        <pt x="223" y="856" on="0"/>
        <pt x="250" y="875" on="1"/>
        <pt x="267" y="888" on="0"/>
        <pt x="308" y="902" on="0"/>
      </contour>
    </TTGlyph>
    <TTGlyph name="f_b" xMin="-154" yMin="-243" xMax="812" yMax="743">
      <contour>
        <pt x="476" y="106" on="1"/>
        <pt x="476" y="82" on="0"/>
        <pt x="501" y="54" on="0"/>
        <pt x="524" y="54" on="1"/>
        <pt x="578" y="54" on="0"/>
        <pt x="628" y="111" on="1"/>
        <pt x="660" y="147" on="0"/>
        <pt x="703" y="264" on="0"/>
        <pt x="703" y="320" on="1"/>
        <pt x="703" y="364" on="0"/>
        <pt x="672" y="409" on="0"/>
        <pt x="646" y="409" on="1"/>
        <pt x="618" y="409" on="0"/>
        <pt x="554" y="366" on="0"/>
        <pt x="516" y="327" on="1"/>
        <pt x="496" y="235" on="1"/>
        <pt x="486" y="185" on="0"/>
        <pt x="476" y="130" on="0"/>
      </contour>
      <contour>
        <pt x="389" y="743" on="1"/>
        <pt x="422" y="743" on="0"/>
        <pt x="474" y="718" on="0"/>
        <pt x="488" y="698" on="1"/>
        <pt x="584" y="730" on="1"/>
        <pt x="597" y="720" on="1"/>
        <pt x="524" y="375" on="1"/>
        <pt x="568" y="430" on="0"/>
        <pt x="671" y="493" on="0"/>
        <pt x="714" y="493" on="1"/>
        <pt x="756" y="493" on="0"/>
        <pt x="812" y="433" on="0"/>
        <pt x="812" y="362" on="1"/>
        <pt x="812" y="308" on="0"/>
        <pt x="773" y="200" on="0"/>
        <pt x="706" y="103" on="0"/>
        <pt x="618" y="29" on="0"/>
        <pt x="519" y="-14" on="0"/>
        <pt x="469" y="-14" on="1"/>
        <pt x="426" y="-14" on="0"/>
        <pt x="369" y="35" on="0"/>
        <pt x="369" y="84" on="1"/>
        <pt x="369" y="119" on="0"/>
        <pt x="384" y="202" on="0"/>
        <pt x="393" y="248" on="1"/>
        <pt x="436" y="465" on="1"/>
        <pt x="444" y="506" on="0"/>
        <pt x="460" y="589" on="0"/>
        <pt x="467" y="630" on="1"/>
        <pt x="463" y="629" on="0"/>
        <pt x="457" y="629" on="1"/>
        <pt x="433" y="629" on="0"/>
        <pt x="398" y="653" on="0"/>
        <pt x="378" y="679" on="1"/>
        <pt x="361" y="705" on="1"/>
        <pt x="328" y="685" on="0"/>
        <pt x="273" y="591" on="0"/>
        <pt x="256" y="495" on="1"/>
        <pt x="255" y="491" on="0"/>
        <pt x="254" y="483" on="0"/>
        <pt x="253" y="479" on="1"/>
        <pt x="378" y="479" on="1"/>
        <pt x="368" y="421" on="1"/>
        <pt x="245" y="425" on="1"/>
        <pt x="229" y="328" on="0"/>
        <pt x="200" y="133" on="0"/>
        <pt x="183" y="41" on="1"/>
        <pt x="168" y="-35" on="0"/>
        <pt x="123" y="-148" on="0"/>
        <pt x="84" y="-186" on="1"/>
        <pt x="53" y="-216" on="0"/>
        <pt x="-11" y="-243" on="0"/>
        <pt x="-40" y="-243" on="1"/>
        <pt x="-80" y="-243" on="0"/>
        <pt x="-141" y="-209" on="0"/>
        <pt x="-154" y="-174" on="1"/>
        <pt x="-150" y="-154" on="0"/>
        <pt x="-122" y="-127" on="0"/>
        <pt x="-100" y="-127" on="1"/>
        <pt x="-77" y="-127" on="0"/>
        <pt x="-39" y="-154" on="0"/>
        <pt x="-23" y="-175" on="1"/>
        <pt x="-6" y="-196" on="1"/>
        <pt x="3" y="-186" on="0"/>
        <pt x="22" y="-161" on="0"/>
        <pt x="30" y="-145" on="1"/>
        <pt x="47" y="-113" on="0"/>
        <pt x="70" y="-25" on="0"/>
        <pt x="82" y="41" on="1"/>
        <pt x="98" y="138" on="0"/>
        <pt x="125" y="327" on="0"/>
        <pt x="140" y="427" on="1"/>
        <pt x="51" y="427" on="1"/>
        <pt x="60" y="470" on="1"/>
        <pt x="149" y="479" on="1"/>
        <pt x="172" y="607" on="0"/>
        <pt x="302" y="743" on="0"/>
      </contour>
    </TTGlyph>
    <TTGlyph name="f_f" xMin="-154" yMin="-243" xMax="777" yMax="743">
      <contour>
        <pt x="389" y="743" on="1"/>
        <pt x="433" y="743" on="0"/>
        <pt x="494" y="700" on="0"/>
        <pt x="501" y="671" on="1"/>
        <pt x="500" y="669" on="0"/>
        <pt x="500" y="664" on="0"/>
        <pt x="499" y="662" on="1"/>
        <pt x="533" y="706" on="0"/>
        <pt x="615" y="743" on="0"/>
        <pt x="655" y="743" on="1"/>
        <pt x="700" y="743" on="0"/>
        <pt x="770" y="699" on="0"/>
        <pt x="777" y="668" on="1"/>
        <pt x="773" y="646" on="0"/>
        <pt x="742" y="622" on="0"/>
        <pt x="724" y="622" on="1"/>
        <pt x="702" y="622" on="0"/>
        <pt x="667" y="649" on="0"/>
        <pt x="647" y="676" on="1"/>
        <pt x="626" y="706" on="1"/>
        <pt x="595" y="686" on="0"/>
        <pt x="548" y="592" on="0"/>
        <pt x="533" y="495" on="1"/>
        <pt x="532" y="491" on="0"/>
        <pt x="531" y="483" on="0"/>
        <pt x="530" y="479" on="1"/>
        <pt x="655" y="479" on="1"/>
        <pt x="645" y="421" on="1"/>
        <pt x="522" y="425" on="1"/>
        <pt x="507" y="328" on="0"/>
        <pt x="477" y="133" on="0"/>
        <pt x="460" y="41" on="1"/>
        <pt x="445" y="-35" on="0"/>
        <pt x="400" y="-148" on="0"/>
        <pt x="361" y="-186" on="1"/>
        <pt x="330" y="-216" on="0"/>
        <pt x="266" y="-243" on="0"/>
        <pt x="237" y="-243" on="1"/>
        <pt x="197" y="-243" on="0"/>
        <pt x="136" y="-209" on="0"/>
        <pt x="123" y="-174" on="1"/>
        <pt x="127" y="-154" on="0"/>
        <pt x="155" y="-127" on="0"/>
        <pt x="177" y="-127" on="1"/>
        <pt x="200" y="-127" on="0"/>
        <pt x="238" y="-154" on="0"/>
        <pt x="254" y="-175" on="1"/>
        <pt x="271" y="-196" on="1"/>
        <pt x="280" y="-186" on="0"/>
        <pt x="299" y="-161" on="0"/>
        <pt x="307" y="-145" on="1"/>
        <pt x="324" y="-113" on="0"/>
        <pt x="347" y="-25" on="0"/>
        <pt x="359" y="41" on="1"/>
        <pt x="375" y="138" on="0"/>
        <pt x="403" y="327" on="0"/>
        <pt x="418" y="427" on="1"/>
        <pt x="245" y="427" on="1"/>
        <pt x="230" y="330" on="0"/>
        <pt x="200" y="133" on="0"/>
        <pt x="183" y="41" on="1"/>
        <pt x="168" y="-35" on="0"/>
        <pt x="123" y="-148" on="0"/>
        <pt x="84" y="-186" on="1"/>
        <pt x="53" y="-216" on="0"/>
        <pt x="-11" y="-243" on="0"/>
        <pt x="-40" y="-243" on="1"/>
        <pt x="-80" y="-243" on="0"/>
        <pt x="-141" y="-209" on="0"/>
        <pt x="-154" y="-174" on="1"/>
        <pt x="-150" y="-154" on="0"/>
        <pt x="-122" y="-127" on="0"/>
        <pt x="-100" y="-127" on="1"/>
        <pt x="-77" y="-127" on="0"/>
        <pt x="-39" y="-154" on="0"/>
        <pt x="-23" y="-175" on="1"/>
        <pt x="-6" y="-196" on="1"/>
        <pt x="3" y="-186" on="0"/>
        <pt x="22" y="-161" on="0"/>
        <pt x="30" y="-145" on="1"/>
        <pt x="47" y="-113" on="0"/>
        <pt x="70" y="-25" on="0"/>
        <pt x="82" y="41" on="1"/>
        <pt x="98" y="138" on="0"/>
        <pt x="125" y="327" on="0"/>
        <pt x="140" y="427" on="1"/>
        <pt x="51" y="427" on="1"/>
        <pt x="60" y="470" on="1"/>
        <pt x="149" y="479" on="1"/>
        <pt x="172" y="607" on="0"/>
        <pt x="302" y="743" on="0"/>
      </contour>
      <contour>
        <pt x="256" y="495" on="1"/>
        <pt x="255" y="491" on="0"/>
        <pt x="254" y="483" on="0"/>
        <pt x="253" y="479" on="1"/>
        <pt x="422" y="479" on="1"/>
        <pt x="426" y="479" on="1"/>
        <pt x="434" y="529" on="0"/>
        <pt x="463" y="608" on="0"/>
        <pt x="481" y="638" on="1"/>
        <pt x="471" y="629" on="0"/>
        <pt x="457" y="629" on="1"/>
        <pt x="433" y="629" on="0"/>
        <pt x="398" y="653" on="0"/>
        <pt x="378" y="679" on="1"/>
        <pt x="361" y="705" on="1"/>
        <pt x="328" y="685" on="0"/>
        <pt x="273" y="591" on="0"/>
      </contour>
    </TTGlyph>
    <TTGlyph name="f_f_b" xMin="-154" yMin="-243" xMax="1090" yMax="743">
      <contour>
        <pt x="389" y="743" on="1"/>
        <pt x="433" y="743" on="0"/>
        <pt x="494" y="700" on="0"/>
        <pt x="501" y="671" on="1"/>
        <pt x="497" y="652" on="0"/>
        <pt x="472" y="629" on="0"/>
        <pt x="457" y="629" on="1"/>
        <pt x="433" y="629" on="0"/>
        <pt x="398" y="653" on="0"/>
        <pt x="378" y="679" on="1"/>
        <pt x="361" y="705" on="1"/>
        <pt x="328" y="685" on="0"/>
        <pt x="273" y="591" on="0"/>
        <pt x="256" y="495" on="1"/>
        <pt x="255" y="491" on="0"/>
        <pt x="254" y="483" on="0"/>
        <pt x="253" y="479" on="1"/>
        <pt x="423" y="479" on="1"/>
        <pt x="427" y="479" on="1"/>
        <pt x="450" y="607" on="0"/>
        <pt x="580" y="743" on="0"/>
        <pt x="667" y="743" on="1"/>
        <pt x="700" y="743" on="0"/>
        <pt x="752" y="718" on="0"/>
        <pt x="766" y="698" on="1"/>
        <pt x="862" y="730" on="1"/>
        <pt x="875" y="720" on="1"/>
        <pt x="802" y="375" on="1"/>
        <pt x="846" y="430" on="0"/>
        <pt x="949" y="493" on="0"/>
        <pt x="992" y="493" on="1"/>
        <pt x="1034" y="493" on="0"/>
        <pt x="1090" y="433" on="0"/>
        <pt x="1090" y="362" on="1"/>
        <pt x="1090" y="308" on="0"/>
        <pt x="1051" y="200" on="0"/>
        <pt x="984" y="103" on="0"/>
        <pt x="896" y="29" on="0"/>
        <pt x="797" y="-14" on="0"/>
        <pt x="747" y="-14" on="1"/>
        <pt x="704" y="-14" on="0"/>
        <pt x="647" y="35" on="0"/>
        <pt x="647" y="84" on="1"/>
        <pt x="647" y="119" on="0"/>
        <pt x="662" y="202" on="0"/>
        <pt x="671" y="248" on="1"/>
        <pt x="714" y="465" on="1"/>
        <pt x="722" y="506" on="0"/>
        <pt x="738" y="589" on="0"/>
        <pt x="745" y="630" on="1"/>
        <pt x="741" y="629" on="0"/>
        <pt x="735" y="629" on="1"/>
        <pt x="711" y="629" on="0"/>
        <pt x="676" y="653" on="0"/>
        <pt x="656" y="679" on="1"/>
        <pt x="639" y="705" on="1"/>
        <pt x="606" y="685" on="0"/>
        <pt x="551" y="591" on="0"/>
        <pt x="534" y="495" on="1"/>
        <pt x="533" y="491" on="0"/>
        <pt x="532" y="483" on="0"/>
        <pt x="531" y="479" on="1"/>
        <pt x="656" y="479" on="1"/>
        <pt x="646" y="421" on="1"/>
        <pt x="523" y="425" on="1"/>
        <pt x="507" y="328" on="0"/>
        <pt x="478" y="133" on="0"/>
        <pt x="461" y="41" on="1"/>
        <pt x="446" y="-35" on="0"/>
        <pt x="401" y="-148" on="0"/>
        <pt x="362" y="-186" on="1"/>
        <pt x="331" y="-216" on="0"/>
        <pt x="267" y="-243" on="0"/>
        <pt x="238" y="-243" on="1"/>
        <pt x="198" y="-243" on="0"/>
        <pt x="137" y="-209" on="0"/>
        <pt x="124" y="-174" on="1"/>
        <pt x="128" y="-154" on="0"/>
        <pt x="156" y="-127" on="0"/>
        <pt x="178" y="-127" on="1"/>
        <pt x="201" y="-127" on="0"/>
        <pt x="239" y="-154" on="0"/>
        <pt x="255" y="-175" on="1"/>
        <pt x="272" y="-196" on="1"/>
        <pt x="281" y="-186" on="0"/>
        <pt x="300" y="-161" on="0"/>
        <pt x="308" y="-145" on="1"/>
        <pt x="325" y="-113" on="0"/>
        <pt x="348" y="-25" on="0"/>
        <pt x="360" y="41" on="1"/>
        <pt x="376" y="138" on="0"/>
        <pt x="403" y="327" on="0"/>
        <pt x="418" y="427" on="1"/>
        <pt x="245" y="427" on="1"/>
        <pt x="230" y="330" on="0"/>
        <pt x="200" y="133" on="0"/>
        <pt x="183" y="41" on="1"/>
        <pt x="168" y="-35" on="0"/>
        <pt x="123" y="-148" on="0"/>
        <pt x="84" y="-186" on="1"/>
        <pt x="53" y="-216" on="0"/>
        <pt x="-11" y="-243" on="0"/>
        <pt x="-40" y="-243" on="1"/>
        <pt x="-80" y="-243" on="0"/>
        <pt x="-141" y="-209" on="0"/>
        <pt x="-154" y="-174" on="1"/>
        <pt x="-150" y="-154" on="0"/>
        <pt x="-122" y="-127" on="0"/>
        <pt x="-100" y="-127" on="1"/>
        <pt x="-77" y="-127" on="0"/>
        <pt x="-39" y="-154" on="0"/>
        <pt x="-23" y="-175" on="1"/>
        <pt x="-6" y="-196" on="1"/>
        <pt x="3" y="-186" on="0"/>
        <pt x="22" y="-161" on="0"/>
        <pt x="30" y="-145" on="1"/>
        <pt x="47" y="-113" on="0"/>
        <pt x="70" y="-25" on="0"/>
        <pt x="82" y="41" on="1"/>
        <pt x="98" y="138" on="0"/>
        <pt x="125" y="327" on="0"/>
        <pt x="140" y="427" on="1"/>
        <pt x="51" y="427" on="1"/>
        <pt x="60" y="470" on="1"/>
        <pt x="149" y="479" on="1"/>
        <pt x="172" y="607" on="0"/>
        <pt x="302" y="743" on="0"/>
      </contour>
      <contour>
        <pt x="754" y="106" on="1"/>
        <pt x="754" y="82" on="0"/>
        <pt x="779" y="54" on="0"/>
        <pt x="802" y="54" on="1"/>
        <pt x="856" y="54" on="0"/>
        <pt x="906" y="111" on="1"/>
        <pt x="938" y="147" on="0"/>
        <pt x="981" y="264" on="0"/>
        <pt x="981" y="320" on="1"/>
        <pt x="981" y="364" on="0"/>
        <pt x="950" y="409" on="0"/>
        <pt x="924" y="409" on="1"/>
        <pt x="896" y="409" on="0"/>
        <pt x="832" y="366" on="0"/>
        <pt x="794" y="327" on="1"/>
        <pt x="774" y="235" on="1"/>
        <pt x="764" y="185" on="0"/>
        <pt x="754" y="130" on="0"/>
      </contour>
    </TTGlyph>
    <TTGlyph name="f_f_f" xMin="-154" yMin="-243" xMax="1055" yMax="743">
      <contour>
        <pt x="534" y="495" on="1"/>
        <pt x="533" y="491" on="0"/>
        <pt x="532" y="483" on="0"/>
        <pt x="531" y="479" on="1"/>
        <pt x="700" y="479" on="1"/>
        <pt x="704" y="479" on="1"/>
        <pt x="712" y="529" on="0"/>
        <pt x="741" y="608" on="0"/>
        <pt x="759" y="638" on="1"/>
        <pt x="749" y="629" on="0"/>
        <pt x="735" y="629" on="1"/>
        <pt x="711" y="629" on="0"/>
        <pt x="676" y="653" on="0"/>
        <pt x="656" y="679" on="1"/>
        <pt x="639" y="705" on="1"/>
        <pt x="606" y="685" on="0"/>
        <pt x="551" y="591" on="0"/>
      </contour>
      <contour>
        <pt x="933" y="743" on="1"/>
        <pt x="978" y="743" on="0"/>
        <pt x="1048" y="699" on="0"/>
        <pt x="1055" y="668" on="1"/>
        <pt x="1051" y="646" on="0"/>
        <pt x="1020" y="622" on="0"/>
        <pt x="1002" y="622" on="1"/>
        <pt x="980" y="622" on="0"/>
        <pt x="945" y="649" on="0"/>
        <pt x="925" y="676" on="1"/>
        <pt x="904" y="706" on="1"/>
        <pt x="873" y="686" on="0"/>
        <pt x="826" y="592" on="0"/>
        <pt x="811" y="495" on="1"/>
        <pt x="810" y="491" on="0"/>
        <pt x="809" y="483" on="0"/>
        <pt x="808" y="479" on="1"/>
        <pt x="933" y="479" on="1"/>
        <pt x="923" y="421" on="1"/>
        <pt x="800" y="425" on="1"/>
        <pt x="785" y="328" on="0"/>
        <pt x="755" y="133" on="0"/>
        <pt x="738" y="41" on="1"/>
        <pt x="723" y="-35" on="0"/>
        <pt x="678" y="-148" on="0"/>
        <pt x="639" y="-186" on="1"/>
        <pt x="608" y="-216" on="0"/>
        <pt x="544" y="-243" on="0"/>
        <pt x="515" y="-243" on="1"/>
        <pt x="475" y="-243" on="0"/>
        <pt x="414" y="-209" on="0"/>
        <pt x="401" y="-174" on="1"/>
        <pt x="405" y="-154" on="0"/>
        <pt x="433" y="-127" on="0"/>
        <pt x="455" y="-127" on="1"/>
        <pt x="478" y="-127" on="0"/>
        <pt x="516" y="-154" on="0"/>
        <pt x="532" y="-175" on="1"/>
        <pt x="549" y="-196" on="1"/>
        <pt x="558" y="-186" on="0"/>
        <pt x="577" y="-161" on="0"/>
        <pt x="585" y="-145" on="1"/>
        <pt x="602" y="-113" on="0"/>
        <pt x="625" y="-25" on="0"/>
        <pt x="637" y="41" on="1"/>
        <pt x="653" y="138" on="0"/>
        <pt x="681" y="327" on="0"/>
        <pt x="696" y="427" on="1"/>
        <pt x="523" y="427" on="1"/>
        <pt x="508" y="330" on="0"/>
        <pt x="478" y="133" on="0"/>
        <pt x="461" y="41" on="1"/>
        <pt x="446" y="-35" on="0"/>
        <pt x="401" y="-148" on="0"/>
        <pt x="362" y="-186" on="1"/>
        <pt x="331" y="-216" on="0"/>
        <pt x="267" y="-243" on="0"/>
        <pt x="238" y="-243" on="1"/>
        <pt x="198" y="-243" on="0"/>
        <pt x="137" y="-209" on="0"/>
        <pt x="124" y="-174" on="1"/>
        <pt x="128" y="-154" on="0"/>
        <pt x="156" y="-127" on="0"/>
        <pt x="178" y="-127" on="1"/>
        <pt x="201" y="-127" on="0"/>
        <pt x="239" y="-154" on="0"/>
        <pt x="255" y="-175" on="1"/>
        <pt x="272" y="-196" on="1"/>
        <pt x="281" y="-186" on="0"/>
        <pt x="300" y="-161" on="0"/>
        <pt x="308" y="-145" on="1"/>
        <pt x="325" y="-113" on="0"/>
        <pt x="348" y="-25" on="0"/>
        <pt x="360" y="41" on="1"/>
        <pt x="376" y="138" on="0"/>
        <pt x="403" y="327" on="0"/>
        <pt x="418" y="427" on="1"/>
        <pt x="245" y="427" on="1"/>
        <pt x="230" y="330" on="0"/>
        <pt x="200" y="133" on="0"/>
        <pt x="183" y="41" on="1"/>
        <pt x="168" y="-35" on="0"/>
        <pt x="123" y="-148" on="0"/>
        <pt x="84" y="-186" on="1"/>
        <pt x="53" y="-216" on="0"/>
        <pt x="-11" y="-243" on="0"/>
        <pt x="-40" y="-243" on="1"/>
        <pt x="-80" y="-243" on="0"/>
        <pt x="-141" y="-209" on="0"/>
        <pt x="-154" y="-174" on="1"/>
        <pt x="-150" y="-154" on="0"/>
        <pt x="-122" y="-127" on="0"/>
        <pt x="-100" y="-127" on="1"/>
        <pt x="-77" y="-127" on="0"/>
        <pt x="-39" y="-154" on="0"/>
        <pt x="-23" y="-175" on="1"/>
        <pt x="-6" y="-196" on="1"/>
        <pt x="3" y="-186" on="0"/>
        <pt x="22" y="-161" on="0"/>
        <pt x="30" y="-145" on="1"/>
        <pt x="47" y="-113" on="0"/>
        <pt x="70" y="-25" on="0"/>
        <pt x="82" y="41" on="1"/>
        <pt x="98" y="138" on="0"/>
        <pt x="125" y="327" on="0"/>
        <pt x="140" y="427" on="1"/>
        <pt x="51" y="427" on="1"/>
        <pt x="60" y="470" on="1"/>
        <pt x="149" y="479" on="1"/>
        <pt x="172" y="607" on="0"/>
        <pt x="302" y="743" on="0"/>
        <pt x="389" y="743" on="1"/>
        <pt x="433" y="743" on="0"/>
        <pt x="494" y="700" on="0"/>
        <pt x="501" y="671" on="1"/>
        <pt x="497" y="652" on="0"/>
        <pt x="472" y="629" on="0"/>
        <pt x="457" y="629" on="1"/>
        <pt x="433" y="629" on="0"/>
        <pt x="398" y="653" on="0"/>
        <pt x="378" y="679" on="1"/>
        <pt x="361" y="705" on="1"/>
        <pt x="328" y="685" on="0"/>
        <pt x="273" y="591" on="0"/>
        <pt x="256" y="495" on="1"/>
        <pt x="255" y="491" on="0"/>
        <pt x="254" y="483" on="0"/>
        <pt x="253" y="479" on="1"/>
        <pt x="423" y="479" on="1"/>
        <pt x="427" y="479" on="1"/>
        <pt x="450" y="607" on="0"/>
        <pt x="580" y="743" on="0"/>
        <pt x="667" y="743" on="1"/>
        <pt x="711" y="743" on="0"/>
        <pt x="772" y="700" on="0"/>
        <pt x="779" y="671" on="1"/>
        <pt x="778" y="669" on="0"/>
        <pt x="778" y="664" on="0"/>
        <pt x="777" y="662" on="1"/>
        <pt x="811" y="706" on="0"/>
        <pt x="893" y="743" on="0"/>
      </contour>
    </TTGlyph>
    <TTGlyph name="f_f_h" xMin="-154" yMin="-243" xMax="1145" yMax="743">
      <contour>
        <pt x="389" y="743" on="1"/>
        <pt x="433" y="743" on="0"/>
        <pt x="494" y="700" on="0"/>
        <pt x="501" y="671" on="1"/>
        <pt x="497" y="652" on="0"/>
        <pt x="472" y="629" on="0"/>
        <pt x="457" y="629" on="1"/>
        <pt x="433" y="629" on="0"/>
        <pt x="398" y="653" on="0"/>
        <pt x="378" y="679" on="1"/>
        <pt x="361" y="705" on="1"/>
        <pt x="328" y="685" on="0"/>
        <pt x="273" y="591" on="0"/>
        <pt x="256" y="495" on="1"/>
        <pt x="255" y="491" on="0"/>
        <pt x="254" y="483" on="0"/>
        <pt x="253" y="479" on="1"/>
        <pt x="423" y="479" on="1"/>
        <pt x="427" y="479" on="1"/>
        <pt x="450" y="607" on="0"/>
        <pt x="580" y="743" on="0"/>
        <pt x="667" y="743" on="1"/>
        <pt x="701" y="743" on="0"/>
        <pt x="755" y="716" on="0"/>
        <pt x="768" y="696" on="1"/>
        <pt x="866" y="730" on="1"/>
        <pt x="879" y="720" on="1"/>
        <pt x="807" y="381" on="1"/>
        <pt x="858" y="431" on="0"/>
        <pt x="969" y="493" on="0"/>
        <pt x="1015" y="493" on="1"/>
        <pt x="1047" y="493" on="0"/>
        <pt x="1085" y="455" on="0"/>
        <pt x="1085" y="417" on="1"/>
        <pt x="1085" y="395" on="0"/>
        <pt x="1077" y="348" on="0"/>
        <pt x="1071" y="324" on="1"/>
        <pt x="1025" y="137" on="1"/>
        <pt x="1021" y="120" on="0"/>
        <pt x="1014" y="94" on="0"/>
        <pt x="1014" y="86" on="1"/>
        <pt x="1014" y="66" on="0"/>
        <pt x="1032" y="66" on="1"/>
        <pt x="1065" y="66" on="0"/>
        <pt x="1118" y="133" on="1"/>
        <pt x="1145" y="113" on="1"/>
        <pt x="1126" y="82" on="0"/>
        <pt x="1069" y="23" on="0"/>
        <pt x="1001" y="-14" on="0"/>
        <pt x="962" y="-14" on="1"/>
        <pt x="933" y="-14" on="0"/>
        <pt x="900" y="14" on="0"/>
        <pt x="900" y="39" on="1"/>
        <pt x="900" y="59" on="0"/>
        <pt x="909" y="99" on="0"/>
        <pt x="916" y="126" on="1"/>
        <pt x="956" y="289" on="1"/>
        <pt x="962" y="313" on="0"/>
        <pt x="970" y="356" on="0"/>
        <pt x="970" y="370" on="1"/>
        <pt x="970" y="409" on="0"/>
        <pt x="940" y="409" on="1"/>
        <pt x="889" y="409" on="0"/>
        <pt x="800" y="333" on="1"/>
        <pt x="774" y="213" on="1"/>
        <pt x="762" y="154" on="0"/>
        <pt x="742" y="53" on="0"/>
        <pt x="734" y="0" on="1"/>
        <pt x="636" y="-8" on="1"/>
        <pt x="624" y="2" on="1"/>
        <pt x="717" y="451" on="1"/>
        <pt x="725" y="490" on="0"/>
        <pt x="742" y="586" on="0"/>
        <pt x="749" y="632" on="1"/>
        <pt x="743" y="629" on="0"/>
        <pt x="735" y="629" on="1"/>
        <pt x="711" y="629" on="0"/>
        <pt x="676" y="653" on="0"/>
        <pt x="656" y="679" on="1"/>
        <pt x="639" y="705" on="1"/>
        <pt x="606" y="685" on="0"/>
        <pt x="551" y="591" on="0"/>
        <pt x="534" y="495" on="1"/>
        <pt x="533" y="491" on="0"/>
        <pt x="532" y="483" on="0"/>
        <pt x="531" y="479" on="1"/>
        <pt x="656" y="479" on="1"/>
        <pt x="646" y="421" on="1"/>
        <pt x="523" y="425" on="1"/>
        <pt x="507" y="328" on="0"/>
        <pt x="478" y="133" on="0"/>
        <pt x="461" y="41" on="1"/>
        <pt x="446" y="-35" on="0"/>
        <pt x="401" y="-148" on="0"/>
        <pt x="362" y="-186" on="1"/>
        <pt x="331" y="-216" on="0"/>
        <pt x="267" y="-243" on="0"/>
        <pt x="238" y="-243" on="1"/>
        <pt x="198" y="-243" on="0"/>
        <pt x="137" y="-209" on="0"/>
        <pt x="124" y="-174" on="1"/>
        <pt x="128" y="-154" on="0"/>
        <pt x="156" y="-127" on="0"/>
        <pt x="178" y="-127" on="1"/>
        <pt x="201" y="-127" on="0"/>
        <pt x="239" y="-154" on="0"/>
        <pt x="255" y="-175" on="1"/>
        <pt x="272" y="-196" on="1"/>
        <pt x="281" y="-186" on="0"/>
        <pt x="300" y="-161" on="0"/>
        <pt x="308" y="-145" on="1"/>
        <pt x="325" y="-113" on="0"/>
        <pt x="348" y="-25" on="0"/>
        <pt x="360" y="41" on="1"/>
        <pt x="376" y="138" on="0"/>
        <pt x="403" y="327" on="0"/>
        <pt x="418" y="427" on="1"/>
        <pt x="245" y="427" on="1"/>
        <pt x="230" y="330" on="0"/>
        <pt x="200" y="133" on="0"/>
        <pt x="183" y="41" on="1"/>
        <pt x="168" y="-35" on="0"/>
        <pt x="123" y="-148" on="0"/>
        <pt x="84" y="-186" on="1"/>
        <pt x="53" y="-216" on="0"/>
        <pt x="-11" y="-243" on="0"/>
        <pt x="-40" y="-243" on="1"/>
        <pt x="-80" y="-243" on="0"/>
        <pt x="-141" y="-209" on="0"/>
        <pt x="-154" y="-174" on="1"/>
        <pt x="-150" y="-154" on="0"/>
        <pt x="-122" y="-127" on="0"/>
        <pt x="-100" y="-127" on="1"/>
        <pt x="-77" y="-127" on="0"/>
        <pt x="-39" y="-154" on="0"/>
        <pt x="-23" y="-175" on="1"/>
        <pt x="-6" y="-196" on="1"/>
        <pt x="3" y="-186" on="0"/>
        <pt x="22" y="-161" on="0"/>
        <pt x="30" y="-145" on="1"/>
        <pt x="47" y="-113" on="0"/>
        <pt x="70" y="-25" on="0"/>
        <pt x="82" y="41" on="1"/>
        <pt x="98" y="138" on="0"/>
        <pt x="125" y="327" on="0"/>
        <pt x="140" y="427" on="1"/>
        <pt x="51" y="427" on="1"/>
        <pt x="60" y="470" on="1"/>
        <pt x="149" y="479" on="1"/>
        <pt x="172" y="607" on="0"/>
        <pt x="302" y="743" on="0"/>
      </contour>
    </TTGlyph>
</ttFont>
